<?xml version="1.0" encoding="UTF-8" standalone="no"?>
<svg
   xmlns:dc="http://purl.org/dc/elements/1.1/"
   xmlns:cc="http://creativecommons.org/ns#"
   xmlns:rdf="http://www.w3.org/1999/02/22-rdf-syntax-ns#"
   xmlns:svg="http://www.w3.org/2000/svg"
   xmlns="http://www.w3.org/2000/svg"
   viewBox="0 0 1000 666.66669"
   height="666.66669"
   width="1000"
   xml:space="preserve"
   id="svg2"
   version="1.1"><metadata
     id="metadata8"><rdf:RDF><cc:Work
         rdf:about=""><dc:format>image/svg+xml</dc:format><dc:type
           rdf:resource="http://purl.org/dc/dcmitype/StillImage" /></cc:Work></rdf:RDF></metadata><defs
     id="defs6" /><g
     transform="matrix(1.3333333,0,0,-1.3333333,0,666.66667)"
     id="g10"><g
       transform="scale(0.1)"
       id="g12"><path
         id="path14"
         style="fill:#c1eaee;fill-opacity:1;fill-rule:nonzero;stroke:none"
         d="M 0,0 H 7500 V 5000 H 0 Z" /><path
         id="path16"
         style="fill:#a9e2dc;fill-opacity:1;fill-rule:nonzero;stroke:none"
         d="M 7480,746.531 H 5306.96 V 3596.38 H 7480 V 746.531" /><path
         id="path18"
         style="fill:#7fd4cd;fill-opacity:1;fill-rule:nonzero;stroke:none"
         d="M 7500,766.531 H 5425.98 V 3486.53 H 7500 V 766.531" /><path
         id="path20"
         style="fill:#56c4ba;fill-opacity:1;fill-rule:nonzero;stroke:none"
         d="M 7448.94,2288.3 H 7277.1 v -243.59 h 171.84 v 243.59" /><path
         id="path22"
         style="fill:#56c4ba;fill-opacity:1;fill-rule:nonzero;stroke:none"
         d="m 7242.06,2288.3 h -171.84 v -243.59 h 171.84 v 243.59" /><path
         id="path24"
         style="fill:#56c4ba;fill-opacity:1;fill-rule:nonzero;stroke:none"
         d="M 7035.2,2288.3 H 6863.35 V 2044.71 H 7035.2 V 2288.3" /><path
         id="path26"
         style="fill:#56c4ba;fill-opacity:1;fill-rule:nonzero;stroke:none"
         d="m 6828.32,2288.3 h -171.84 v -243.59 h 171.84 v 243.59" /><path
         id="path28"
         style="fill:#56c4ba;fill-opacity:1;fill-rule:nonzero;stroke:none"
         d="m 6621.46,2288.3 h -171.85 v -243.59 h 171.85 v 243.59" /><path
         id="path30"
         style="fill:#56c4ba;fill-opacity:1;fill-rule:nonzero;stroke:none"
         d="m 6414.58,2288.3 h -171.84 v -243.59 h 171.84 v 243.59" /><path
         id="path32"
         style="fill:#56c4ba;fill-opacity:1;fill-rule:nonzero;stroke:none"
         d="m 6207.71,2288.3 h -171.84 v -243.59 h 171.84 v 243.59" /><path
         id="path34"
         style="fill:#56c4ba;fill-opacity:1;fill-rule:nonzero;stroke:none"
         d="m 6000.84,2288.3 h -171.85 v -243.59 h 171.85 v 243.59" /><path
         id="path36"
         style="fill:#56c4ba;fill-opacity:1;fill-rule:nonzero;stroke:none"
         d="m 5793.96,2288.3 h -171.83 v -243.59 h 171.83 v 243.59" /><path
         id="path38"
         style="fill:#56c4ba;fill-opacity:1;fill-rule:nonzero;stroke:none"
         d="m 5610.63,3025.86 h -110.56 v 315.89 h 110.56 v -315.89" /><path
         id="path40"
         style="fill:#56c4ba;fill-opacity:1;fill-rule:nonzero;stroke:none"
         d="m 5586.69,2517.59 h -86.62 v 315.89 h 86.62 v -315.89" /><path
         id="path42"
         style="fill:#56c4ba;fill-opacity:1;fill-rule:nonzero;stroke:none"
         d="m 5757.36,2523.89 v 86.62 h 315.89 v -86.62 h -315.89" /><path
         id="path44"
         style="fill:#56c4ba;fill-opacity:1;fill-rule:nonzero;stroke:none"
         d="m 5715.95,2517.59 h -86.62 v 243.75 h 86.62 v -243.75" /><path
         id="path46"
         style="fill:#56c4ba;fill-opacity:1;fill-rule:nonzero;stroke:none"
         d="m 6462.99,2517.59 h -148.36 v 292.43 h 148.36 v -292.43" /><path
         id="path48"
         style="fill:#56c4ba;fill-opacity:1;fill-rule:nonzero;stroke:none"
         d="m 7034.9,2517.59 h -148.36 v 292.43 h 148.36 v -292.43" /><path
         id="path50"
         style="fill:#56c4ba;fill-opacity:1;fill-rule:nonzero;stroke:none"
         d="m 6611.49,2517.59 h -129.46 v 205.26 h 129.46 v -205.26" /><path
         id="path52"
         style="fill:#56c4ba;fill-opacity:1;fill-rule:nonzero;stroke:none"
         d="m 7132.29,2517.59 h -64.73 v 205.26 h 64.73 v -205.26" /><path
         id="path54"
         style="fill:#56c4ba;fill-opacity:1;fill-rule:nonzero;stroke:none"
         d="m 7220.88,2517.59 h -64.74 v 205.26 h 64.74 v -205.26" /><path
         id="path56"
         style="fill:#56c4ba;fill-opacity:1;fill-rule:nonzero;stroke:none"
         d="m 7309.46,2517.59 h -64.73 v 205.26 h 64.73 v -205.26" /><path
         id="path58"
         style="fill:#56c4ba;fill-opacity:1;fill-rule:nonzero;stroke:none"
         d="m 7398.05,2517.59 h -64.73 v 205.26 h 64.73 v -205.26" /><path
         id="path60"
         style="fill:#56c4ba;fill-opacity:1;fill-rule:nonzero;stroke:none"
         d="m 6856.59,2517.59 h -222.14 v 102.63 h 222.14 v -102.63" /><path
         id="path62"
         style="fill:#56c4ba;fill-opacity:1;fill-rule:nonzero;stroke:none"
         d="m 5753.61,3025.86 h -110.56 v 315.89 h 110.56 v -315.89" /><path
         id="path64"
         style="fill:#56c4ba;fill-opacity:1;fill-rule:nonzero;stroke:none"
         d="m 5896.59,3025.86 h -110.56 v 315.89 h 110.56 v -315.89" /><path
         id="path66"
         style="fill:#56c4ba;fill-opacity:1;fill-rule:nonzero;stroke:none"
         d="M 6039.57,3025.86 H 5929 v 315.89 h 110.57 v -315.89" /><path
         id="path68"
         style="fill:#56c4ba;fill-opacity:1;fill-rule:nonzero;stroke:none"
         d="m 6182.55,3025.86 h -110.57 v 315.89 h 110.57 v -315.89" /><path
         id="path70"
         style="fill:#56c4ba;fill-opacity:1;fill-rule:nonzero;stroke:none"
         d="m 6325.53,3025.86 h -110.57 v 315.89 h 110.57 v -315.89" /><path
         id="path72"
         style="fill:#56c4ba;fill-opacity:1;fill-rule:nonzero;stroke:none"
         d="m 6468.51,3025.86 h -110.57 v 315.89 h 110.57 v -315.89" /><path
         id="path74"
         style="fill:#56c4ba;fill-opacity:1;fill-rule:nonzero;stroke:none"
         d="m 6611.49,3025.86 h -110.57 v 315.89 h 110.57 v -315.89" /><path
         id="path76"
         style="fill:#56c4ba;fill-opacity:1;fill-rule:nonzero;stroke:none"
         d="M 6754.47,3025.86 H 6643.9 v 315.89 h 110.57 v -315.89" /><path
         id="path78"
         style="fill:#56c4ba;fill-opacity:1;fill-rule:nonzero;stroke:none"
         d="m 6816.4,3025.86 v 76.9 h 549.28 v -76.9 H 6816.4" /><path
         id="path80"
         style="fill:#56c4ba;fill-opacity:1;fill-rule:nonzero;stroke:none"
         d="m 6878.74,3102.76 v 62.35 h 430.72 v -62.35 h -430.72" /><path
         id="path82"
         style="fill:#a9e2dc;fill-opacity:1;fill-rule:nonzero;stroke:none"
         d="M 7480,2940.11 H 5389.45 v 91.21 H 7480 v -91.21" /><path
         id="path84"
         style="fill:#a9e2dc;fill-opacity:1;fill-rule:nonzero;stroke:none"
         d="M 7480,2442.35 H 5389.45 v 91.22 H 7480 v -91.22" /><path
         id="path86"
         style="fill:#a9e2dc;fill-opacity:1;fill-rule:nonzero;stroke:none"
         d="M 7480,1944.61 H 5389.45 v 91.21 H 7480 v -91.21" /><path
         id="path88"
         style="fill:#8ed9d7;fill-opacity:1;fill-rule:nonzero;stroke:none"
         d="m 6522.99,2117.57 h 465.1 l 60,-152.57 h -465.1 l -60,152.57" /><path
         id="path90"
         style="fill:#ffffff;fill-opacity:1;fill-rule:nonzero;stroke:none"
         d="m 6988.09,2117.57 h -465.1 l -60,-152.57 h 465.1 l 60,152.57" /><path
         id="path92"
         style="fill:#8ed9d7;fill-opacity:1;fill-rule:nonzero;stroke:none"
         d="M 7500,1205.34 H 0 V 0 h 7500 v 1205.34" /><path
         id="path94"
         style="fill:#f9ad6d;fill-opacity:1;fill-rule:nonzero;stroke:none"
         d="m 5848.7,2225.53 c -8.22,-17.54 -15.76,-35.27 -22.3,-53.25 -8.18,-22.49 -6.71,-52.11 13.48,-64.93 20.09,-12.75 46.54,-2.11 66.63,10.61 51.5,32.57 105.59,81.87 121.83,142.05 13.26,49.14 20.54,101.48 31.16,151.45 7.71,36.23 42.11,106.04 -14.37,105.08 -46.55,-0.79 -74.16,-58.11 -90.6,-91.85 -32.38,-66.47 -74.1,-131.43 -105.83,-199.16" /><path
         id="path96"
         style="fill:#5588af;fill-opacity:1;fill-rule:nonzero;stroke:none"
         d="m 5890.72,2355.84 c -25.58,-56.21 -42.39,-111.44 -38.95,-129.31 4.79,-24.86 22.94,-45.53 44.3,-59.13 21.38,-13.59 45.95,-21.12 70.19,-28.48 5.71,46.11 11.43,92.23 17.14,138.35 5.41,43.62 20.85,72.89 40.28,112.32 7.89,16.02 15.89,32.34 18.64,49.99 2.76,17.65 -0.48,37.13 -12.72,50.15 -39.16,41.69 -99.44,-47.28 -138.88,-133.89" /><path
         id="path98"
         style="fill:#f9ad6d;fill-opacity:1;fill-rule:nonzero;stroke:none"
         d="m 5871.76,2191.91 c -8.33,3.81 -16.57,7.64 -24.65,11.78 -38.54,19.73 -73.61,45.11 -111.46,65.93 -24.19,12.67 -47.98,26.15 -72.03,39.09 -17.96,9.65 -39.66,29.58 -59.52,33.6 -4.16,-15.21 2.74,-30.29 11.62,-42.28 -35.7,-4.84 -71.38,-11.74 -107.73,-15.61 -5.44,-14.96 0.33,-32.49 11.69,-43.64 11.35,-11.15 27.35,-16.58 43.2,-18.03 41.29,-3.75 84.89,15.07 125.26,0.85 27.01,-9.51 48.94,-39.49 69.75,-58.81 30.12,-27.99 60.13,-55.34 92.09,-81.16 22.92,6.38 32.38,19.98 37.44,43.23 5.07,23.24 5.97,55.16 -15.66,65.05" /><path
         id="path100"
         style="fill:#384d59;fill-opacity:1;fill-rule:nonzero;stroke:none"
         d="m 6216.98,906.199 c 13.08,-26.16 59.94,-118.09 28.26,-141.617 -4.48,-3.332 -9.82,-5.262 -15.07,-7.152 -11.63,-4.18 -23.26,-8.36 -34.88,-12.539 -70.39,-25.442 -132.7,-35.2 -207.06,-41.102 -7.13,-0.559 -15.05,-0.898 -20.61,3.59 -25.5,20.57 26.02,25.742 34.18,29.723 22.88,11.109 45.04,38.878 61.9,57.449 22.4,24.668 42.86,48.308 58.68,77.758 10.06,18.742 3.49,18.16 20.32,29.8 4.44,3.082 66.34,19.551 66.65,18.973 2.49,-4.762 5.06,-9.73 7.63,-14.883" /><path
         id="path102"
         style="fill:#58879d;fill-opacity:1;fill-rule:nonzero;stroke:none"
         d="m 5927.46,1751.39 c 0.15,6.82 0.23,13.69 0.38,20.5 l 221.63,194.03 c 5.18,-8.03 9.99,-16.3 14.43,-24.75 18.24,-34.92 28.24,-73.31 29.43,-112.67 1.06,-35.77 -5.06,-71.12 -13.96,-105.68 -10.19,-39.72 -21.57,-79.05 -29.89,-119.21 -8.98,-43.58 -16.5,-88.02 -29.39,-130.73 -10.2,-33.74 -25.11,-65.6 -23.39,-101.64 0.7,-15.11 2.21,-31.12 7.6,-45.33 5.41,-14.3 15.22,-26.42 24.34,-38.45 22.22,-29.39 42.98,-59.03 58.1,-92.81 15.86,-35.22 22.61,-71.54 25.74,-109.8 3.34,-40.64 4.5,-82.46 13.91,-122.319 3.23,-13.601 10.03,-25.82 13.56,-39.269 2.9,-10.981 2.42,-22.731 0.99,-33.93 l -96.29,-22.461 c -4.31,10.16 -7.72,20.789 -9.42,31.688 -2.1,13.441 -1.14,27.152 -2.92,40.66 -4.07,30.793 -15.78,58.422 -29.94,85.751 -16.57,32.01 -33.06,64.05 -47.52,97.13 -13.2,30.17 -24.46,61.78 -41.6,89.96 -16.38,27.08 -40.19,47.43 -60.63,71.15 -12.34,14.34 -21.27,29.7 -23.28,48.72 -1.73,15.88 0.12,31.99 0.84,47.91 0.65,13.56 0.45,27.17 0.01,40.73 -1.28,39 -2.65,77.98 -3.26,116.97 -1.3,74.42 10.17,157.4 -1.76,229.89 -11.37,69.05 -24.06,128.21 30.73,185.76 50.15,52.7 136.44,66.57 200.58,32.24 4.78,-12.45 -0.34,-27.94 -11.59,-35.1" /><path
         id="path104"
         style="fill:#45606e;fill-opacity:1;fill-rule:nonzero;stroke:none"
         d="m 6106.57,858.07 c 7.03,-28.39 32.62,-128.351 -3.44,-144.371 -5.1,-2.269 -10.74,-2.988 -16.28,-3.679 -12.26,-1.52 -24.52,-3.059 -36.77,-4.59 -66,-8.231 -129.98,-10.36 -196.35,-11.078 -30.79,-0.352 -72.93,15.707 -21.44,34.609 35.23,12.93 69.64,32.211 100.26,53.75 27.26,19.16 52.41,37.75 74.3,63.019 13.92,16.079 7.38,16.95 26.34,24.61 5.01,2.031 69.02,4.551 69.18,3.93 1.4,-5.2 2.82,-10.622 4.2,-16.2" /><path
         id="path106"
         style="fill:#709bad;fill-opacity:1;fill-rule:nonzero;stroke:none"
         d="m 6062.16,1962.05 c 43.55,29.06 129.9,43.53 174.5,6.76 46.15,-38.05 16.05,-96.65 4.47,-154.52 -31.16,-155.8 -105.67,-275.84 -159.05,-419.65 -28.3,-76.26 18.6,-134.03 34.56,-205.61 21.97,-98.48 -7.3,-196.132 -3.75,-294.171 0.41,-11.339 -2.64,-22.699 -6.5,-33.308 l -98.87,-0.742 c -1.97,10.863 -2.96,21.961 -2.22,32.98 0.9,13.57 4.86,26.742 6.09,40.313 2.79,30.918 -2.55,60.449 -10.36,90.228 -15.98,60.88 -29.46,132.88 -50.28,196.3 -22.86,69.64 -46.28,107.09 -38.37,181.87 12.47,118.04 55.18,229.16 73.87,345.73 12.61,78.57 0.43,163.45 75.91,213.82" /><path
         id="path108"
         style="fill:#58879d;fill-opacity:1;fill-rule:nonzero;stroke:none"
         d="m 5956.26,1867 c 30.41,-34.47 70.86,-60.64 115.63,-71.02 44.79,-10.38 93.78,-4.29 133.07,19.57 14.64,8.89 28.31,20.74 34.78,36.6 6.46,15.85 3.89,36.24 -9.45,46.96 -10.33,8.29 -24.49,9.39 -37.7,10.15 -89.64,5.11 -179.28,10.21 -268.91,15.32 3.4,-45.06 40.39,-85.4 84.99,-92.68" /><path
         id="path110"
         style="fill:#a45923;fill-opacity:1;fill-rule:nonzero;stroke:none"
         d="m 6210.49,2687.2 c 16.54,-6.33 29.58,-19.88 38.23,-35.33 15.57,-27.8 26.9,-60.39 30.09,-92.09 0.88,-8.71 -9.73,-103.04 -15.01,-99.67 -36.22,23.14 -70.61,51.26 -91.98,88.55 -21.2,36.97 -40.74,168.92 38.67,138.54" /><path
         id="path112"
         style="fill:#5588af;fill-opacity:1;fill-rule:nonzero;stroke:none"
         d="m 6237.3,2056.69 c 0.04,-9 0.26,-17.98 0.72,-26.9 2.95,-56.8 50.49,-101.49 -7.07,-151.7 -28.1,-24.51 -67,-32.55 -104.25,-34.16 -108.01,-4.67 -275.26,28.04 -228.08,162.55 22.34,63.7 31.49,148.99 26.12,216.25 -2.83,35.32 -10.17,70.22 -11.42,105.61 -2.39,67.43 31.69,96.53 62.4,149.9 26.16,45.48 56.07,81.34 109.25,94.1 41.86,10.04 81.18,-1.87 118.28,-24.33 14.24,-8.63 45.4,-23.06 53.05,-38.17 8.69,-17.19 -3.42,-47.95 -5.05,-66.15 -8.13,-90.39 -8.51,-181.24 -10.34,-271.9 -0.76,-37.98 -3.77,-76.83 -3.61,-115.1" /><path
         id="path114"
         style="fill:#ffffff;fill-opacity:1;fill-rule:nonzero;stroke:none"
         d="m 6151.98,2499.06 c 18.8,39.4 5.62,82.31 -47.66,77.12 -19.37,-1.88 -36.82,-14.46 -47.03,-31.02 -21.45,-34.76 -20.15,-82.72 -19.89,-121.69 0.37,-54.1 0.74,-108.19 1.11,-162.28 37.83,79.29 75.65,158.58 113.47,237.87" /><path
         id="path116"
         style="fill:#5588af;fill-opacity:1;fill-rule:nonzero;stroke:none"
         d="m 6166.57,2291.45 c 8.93,-62.42 20.42,-124.47 34.45,-185.93 3.73,-16.37 8.48,-34.04 21.89,-44.13 52.06,-39.24 40.38,73.95 39.89,93.85 -1.46,58.73 -6.47,117.37 -15.02,175.49 -3.07,20.95 -6.91,42.6 -18.98,60.01 -23.66,34.14 -60.19,30.99 -68.79,-13.13 -2.65,-13.56 -1.09,-27.54 0.6,-41.25 1.84,-14.99 3.82,-29.96 5.96,-44.91" /><path
         id="path118"
         style="fill:#f9ad6d;fill-opacity:1;fill-rule:nonzero;stroke:none"
         d="m 6162.44,2553.16 c 6.37,12.74 -11.49,71.29 -12.61,87.22 -2.15,30.79 -0.19,61.54 0.16,92.33 -13.52,-3.73 -117.72,-48.57 -118.47,-44.18 5.72,-33.58 15.36,-68.21 19.68,-101.6 2.96,-22.91 -6.44,-60.02 16.21,-75.97 32.1,-22.61 81.67,13.78 95.03,42.2" /><path
         id="path120"
         style="fill:#f9ad6d;fill-opacity:1;fill-rule:nonzero;stroke:none"
         d="m 6185.7,2048.22 c -7.53,-12.17 -12.55,-26.02 -19.51,-39.4 -14.71,-28.22 -35.01,-54.44 -55.07,-79.01 -43.9,-53.55 -90.54,-105.91 -117.31,-168.91 -2.38,-5.6 27.1,4.87 28.64,5.81 10.53,6.37 18.42,23.59 25.32,33.24 -6.03,-40.67 -22.05,-76.96 -36,-115.53 -3.72,-10.28 65.51,17.02 73.64,27.28 21.7,27.39 34.08,69.45 43.13,102.67 3.38,12.5 5.74,24.98 12.16,36.37 17.6,31.34 47.01,57.24 71.48,83.09 25.64,27.06 112.02,96.26 57.95,137.35 -17.27,13.13 -42.7,12 -61.23,0.75 -10.42,-6.33 -17.52,-14.55 -23.2,-23.71" /><path
         id="path122"
         style="fill:#f9ad6d;fill-opacity:1;fill-rule:nonzero;stroke:none"
         d="m 6210.95,2197.05 c 3.84,-42.83 2.52,-67.37 -6.32,-108.93 -3.96,-18.6 -1.97,-40.6 12.7,-52.7 12.69,-10.46 31.9,-10.23 46.51,-2.68 14.61,7.55 25.19,21.21 32.98,35.7 27.75,51.59 63.21,417 -72.48,371.55 -47.36,-15.87 -32.79,-64.71 -27.8,-101.84 6.28,-46.68 10.1,-93.62 14.35,-140.51 l 0.06,-0.59" /><path
         id="path124"
         style="fill:#5588af;fill-opacity:1;fill-rule:nonzero;stroke:none"
         d="m 6176.67,2326.99 c 4.91,-34.12 13.32,-67.68 18.51,-101.68 4.35,-28.56 -3.89,-57.91 15.33,-82.72 5.07,-6.55 11.3,-12.15 18.12,-16.83 30,-20.56 72.16,-21.61 103.14,-2.56 1.72,49.67 5.13,98.89 9.1,148.43 2.83,36.05 -5.12,67.59 -10.71,102.97 -5.36,33.76 -11.9,66.41 -27.91,97.04 -12.93,24.72 -30.28,49.63 -53.72,65.37 -10.15,6.78 -21.46,12.29 -33.02,16.27 -6.26,2.15 -14.06,4.64 -20.7,3.01 -17.11,-4.21 -21.36,-84.33 -23,-99.1 -4.74,-42.84 -1.43,-86.52 4.86,-130.2" /><path
         id="path126"
         style="fill:#a45923;fill-opacity:1;fill-rule:nonzero;stroke:none"
         d="m 6217.37,2759.61 c -0.04,-55.51 -16.59,-122.26 -63.99,-126.58 -48.03,-4.37 -102.17,18.13 -138.74,47.85 -33.79,27.45 -59.56,66.28 -71.01,108.37 -11.89,43.71 15.83,79.14 51.99,103.98 6.3,4.32 13.39,6.92 20.64,9.22 10.65,3.39 19.85,8.16 29.76,13.34 69.97,36.54 140.97,-33.74 163.41,-96.77 4.94,-13.86 7.96,-35.6 7.94,-59.41" /><path
         id="path128"
         style="fill:#f9ad6d;fill-opacity:1;fill-rule:nonzero;stroke:none"
         d="m 5978.35,2813.1 c -7.44,-30.35 -8.32,-63.6 -6.75,-94.67 1.5,-29.53 8.01,-58.51 21.79,-84.81 10.33,-19.72 25.25,-41.87 46.75,-50.57 18.4,-7.44 38.4,-1.48 55.31,7.1 19.29,9.78 39.22,24.35 48.74,44.4 8.03,16.9 3.54,32.87 4.93,50.54 -0.57,-7.23 7.37,-13.14 14.57,-12.2 7.2,0.93 12.9,6.97 15.56,13.72 2.65,6.75 2.83,14.19 2.97,21.44 0.12,6.35 0.21,12.89 -2.11,18.8 -2.33,5.91 -7.71,11.09 -14.06,11.17 -6.34,0.08 -12.38,-6.76 -9.98,-12.64 0.05,38.19 -28.2,88.23 -61.69,107.66 -18.88,10.94 -42.6,22.05 -65.03,18.62 -17,-2.6 -39.88,-12.01 -47.72,-28.73 -1.46,-3.12 -2.45,-6.48 -3.28,-9.83" /><path
         id="path130"
         style="fill:#a45923;fill-opacity:1;fill-rule:nonzero;stroke:none"
         d="m 6154.06,2797.27 c -18.79,36.63 -58.71,65.02 -99.66,68.13 -22.09,1.67 -87.13,-7.22 -83.61,-39.89 2.03,-18.8 41.34,-33.99 55.41,-41.23 28.33,-14.58 59.22,-24.2 90.84,-28.14 13.92,-1.74 30.67,-1.14 38.45,10.53 5.15,7.72 4.41,18.22 0.51,26.65 -0.62,1.33 -1.26,2.64 -1.94,3.95" /><path
         id="path132"
         style="fill:#ffffff;fill-opacity:1;fill-rule:nonzero;stroke:none"
         d="m 6167.41,2671.7 c -0.48,2.89 -4.43,2.26 -5.24,0 -4.54,-12.64 -4.98,-25.83 -10.79,-38.31 -5.52,-11.86 -13.25,-22.51 -22.22,-31.99 v 89.58 c 5.29,6.73 10.41,13.6 15.53,20.47 7.77,10.44 10.45,24.14 24.56,28.2 -5.08,-1.46 -8.9,3.53 -14.87,-0.39 -5.57,-3.65 -10.14,-14.6 -14.1,-20.04 -5.84,-8.03 -11.72,-16.06 -17.31,-24.26 -16.98,3.52 -64.76,12.75 -91.64,11.07 -33.1,-2.07 -60.8,-24.78 -60.8,-24.78 l 23.14,-70.2 c 0,0 0.56,-20.64 46.47,-28 45.03,-7.22 87.25,12.7 88.87,13.48 0.96,-0.65 2.26,-0.78 3.37,0.24 18.64,17.04 39.44,48.32 35.03,74.93" /><path
         id="path134"
         style="fill:#5478bc;fill-opacity:1;fill-rule:nonzero;stroke:none"
         d="m 5790.38,2491.62 h -642.14 c -16.08,0 -28.23,-14.6 -25.3,-30.41 l 73.08,-395.45 c 2.25,-12.2 12.89,-21.05 25.3,-21.05 h 642.14 c 16.08,0 28.22,14.59 25.3,30.4 l -73.08,395.45 c -2.25,12.2 -12.89,21.06 -25.3,21.06" /><path
         id="path136"
         style="fill:#405d94;fill-opacity:1;fill-rule:nonzero;stroke:none"
         d="m 5757.35,2491.62 h -642.14 c -16.09,0 -28.23,-14.6 -25.31,-30.41 l 73.08,-395.45 c 2.25,-12.2 12.89,-21.05 25.3,-21.05 h 642.15 c 16.07,0 28.22,14.59 25.29,30.4 l -73.06,395.45 c -2.26,12.2 -12.9,21.06 -25.31,21.06" /><path
         id="path138"
         style="fill:#5478bc;fill-opacity:1;fill-rule:nonzero;stroke:none"
         d="m 5479.33,1915.27 h 132.89 l -49.1,265.77 c -2.26,12.2 -12.91,21.05 -25.31,21.05 h -80.56 c -16.09,0 -28.23,-14.59 -25.31,-30.4 l 47.39,-256.42" /><path
         id="path140"
         style="fill:#405d94;fill-opacity:1;fill-rule:nonzero;stroke:none"
         d="m 5462.8,1915.27 h 132.9 l -49.11,265.77 c -2.25,12.2 -12.89,21.05 -25.3,21.05 h -80.57 c -16.08,0 -28.22,-14.59 -25.3,-30.4 l 47.38,-256.42" /><path
         id="path142"
         style="fill:#ffffff;fill-opacity:1;fill-rule:nonzero;stroke:none"
         d="M 7500,1965 H 4622.61 V 647.859 H 7500 V 1965" /><path
         id="path144"
         style="fill:#56c4ba;fill-opacity:1;fill-rule:nonzero;stroke:none"
         d="M 7500,1287.35 H 4730.52 v -10 H 7500 v 10" /><path
         id="path146"
         style="fill:#56c4ba;fill-opacity:1;fill-rule:nonzero;stroke:none"
         d="M 7500,1159.65 H 4730.52 v -10 H 7500 v 10" /><path
         id="path148"
         style="fill:#cca072;fill-opacity:1;fill-rule:nonzero;stroke:none"
         d="M 7500,1965 H 4562.68 V 1791.11 H 7500 V 1965" /><path
         id="path150"
         style="fill:#f9ad6d;fill-opacity:1;fill-rule:nonzero;stroke:none"
         d="m 4719.02,727.422 c 3.72,-4.934 7.5,-10.211 11.72,-15.66 9.69,-12.5 24.22,-23.364 39.74,-27.293 17.51,-4.43 19.92,-7.418 33.34,-20.598 -54.88,-14.199 -112.18,-19.019 -168.66,-14.191 -22.82,1.941 -45.23,7.539 -40,35.34 2.25,11.96 4.5,23.941 6.74,35.91 1.71,9.058 3.41,18.121 5.11,27.191 2.12,11.27 53.42,9.871 62.04,9.469 25.7,-1.18 37.52,-13.668 49.97,-30.168" /><path
         id="path152"
         style="fill:#384d59;fill-opacity:1;fill-rule:nonzero;stroke:none"
         d="m 4685.27,619.711 c 37.48,0 74.38,0.199 111.74,3.078 10.59,11.199 3.08,31.02 -10.09,39.043 -13.15,8.008 -29.41,8.18 -44.7,10.047 -26.56,3.273 -52.38,12.453 -75.02,26.691 -12.85,8.078 -25.1,17.93 -39.85,21.52 -42.7,10.371 -40.5,-36.789 -39.14,-65.301 0.4,-8.457 0.5,-19.75 6.83,-26.41 7.49,-7.879 21.62,-8.02 31.56,-8.457 19.51,-0.863 39.15,-0.262 58.67,-0.211" /><path
         id="path154"
         style="fill:#58879d;fill-opacity:1;fill-rule:nonzero;stroke:none"
         d="m 4594.87,755.391 c 1.76,-11.129 -2.32,-21.789 -2.56,-32.86 -0.07,-3.511 0.07,-7.89 3.07,-10.269 5.02,-4 14.75,-1.582 20.19,-1.032 18.21,1.821 36.51,-0.648 54.74,0.84 16.57,1.36 33.97,5.641 48.56,13.821 21.84,12.238 -10.06,184.109 -10.2,218.32 -0.25,66.759 -1.46,141.669 7.64,210.899 10.34,78.62 47.07,147.95 68.02,223.07 23.94,85.86 31.74,179.58 46.94,267.45 5.04,29.13 10.06,59.15 3.66,88 -15.55,70.15 -129.17,84.57 -179.61,40.95 -26.15,-22.63 -30.11,-61.04 -32.23,-95.57 -7.94,-128.88 -7.35,-259.31 -24.06,-387.02 -23.24,-177.57 -32.13,-359.021 -4.16,-536.599" /><path
         id="path156"
         style="fill:#f9ad6d;fill-opacity:1;fill-rule:nonzero;stroke:none"
         d="m 4883.45,737.559 c 16.32,-18.02 30.19,-38.758 50.68,-52.321 9.97,-6.578 12.21,-12.996 20.72,-21.367 -54.88,-14.199 -112.17,-19.019 -168.66,-14.191 -16.29,1.379 -34.53,4.761 -43.64,18.34 -8.86,13.191 -5.55,30.75 -1.9,46.23 3.28,13.891 7.72,29.391 20.26,36.25 5.88,3.211 12.74,3.992 19.42,4.449 34.53,2.36 79.88,8.25 103.12,-17.39" /><path
         id="path158"
         style="fill:#709bad;fill-opacity:1;fill-rule:nonzero;stroke:none"
         d="m 4930.91,1667.25 c -2.08,12.89 -4.33,25.75 -6.75,38.59 -12.83,68.06 -40.2,145.67 -106.37,166.16 -36.96,11.45 -77.73,1.08 -111.4,-17.99 -37.1,-20.99 -70.48,-58.56 -66.3,-100.98 3.94,-40.15 36.59,-63.02 58.04,-93.54 31.4,-44.68 40.83,-98.39 57.87,-149.17 15.63,-46.59 45.01,-90.58 53.17,-139.48 8.19,-49.12 -8.27,-91.61 -18.24,-139.86 -11.11,-53.79 -85.8,-495.89 -35.48,-506.601 40.97,-8.699 79.87,25.281 122.16,21.859 -6.04,79.551 -12.62,173.871 3.4,253.071 18.48,91.391 51.14,180.221 71.84,271.321 15.03,61.94 8.9,126.81 2.68,190.25 -6.77,68.95 -13.55,138 -24.62,206.37" /><path
         id="path160"
         style="fill:#58879d;fill-opacity:1;fill-rule:nonzero;stroke:none"
         d="m 4784.75,1739.11 c 52.31,-8.93 97.88,-39.77 141.61,-69.86 -16.82,72.35 -33.65,144.71 -50.46,217.05 -0.95,4.05 -179.72,25.43 -193.08,18.78 -44.13,-21.95 -49.19,-129.65 -58.17,-176.84 52.98,-5.46 106.89,19.94 160.1,10.87" /><path
         id="path162"
         style="fill:#f9ad6d;fill-opacity:1;fill-rule:nonzero;stroke:none"
         d="m 4914.14,2749.92 c 1.39,29.74 6.79,78.71 -18.82,100.92 -22.94,19.9 -64.71,12.84 -87.94,-1.64 -26.17,-16.32 -43.47,-44.2 -53,-73.54 -9.54,-29.34 -12.09,-60.42 -14.59,-91.16 -4.12,-50.7 -8.24,-101.39 -12.35,-152.09 31.57,-4.51 61.38,-20.56 82.53,-44.45 6.57,10.24 20.92,23.4 14.13,36.34 -3.76,7.16 -2.11,13.38 0.11,21.1 4.47,15.51 11.49,30.02 17.16,45.08 3.15,8.37 4.91,19.71 13.06,24.99 29.36,19.04 47.39,-12.18 55.09,34.37 5.48,33.02 3.07,66.78 4.62,100.08" /><path
         id="path164"
         style="fill:#ffffff;fill-opacity:1;fill-rule:nonzero;stroke:none"
         d="m 4825.45,2691.56 c 11.05,5.01 90.86,35.3 90.86,35.3 0,0 12.41,-43.45 12.41,-51.32 0,-24.15 -19.03,-57.42 -43.59,-62.98 -6.22,-1.41 -16.31,1.6 -22.84,1.93 -12.26,0.61 -24.57,0.86 -36.84,0.87 v 76.2" /><path
         id="path166"
         style="fill:#51bb97;fill-opacity:1;fill-rule:nonzero;stroke:none"
         d="m 4926.3,2418.14 c 1.3,-4.24 2.56,-8.52 3.81,-12.84 12.06,-41.75 18.96,-84.74 25.99,-127.57 2.9,-17.64 2.58,-42.61 10.35,-58.76 5.68,-11.8 19.09,-17.12 24.24,-29.34 4.39,-10.39 4.41,-21.91 -4.14,-30.22 l -62.6,-108.23 c 4.44,-11.76 8.42,-23.68 11.98,-35.73 6.52,-22.11 11.94,-45.68 8.08,-68.8 -1.52,-9.11 -5.7,-17.5 -6.94,-26.65 -1.55,-11.47 -0.04,-23.24 -0.31,-34.77 -0.22,-9.28 -2.39,-17.25 -5.2,-26.06 -1.85,-5.84 -2.75,-11.47 -2.55,-17.62 0.39,-11.82 2.94,-23.53 4.31,-35.26 1.67,-14.39 2.87,-28.85 4.91,-43.18 1.21,-8.53 3.91,-17.93 2.94,-26.65 -0.22,-2.11 -0.71,-4.42 -2.48,-5.79 -2.33,-1.83 -5.96,-1.34 -8.63,-0.84 -9.97,1.9 -19.03,7.52 -28.12,11.75 -7.79,3.64 -15.69,7.18 -22.11,13.02 -6.62,6 -11.04,13.96 -15.77,21.43 -7.94,12.52 -16.04,21.87 -31.21,24.59 -10.88,1.95 -22.06,1.48 -33.04,2.52 -7.79,0.76 -16.92,2.97 -24.79,1.25 -2.47,-0.53 -3.91,-1.57 -5.58,-3.44 -3.88,-4.38 -7.38,-6.34 -13.16,-7.86 -12.12,-3.19 -24.72,-4.4 -36.97,-6.92 -11.69,-2.4 -23.12,-5.84 -34.48,-9.44 -13.12,-4.17 -26.25,-9.01 -39.79,-11.69 -5.3,-1.05 -11.13,-1.95 -16.53,-0.85 -9.48,1.94 -11.08,10.9 -11.62,19.34 -0.77,11.95 -0.6,23.93 -1.4,35.88 -0.97,14.37 -2.23,28.75 -2.51,43.15 -0.49,25.76 5.69,50.5 8.55,75.95 3.08,27.27 3.73,54.79 5.66,82.14 0.9,12.69 2.15,25.37 4.28,37.89 2.21,12.9 5.46,25.58 7.91,38.43 9.16,48.03 3.74,93.27 -2.81,140.56 -7,50.48 13.8,112.8 21.72,162.95 7.88,49.87 19.46,105.69 61.87,133.09 47,30.38 99.71,3.15 142.36,-21.46 37.01,-21.36 52.03,-55.77 63.78,-93.97" /><path
         id="path168"
         style="fill:#3fa17e;fill-opacity:1;fill-rule:nonzero;stroke:none"
         d="m 4882.93,2007.28 c -16.42,0 -33.32,5.69 -46.74,15.36 -23.78,17.12 -38.47,44.06 -49.4,71.24 -34.96,86.87 -38.9,182.62 -42.39,276.2 35.22,-49.33 76.68,-93.5 100.8,-148.36 7.94,-18.1 79.79,-198.5 73.03,-203.47 -10.26,-7.58 -22.64,-10.97 -35.3,-10.97" /><path
         id="path170"
         style="fill:#45606e;fill-opacity:1;fill-rule:nonzero;stroke:none"
         d="m 4738.68,623.961 c 5.62,-2.473 12.64,-3.441 20.39,-3.652 58.05,-1.547 116.92,-1.329 174.99,-0.707 17.83,0.187 35.76,0.277 53.54,1.949 7.57,0.711 16.36,1.64 22.58,6.539 9.41,7.402 8.78,20.84 0.68,28.902 -11.45,11.379 -60.25,37.098 -76.3,27.688 -2.14,-1.25 -3.76,-3.2 -5.64,-4.809 -4.59,-3.93 -10.59,-5.742 -16.46,-7.191 -29.5,-7.289 -59.94,-7.5 -89.79,-2.36 -18.67,3.219 -30.12,2.11 -45.99,12.45 -5.63,3.679 -40.86,23.691 -37.74,32.589 -7.79,-22.238 -13.87,-43.859 -13.95,-67.679 -0.04,-12.91 5.25,-20 13.69,-23.719" /><path
         id="path172"
         style="fill:#929122;fill-opacity:1;fill-rule:nonzero;stroke:none"
         d="m 4655.59,2286.13 c -40.75,28.24 -64.77,81.21 -65.44,132.15 -1.31,98.08 80.45,169.24 66.21,267.32 -5.13,35.35 -11.89,67.72 -4.39,103.95 6.18,29.86 19.55,60.21 38.88,83.93 17.73,21.74 42.38,33.01 69.83,36.92 38.67,5.49 73.21,-4.55 110.18,-13.3 30.86,-7.31 62.27,-9.82 69.84,-48.46 4.43,-22.58 -6.18,-47.35 -25.56,-59.74 -3.4,10.61 -6.8,21.22 -10.21,31.84 -11.76,-14.19 -18.58,-22.92 -34.77,-30.32 -11.95,-5.45 -23.77,-4.92 -32.38,-16.58 -22.78,-30.85 -17.76,-63.98 -8.47,-97.94 9.21,-33.65 22.63,-67.26 20.41,-102.08 -2.41,-37.59 -22.91,-71.67 -46.63,-100.93 -23.72,-29.27 -51.27,-55.55 -71.94,-87.05 -20.25,-40.51 -31.18,-71.52 -39.06,-116.64 -13.3,3.49 -25.51,9.31 -36.5,16.93" /><path
         id="path174"
         style="fill:#f9ad6d;fill-opacity:1;fill-rule:nonzero;stroke:none"
         d="m 4887.98,2141.55 c 77.9,51.6 156.97,104.82 223.71,171.55 16.39,16.37 111.31,91.49 113.5,41.13 0.9,-20.72 -44.51,-64.09 -56.32,-79.14 -43.27,-55.1 -87.2,-112.77 -136.64,-162.59 -28.23,-28.43 -54.55,-62.79 -96.58,-65.57 -42.45,-2.81 -98.37,11.53 -69.76,67.27 9.72,18.92 4.34,15.59 22.09,27.35" /><path
         id="path176"
         style="fill:#51bb97;fill-opacity:1;fill-rule:nonzero;stroke:none"
         d="m 4901.08,2370.13 c -10.89,31.14 -20.19,82.18 -58.61,88.19 -17.56,2.74 -35.57,-2.76 -51.01,-11.54 -29.08,-16.55 -51,-45.19 -59.38,-77.56 -6.93,-26.79 -7.04,-68.23 12.41,-90.31 7.18,-8.16 18.15,-10.45 24.61,-20.3 7.09,-10.79 5.88,-23.95 10.45,-35.65 3.15,-8.04 9.19,-14.11 15.03,-20.28 3.75,-3.96 6.89,-8.08 9.68,-12.78 1.76,-2.97 3.57,-5.89 6.17,-8.21 6.62,-5.91 16.42,-7.3 22.13,-14.34 2.55,-3.15 4.02,-6.98 5.98,-10.48 2.9,-5.16 6.67,-9.76 9.64,-14.87 5.75,-9.89 11.83,-27.77 26.41,-23.88 25.77,6.89 39.08,32.03 60.17,45.86 6.99,4.59 17.32,9.1 21.62,16.91 3.15,5.71 1.61,12.86 -0.32,18.72 -3.08,9.36 -8.64,14.84 -15.49,21.58 -7.23,7.11 -12.99,16.65 -17.24,25.77 -5.42,11.65 -6.95,24.61 -9.67,37.07 -1.53,7.03 -2.91,14.16 -3.42,21.35 -0.53,7.57 0.05,15.15 -0.11,22.73 -0.32,14.48 -4.29,28.43 -9.05,42.02" /><path
         id="path178"
         style="fill:#f9ad6d;fill-opacity:1;fill-rule:nonzero;stroke:none"
         d="m 5217.7,2452.21 c -1.13,0.59 -2.38,0.95 -3.77,1.06 -13.3,1.03 -34.58,-58.97 -39.61,-70.56 -6.12,-14.1 -9.98,-23.18 -10.56,-38.55 -0.19,-4.94 8.99,-40.09 8.25,-40.85 16.33,16.66 40.28,24.02 58.46,39.29 25.98,21.8 50.58,45.52 75.8,68.21 6.86,6.17 13.88,12.57 17.85,20.89 3.98,8.32 4.18,19.15 -1.98,26.01 -9.07,10.1 -25.67,6.63 -37.76,0.47 -27.13,-13.81 -49.18,-37.35 -61.2,-65.33 1.52,11.26 8.14,52.11 -5.48,59.36" /><path
         id="path180"
         style="fill:#ffffff;fill-opacity:1;fill-rule:nonzero;stroke:none"
         d="M 7111.04,3979.57 H 5245.36 c 0,116.26 94.25,210.5 210.5,210.5 h 1444.68 c 116.26,0 210.5,-94.24 210.5,-210.5" /><path
         id="path182"
         style="fill:#ffffff;fill-opacity:1;fill-rule:nonzero;stroke:none"
         d="m 5663.05,4084.82 h -32.42 V 5000 h 32.42 v -915.18" /><path
         id="path184"
         style="fill:#ffffff;fill-opacity:1;fill-rule:nonzero;stroke:none"
         d="m 6692.69,4084.82 h -32.42 V 5000 h 32.42 v -915.18" /><path
         id="path186"
         style="fill:#7fd4cd;fill-opacity:1;fill-rule:nonzero;stroke:none"
         d="M 4132.5,1205.34 H 2983.05 V 3150.75 H 4132.5 V 1205.34" /><path
         id="path188"
         style="fill:#56c4ba;fill-opacity:1;fill-rule:nonzero;stroke:none"
         d="m 4048.15,1205.34 h -980.76 v 1846.13 h 980.76 V 1205.34" /><path
         id="path190"
         style="fill:#7fd4cd;fill-opacity:1;fill-rule:nonzero;stroke:none"
         d="M 4100.89,2013.91 H 3057.54 v 228.99 h 1043.35 v -228.99" /><path
         id="path192"
         style="fill:#462d22;fill-opacity:1;fill-rule:nonzero;stroke:none"
         d="m 2032.71,2680.91 c -22.64,-5.93 -40.93,-0.36 -61.78,8.05 -15.38,6.21 -38.59,10.85 -36.78,32.94 -7.55,0.29 -14.79,4.88 -18.27,11.6 -3.48,6.71 -3.05,15.27 1.07,21.61 -9.96,2.56 -17.7,12.09 -18.16,22.37 -0.46,10.27 6.4,20.45 16.09,23.89 -8.34,5.28 -13.05,15.77 -11.46,25.51 1.72,10.52 10.07,18 19.82,21.19 -7.07,11.28 -6.45,26.61 1.35,37.68 7.14,10.11 19.92,15.94 32.24,14.7 -0.43,9.56 6.6,18.94 15.9,21.21 9.31,2.26 19.86,-2.83 23.88,-11.52 13.95,17.62 45.09,16.88 58.18,-1.39 7.17,3.56 16.31,2.73 22.73,-2.04 6.43,-4.78 9.84,-13.29 8.51,-21.19 6.74,3.15 15.54,0.96 20.03,-4.96 4.5,-5.93 4.23,-14.99 -0.61,-20.63 3.09,3.58 11.7,-15.52 12.46,-17.71 1.43,-4.15 -0.16,-9.49 1.85,-13.28 3.29,-6.18 11.61,-7.84 14.6,-15.55 2.18,-5.65 0.4,-10.06 0.8,-15.59 0.18,-2.55 -2.75,-4.49 -2.66,-7.13 0.1,-3.22 4.8,-5.23 4.66,-9.17 -0.43,-12.08 -4.61,-13.87 -12.77,-20.78 -19.04,-16.15 -28.43,-40.15 -48.36,-56.55 -13.86,-11.4 -28.42,-19.35 -43.32,-23.26" /><path
         id="path194"
         style="fill:#272a31;fill-opacity:1;fill-rule:nonzero;stroke:none"
         d="m 1874.71,1045.64 c -35.14,22.07 -1.32,53.96 20.41,75.83 44.37,-25.53 88.74,-51.06 133.12,-76.6 -0.53,0.31 -48.52,-21.76 -54.13,-23.61 -39.97,-13.15 -56.95,2.51 -94.19,21.45 -1.88,0.96 -3.62,1.94 -5.21,2.93" /><path
         id="path196"
         style="fill:#43a283;fill-opacity:1;fill-rule:nonzero;stroke:none"
         d="m 2189.96,2399.21 c -9.73,-13.23 -31.76,-10.49 -43.34,1.15 -11.59,11.65 -15.48,28.68 -18.87,44.76 -6.7,31.75 -11.54,63.88 -18.21,95.64 -5.1,24.26 -21,50.65 -21.33,74.94 26.7,-8.99 51.85,-30.89 69.97,-52.09 17.81,-20.86 21.4,-40.92 27.95,-66.93 5.34,-21.23 18.24,-77.95 3.83,-97.47" /><path
         id="path198"
         style="fill:#43a283;fill-opacity:1;fill-rule:nonzero;stroke:none"
         d="m 2136.75,1963.26 c -6.13,-64.81 -15.36,-119.56 -11.79,-184.81 4.77,-87.53 -1.89,-175.68 -19.71,-261.5 -11.29,-54.36 -30.85,-106.06 -39.04,-160.87 -5.35,-35.73 -30.38,-98.07 -24.17,-133.01 l -62.29,350.43 33.88,442.8 123.12,-53.04" /><path
         id="path200"
         style="fill:#37404b;fill-opacity:1;fill-rule:nonzero;stroke:none"
         d="m 1908.33,1079.37 c -11.76,-12.62 -18.58,-28.75 -16.78,-47.45 4.02,-41.631 39.17,-32.1 66.79,-30.76 39.66,1.91 79.97,-10.82 119.64,-12.262 9.37,-0.339 75.21,0.102 76.83,4.59 5.12,14.122 -5.19,29.852 -18.4,36.992 -13.23,7.13 -28.71,8.24 -43.44,11.22 -37.08,7.5 -40.24,40.04 -69.79,57.29 -34.21,19.97 -87.7,9.55 -114.85,-19.62" /><path
         id="path202"
         style="fill:#51bb97;fill-opacity:1;fill-rule:nonzero;stroke:none"
         d="m 1829.55,1970.17 c -12.71,-8.38 16.93,-143.34 19.72,-161.75 17.29,-114.11 38.5,-228.48 41.16,-344.15 4.06,-173.69 -9.63,-363.2 -9.63,-363.2 0,0 86.16,-43.32 166.35,6.63 0,0 -22.67,334.55 -21.97,367.73 0.68,33.19 -4.1,303.44 -4.1,303.44 v 191.3 h -191.53" /><path
         id="path204"
         style="fill:#87d6c6;fill-opacity:1;fill-rule:nonzero;stroke:none"
         d="m 2132.33,1920.91 c 0.01,0.07 0.02,0.14 0.03,0.21 l -0.03,-0.21 v 0" /><path
         id="path206"
         style="fill:#348a6d;fill-opacity:1;fill-rule:nonzero;stroke:none"
         d="m 2021.08,1901.82 v 31.5 c 20.05,0.58 40.03,1.68 60.05,2.78 17.62,0.97 35.29,1.93 53.05,2.55 l -1.82,-17.53 c -0.01,-0.07 -0.02,-0.14 -0.03,-0.21 -0.31,-0.04 -69.12,-8.95 -102.38,-17.8 -2.36,-0.63 -5.35,-1.05 -8.87,-1.29" /><path
         id="path208"
         style="fill:#3fa17e;fill-opacity:1;fill-rule:nonzero;stroke:none"
         d="m 2013.26,1901.59 c -52.11,0 -175.49,25.57 -175.49,25.57 l -2.2,21.14 c 0.25,0 0.5,0 0.74,0 39.47,0 87.35,-12.87 122.25,-14.61 11.51,-0.57 22.97,-0.81 34.38,-0.81 9.4,0 18.78,0.16 28.14,0.44 v -31.5 c -2.38,-0.16 -5,-0.23 -7.82,-0.23" /><path
         id="path210"
         style="fill:#51bb97;fill-opacity:1;fill-rule:nonzero;stroke:none"
         d="m 1873.85,2588.52 c -5.91,-3.85 -11.73,-7.84 -17.44,-11.99 -30.11,-21.86 -11.02,-59.38 -13.09,-91.76 -4.01,-62.74 -11.54,-128.98 -4,-191.71 8.52,-70.86 18.2,-119.71 -1.93,-176.44 -20.13,-56.73 -35.74,-172.69 -27.93,-170.92 42.41,9.48 105.77,-9.85 149.1,-12.01 41.32,-2.06 81.86,0.18 122.57,2.41 32.66,1.79 65.42,3.58 98.78,3.16 -3.08,102.01 -17.21,204.67 -12.17,307.54 2.53,51.73 8.25,274.8 -10.36,298.89 -18.6,24.09 -78.19,88.23 -78.21,88.24 -6.19,6.66 -32.45,7.7 -40.7,9.11 -14.62,2.49 -32.9,8.5 -47.65,7.66 -14.6,-0.82 -28.92,-12.23 -41.68,-19.1 -25.45,-13.69 -51.07,-27.28 -75.29,-43.08" /><path
         id="path212"
         style="fill:#3fa17e;fill-opacity:1;fill-rule:nonzero;stroke:none"
         d="m 1873.56,2263.58 26.59,103.93 27.83,141.78 43.83,-189.81 -17.7,-15.5 -80.55,-40.4" /><path
         id="path214"
         style="fill:#87d6c6;fill-opacity:1;fill-rule:nonzero;stroke:none"
         d="m 1849.09,2199.81 -4.31,49.33 v 0 c 2.1,-17.42 3.76,-33.65 4.31,-49.33 v 0 m 317.97,29.29 c 0,0 0,0 -0.01,0 0.01,0.07 0.01,0.15 0.01,0.21 v -0.21" /><path
         id="path216"
         style="fill:#3fa17e;fill-opacity:1;fill-rule:nonzero;stroke:none"
         d="m 1849.09,2199.81 c -0.55,15.68 -2.21,31.91 -4.31,49.33 l 28.78,14.44 -9.94,-38.84 90.49,79.24 90.03,45.16 122.92,-42.98 v -76.85 c 0,-0.06 0,-0.14 -0.01,-0.21 -0.78,0.3 -81.31,30.54 -115.37,30.54 -3.85,0 -7.11,-0.39 -9.59,-1.25 -24.46,-8.5 -192.18,-58.33 -193,-58.58" /><path
         id="path218"
         style="fill:#328968;fill-opacity:1;fill-rule:nonzero;stroke:none"
         d="m 1863.62,2224.74 9.94,38.84 80.55,40.4 -90.49,-79.24" /><path
         id="path220"
         style="fill:#a45923;fill-opacity:1;fill-rule:nonzero;stroke:none"
         d="m 1819.14,2387.98 c -1.73,-2.67 -2.28,-7.43 -3.13,-16.08 -4.39,-44.91 -2.78,-84.57 7.37,-128.2 1.71,-7.34 3.81,-15.31 9.88,-19.79 8.51,-6.28 20.44,-2.85 30.36,0.83 26.34,9.74 53.17,18.44 79.56,28.77 34.11,13.33 63.99,29.84 99.06,40.57 -3.28,-1 -13.03,35.66 -18.54,38.4 -12.19,6.06 -39.62,-10.28 -51.89,-13 -6.88,-1.52 -80.18,-11.55 -80.18,-12.06 -9.69,25.79 4.25,59.61 12.86,84.18 -21.88,0 -43.86,0.66 -65.74,0 -12.07,-0.36 -17.09,0.27 -19.61,-3.62" /><path
         id="path222"
         style="fill:#93381d;fill-opacity:1;fill-rule:nonzero;stroke:none"
         d="m 1814.8,2357.3 78.22,-11.74 11.47,46.04 -85.35,-3.62 -4.34,-30.68" /><path
         id="path224"
         style="fill:#51bb97;fill-opacity:1;fill-rule:nonzero;stroke:none"
         d="m 1862.36,2583.62 c -22.09,-17.1 -40.53,-39.96 -52.69,-63.13 -21.17,-40.36 -12,-97.78 -9.12,-142.09 l 110.93,-8.68 c 2.64,-0.21 9.52,88.9 9.87,94.61 3.06,50.41 0.91,95.71 -12.71,143.61 -16.46,-4.77 -32.12,-13.36 -46.28,-24.32" /><path
         id="path226"
         style="fill:#405d94;fill-opacity:1;fill-rule:nonzero;stroke:none"
         d="m 2029.95,2274.9 194.55,-42.48 185.64,220.83 -201.68,47.82 -178.51,-226.17" /><path
         id="path228"
         style="fill:#a45923;fill-opacity:1;fill-rule:nonzero;stroke:none"
         d="m 2088.52,2349.94 c 14.56,-0.72 26.8,-2.95 38.38,-12.77 5.32,-4.52 20.36,-25.18 14.08,-32.15 -4.66,-5.18 -43.16,2.13 -50.76,2.61 8.97,-2.53 17.94,-5.07 26.91,-7.6 4.11,-1.16 9.28,-4.21 7.8,-8.21 -0.82,-2.25 -3.56,-3.26 -5.93,-3 -2.37,0.26 -4.52,1.45 -6.71,2.4 -13.97,6 -31.36,1.34 -46.19,2.25 -20.23,1.24 -41.34,1.7 -61.28,4.85 1.04,5.93 2.2,12.7 4.01,18.7 5.22,17.36 18.46,27.87 35.31,32.12 19.63,4.95 37.62,19.62 57.89,21.4 -4.51,-6.87 -9.01,-13.73 -13.51,-20.6" /><path
         id="path230"
         style="fill:#a45923;fill-opacity:1;fill-rule:nonzero;stroke:none"
         d="m 2260.53,2244.59 c -2.73,-0.69 -15.13,9.02 -17.83,10.83 -4.68,3.12 -20.77,12.96 -20.15,19.33 0.34,3.43 24.67,-4.86 26.3,-5.37 -4.06,1.28 -18.92,16.97 -17.57,21.53 2.36,7.95 23.15,-3.9 27.59,-5.61 -4.93,1.9 -12.26,6.32 -14.8,11.21 -8.75,16.88 20.16,7.19 26.77,5.78 -6.79,3.9 -20.46,12.81 -11.39,20.71 4.41,3.84 39.02,4.01 41.85,-0.11 l 1.9,-4.02 c -3.58,-26.39 -12.84,-66.32 -42.67,-74.28" /><path
         id="path232"
         style="fill:#a45923;fill-opacity:1;fill-rule:nonzero;stroke:none"
         d="m 2067.78,2681.25 c 0,0 1.94,-44.74 9.82,-71.74 l -31.18,-52.64 c 0,0 -83.73,59.34 -90.04,75.25 0,0 31.49,17.31 27.04,51.89 -4.45,34.58 15.59,-35.83 84.36,-2.76" /><path
         id="path234"
         style="fill:#a45923;fill-opacity:1;fill-rule:nonzero;stroke:none"
         d="m 2067.78,2664.58 -0.85,51.25 -84.53,-4.48 -2.08,-47.08 -1.84,-41.98 c 11.76,-4.93 24.15,-9.24 34.05,-17.26 10.15,-8.21 20.08,-16.23 29.03,-25.8 -0.36,0.38 14.32,21.07 15.72,23.27 3.94,6.25 6.72,13.3 9.47,20.12 2.36,5.82 1.71,9.4 1.47,15.54 -0.35,8.79 -0.29,17.62 -0.44,26.42" /><path
         id="path236"
         style="fill:#93381d;fill-opacity:1;fill-rule:nonzero;stroke:none"
         d="m 1980.32,2652.44 c 21.14,-14.59 48.54,-26.6 64.79,-18.69 8.88,4.29 16.36,11.09 22.67,19 l -0.85,51.24 -84.53,-4.47 -2.08,-47.08" /><path
         id="path238"
         style="fill:#a45923;fill-opacity:1;fill-rule:nonzero;stroke:none"
         d="m 2043.44,2880.37 c 58.61,-1.86 60.76,-68.82 59.76,-125.14 -0.32,-18.51 -1.39,-39.13 -9.96,-55.67 -9.61,-18.56 -22.39,-40.41 -41.97,-49.89 -26.16,-12.66 -55.69,10.11 -70.14,30.14 -13.92,19.3 -16.88,43.4 -21.76,66.05 -11.1,51.57 -9.89,137.49 84.07,134.51" /><path
         id="path240"
         style="fill:#a45923;fill-opacity:1;fill-rule:nonzero;stroke:none"
         d="m 1957.76,2780.09 c 0,0 -2.86,22.76 -20.6,14.64 -17.74,-8.12 5.53,-58.94 25.35,-52.46 19.83,6.47 -4.75,37.82 -4.75,37.82" /><path
         id="path242"
         style="fill:#462d22;fill-opacity:1;fill-rule:nonzero;stroke:none"
         d="m 2007.5,2909.58 c -32.72,-4.38 -37.3,-27.14 -49.27,-52.74 -9.12,-19.51 -12.8,-51.98 -10.65,-73.08 5.6,-54.98 28.94,34.55 34.67,42.83 4.49,-3.67 11.01,-5.4 16.44,-2.59 5.37,2.77 8.37,9.46 6.89,15.32 5.36,-5.98 14.29,-8.48 21.98,-6.16 7.69,2.31 13.75,9.32 14.94,17.26 1.37,-6.58 7.32,-11.94 14.02,-12.63 6.69,-0.68 13.59,3.37 16.27,9.54 -9.53,-21.96 43.34,-24.15 39.28,3.14 -6.45,43.43 -66.19,64.27 -104.57,59.11" /><path
         id="path244"
         style="fill:#51bb97;fill-opacity:1;fill-rule:nonzero;stroke:none"
         d="m 1983.19,2732.31 c 1.88,4.37 4.39,8.31 7.71,11.04 7.35,6.03 22.84,8.59 31.89,10.55 11.59,2.5 23.74,3.64 35.46,1.39 36.79,-7.07 45.11,-22.99 45.11,-22.99 0,0 -8.52,-51.03 -15.15,-58.4 -10.2,-12.75 -20.9,-25.99 -37.29,-30.77 -32.96,-9.61 -59.36,24.1 -81.15,43.14 4.27,9.85 7.63,18.1 8.94,28.64 0.65,5.29 2.02,11.7 4.48,17.4" /><path
         id="path246"
         style="fill:#43a283;fill-opacity:1;fill-rule:nonzero;stroke:none"
         d="m 2095.23,2740.65 c -2.73,-14.83 -8.7,-44.41 -13.62,-49.89 -10.21,-12.76 -20.91,-25.99 -37.3,-30.77 -28.15,-8.21 -51.51,15.17 -71.3,34.03 -1,-2.52 -2.08,-5.07 -3.24,-7.75 21.79,-19.04 48.19,-52.75 81.15,-43.14 16.39,4.78 27.09,18.02 37.29,30.77 6.63,7.37 15.15,58.4 15.15,58.4 0,0 -1.98,3.72 -8.13,8.35" /><path
         id="path248"
         style="fill:#9f9f9e;fill-opacity:1;fill-rule:nonzero;stroke:none"
         d="m 1986.41,2742.09 c -8.16,10.99 -17.5,21.64 -24.54,33.04 -5.45,8.8 -9.57,18.11 -20.32,23.45 l -2.24,-0.76 0.76,-2.25 c 9.55,-4.7 13.34,-13.06 18.95,-22.2 7.25,-11.72 16.66,-22.43 24.7,-33.28 l 2.34,-0.35 0.35,2.35" /><path
         id="path250"
         style="fill:#9f9f9e;fill-opacity:1;fill-rule:nonzero;stroke:none"
         d="m 1951.16,2740.94 c 6.65,-17.12 13.29,-34.23 19.93,-51.34 l 2.17,-0.95 0.95,2.17 c -6.64,17.11 -13.28,34.21 -19.92,51.33 l -2.17,0.95 -0.96,-2.16" /><path
         id="path252"
         style="fill:#c9531f;fill-opacity:1;fill-rule:nonzero;stroke:none"
         d="m 2940.21,2708.71 c 19.15,22.06 35.77,46.31 49.48,72.11 18.93,35.63 20.65,52.84 1.21,88.73 -26.7,49.31 -85.48,72.5 -139.44,60.12 -40.08,-9.2 -61.08,-39.52 -64.91,-78.95 -5.04,-52.09 28.44,-93.77 52.22,-138.25 9.15,-17.1 20.64,-36.03 39.66,-39.79 20.15,-3.99 38.82,11.01 52.82,26.04 3.04,3.28 6.04,6.61 8.96,9.99" /><path
         id="path254"
         style="fill:#37404b;fill-opacity:1;fill-rule:nonzero;stroke:none"
         d="m 2879.92,1128.87 c 0,0 -45.64,-62.68 -40.97,-77.99 4.66,-15.31 -1.15,-30.71 8.19,-30.4 49.99,1.68 99.85,4.53 149.66,9.1 3.28,16.49 6.48,34.12 0.12,49.69 -10.45,25.58 -89.37,38.44 -117,49.6" /><path
         id="path256"
         style="fill:#272a31;fill-opacity:1;fill-rule:nonzero;stroke:none"
         d="m 2867.29,1061.41 c -9.44,9.44 0,41.51 16.23,66.11 -1.27,0.45 -2.49,0.91 -3.6,1.35 0,0 -45.64,-62.68 -40.97,-77.99 4.66,-15.31 -1.15,-30.71 8.19,-30.4 49.99,1.68 99.85,4.53 149.66,9.1 1.55,7.81 3.05,15.87 3.56,23.85 -45.73,-11.31 -92.32,-12.39 -133.07,7.98" /><path
         id="path258"
         style="fill:#405d94;fill-opacity:1;fill-rule:nonzero;stroke:none"
         d="m 2885.21,2084 19.55,-595.37 c 0,0 -36,-382.66 -36.2,-384.87 -1.56,-16.56 129.96,-12.72 142.54,-11.97 23.48,117.34 24.09,241.35 33.58,360.73 l 26.57,262.74 -45.72,316.16 -140.32,52.58" /><path
         id="path260"
         style="fill:#2e4570;fill-opacity:1;fill-rule:nonzero;stroke:none"
         d="m 2910.17,1555.79 c 0,0 113.18,-45.67 142.78,-21.49 l -1.69,92.78 -141.09,-21.74 v -49.55" /><path
         id="path262"
         style="fill:#37404b;fill-opacity:1;fill-rule:nonzero;stroke:none"
         d="m 2768.53,1139.61 c 11.75,-12.63 18.57,-28.75 16.77,-47.44 -4.02,-41.63 -39.16,-32.1 -66.79,-30.77 -39.66,1.91 -79.96,-10.81 -119.64,-12.26 -9.37,-0.34 -75.21,0.1 -76.83,4.59 -5.11,14.12 5.19,29.85 18.41,36.98 13.22,7.13 28.71,8.25 43.43,11.23 37.08,7.5 40.25,40.03 69.79,57.3 34.21,19.97 87.7,9.53 114.86,-19.63" /><path
         id="path264"
         style="fill:#405d94;fill-opacity:1;fill-rule:nonzero;stroke:none"
         d="m 2709.34,2097.97 c 2.41,-11.08 -50.19,-542.18 -50.19,-542.18 l -35.65,-434.32 c 0,0 152.76,-8.92 152.19,0 -0.56,8.92 33.24,473.1 33.24,473.1 l 36.3,487.68 -135.89,15.72" /><path
         id="path266"
         style="fill:#2e4570;fill-opacity:1;fill-rule:nonzero;stroke:none"
         d="m 2659.15,1570.34 c 15.17,-5.95 116.12,-29.55 139.6,0 7.57,9.52 12.12,454.66 12.12,454.66 l 81.37,75.82 -93.49,-1.02 h -73.17 l -66.43,-381.58 v -147.88" /><path
         id="path268"
         style="fill:#f9ad6d;fill-opacity:1;fill-rule:nonzero;stroke:none"
         d="m 2955.19,2631.09 c -0.25,1.93 -0.52,3.85 -0.79,5.78 -4.5,32.75 -9.01,65.51 -13.52,98.27 1.08,-7.86 -51.24,-11.25 -56.91,-11.85 -30.15,-3.18 -41.22,-8.13 -41.01,-41.19 0.23,-35.44 -29.16,-64.84 -31.86,-100.81 -2.71,-36.06 19.34,-72.68 52.49,-87.15 21.44,13.64 43.11,27.47 60.73,45.79 17.61,18.32 31.04,41.87 32.31,67.25 0.97,19.5 -8.86,35.74 -10.63,55.11 -2.19,23.92 1.57,48.42 11.05,70.49" /><path
         id="path270"
         style="fill:#f35d4c;fill-opacity:1;fill-rule:nonzero;stroke:none"
         d="m 2838.95,2661.36 c 0,0 8.57,-11.48 47.7,-7.94 39.12,3.54 47.56,47.82 47.56,47.82 l 6.67,33.9 -82.16,-26.67 -19.77,-47.11" /><path
         id="path272"
         style="fill:#729fc5;fill-opacity:1;fill-rule:nonzero;stroke:none"
         d="m 2816.07,2616.89 c 3.39,7.52 7.02,14.97 10.91,22.32 10.3,-29.41 20.59,-58.82 30.88,-88.24 33.49,28.7 66.98,57.39 100.47,86.08 20.08,-91.27 17.52,-180.82 17.52,-274.45 0.5,-56.67 -1.04,-113.78 1.5,-170.39 1.17,-26.09 12.25,-54.02 -10.05,-72.71 -28.06,-23.51 -93.11,-21.81 -127.35,-21.29 -30.93,0.47 -120.74,2.05 -129.97,33.65 -3.33,11.38 7.36,38.03 9.6,49.57 11.18,57.72 22.35,115.44 33.53,173.15 17.28,89.24 25.95,180.27 62.96,262.31" /><path
         id="path274"
         style="fill:#dbe6f5;fill-opacity:1;fill-rule:nonzero;stroke:none"
         d="m 2727.5,2332.59 c 7.58,81.92 15.17,163.86 22.75,245.79 l -50.29,26 c 12.03,-6.22 -61.22,-234.66 -67.69,-253.8 -47.27,32.59 -94.55,65.19 -141.82,97.78 3.98,-38.35 -53.75,-60.05 -53.42,-98.6 0.14,-17.02 11.96,-31.44 23.55,-43.89 43.55,-46.8 155.82,-175.63 227.4,-138.54 56.94,29.51 34.7,113.11 39.52,165.26" /><path
         id="path276"
         style="fill:#e5f1fb;fill-opacity:1;fill-rule:nonzero;stroke:none"
         d="m 2827.65,2650.21 -127.69,-45.83 c 0,0 -45.17,-566.32 -36.73,-594.53 8.45,-28.2 -39.73,-393.82 -39.73,-393.82 0,0 140.3,-42.07 167.05,-8.39 -1.44,64.33 -2.88,128.68 -4.32,193.01 -5.32,237.41 -31.55,483.96 15.14,717.88 8.76,43.9 17.52,87.79 26.28,131.68" /><path
         id="path278"
         style="fill:#e5f1fb;fill-opacity:1;fill-rule:nonzero;stroke:none"
         d="m 3075.27,1586.76 c -20.64,-6.98 -42.24,-10.53 -64.01,-11.71 -18.93,-1.01 -37.93,-0.18 -56.62,1.65 -10.53,1.01 -103.42,13.19 -103.42,20.17 l -1.01,797.25 c 0,0 71.42,163.23 87.63,195.36 16.15,32.18 9.7,87.68 9.7,87.68 l 77.98,-80.76 26.92,-142.83 9.7,-148.91 c 0,0 19.35,-215.54 23.85,-266 l 0.11,-1.72 c 9.23,-103.59 18.17,-207.25 27.22,-310.85 2.36,-27.45 5.32,-54.9 7.16,-82.35 2.48,-37.33 -7.81,-44.32 -45.21,-56.98" /><path
         id="path280"
         style="fill:#d0dff4;fill-opacity:1;fill-rule:nonzero;stroke:none"
         d="m 3075.27,1586.76 c -20.64,-6.98 -42.24,-10.53 -64.01,-11.71 l -2.96,2.13 89.04,110.34 -26.09,394.75 14.74,-43.61 0.11,-1.72 c 9.23,-103.59 18.17,-207.25 27.22,-310.85 2.36,-27.45 5.32,-54.9 7.16,-82.35 2.48,-37.33 -7.81,-44.32 -45.21,-56.98" /><path
         id="path282"
         style="fill:#d0dff4;fill-opacity:1;fill-rule:nonzero;stroke:none"
         d="m 2985.54,2445.51 c 5.31,-7.45 73.31,-90.48 73.31,-90.48 l 12.01,-147.76 -45.33,149.26 -39.99,88.98" /><path
         id="path284"
         style="fill:#f9ad6d;fill-opacity:1;fill-rule:nonzero;stroke:none"
         d="m 2954.46,2747.4 c -18.59,-14.81 -10.78,-44.9 -32.04,-61.92 -20.68,-16.56 -52.06,-21.12 -74.75,-6.1 -56.83,37.62 -48.84,119.08 -49.11,176.88 0.06,-11.63 27.14,23.89 27.49,24.22 13.57,12.97 34.26,15.38 51.99,12.64 44.92,-6.93 77.09,-61.24 65.66,-104.05 21.55,33.97 41.38,-8.44 24.5,-34.49 -1.58,-2.46 -3.67,-5.02 -6.62,-5.8 -2.33,-0.6 -5.07,0.25 -7.12,-1.38" /><path
         id="path286"
         style="fill:#f9ad6d;fill-opacity:1;fill-rule:nonzero;stroke:none"
         d="m 3025.53,2124.02 -41.18,-40.02 73.37,-19.69 22.95,33.7 -55.14,26.01" /><path
         id="path288"
         style="fill:#e5f1fb;fill-opacity:1;fill-rule:nonzero;stroke:none"
         d="m 3010.69,2121.47 60.56,-39.22 c 0,0 137.6,127.79 146.92,170.8 9.33,43.01 -112.82,324.57 -112.82,324.57 l -79.82,18.77 -18.03,-179.09 51.87,-70.26 33.2,-117.24 -81.88,-108.33" /><path
         id="path290"
         style="fill:#c9531f;fill-opacity:1;fill-rule:nonzero;stroke:none"
         d="m 2950.78,2794.3 c -8.16,-8.79 -15.3,-19.51 -13.93,-32.04 -2.13,16.87 -9.43,32.53 -11.43,49 -2.34,19.27 -2.19,39.62 -3.62,59.11 -34.57,-10.49 -143.35,-44.5 -157.1,10.97 -2.14,8.64 -0.01,18.55 6.54,24.58 12.43,11.45 32.19,4.68 48.98,6.54 23.69,2.61 31.15,23.16 56.74,22 35.24,-1.6 69.31,-20.22 89.7,-49.01 10.08,-14.23 17,-31.36 15.92,-48.77 -0.94,-15.31 -18.65,-28.02 -31.8,-42.38" /><path
         id="path292"
         style="fill:#d0dff4;fill-opacity:1;fill-rule:nonzero;stroke:none"
         d="m 2956.73,2023.7 59.75,-43.67 43.39,-2.47 -52.37,-24.45 -50.77,70.59" /><path
         id="path294"
         style="fill:#ffffff;fill-opacity:1;fill-rule:nonzero;stroke:none"
         d="m 2850.23,2394.12 134.58,145.22 -27.49,17.04 64.6,4.15 3.61,35.86 -76.4,68.76 -0.06,-49.81 -98.84,-221.22" /><path
         id="path296"
         style="fill:#ffffff;fill-opacity:1;fill-rule:nonzero;stroke:none"
         d="m 2784.02,2426.22 -25.11,126.87 12.55,12.98 -38.34,8.06 c 0,0 86.62,77.83 105.83,87.23 l -34.06,-135.63 -20.87,-99.51" /><path
         id="path298"
         style="fill:#2e4470;fill-opacity:1;fill-rule:nonzero;stroke:none"
         d="m 2761.63,2505.32 c -0.73,-16.95 -19.65,-38.19 -34.82,-19.03 -8.41,10.61 0.86,37.19 14.38,40.24 11.08,2.5 20.92,-9.86 20.44,-21.21" /><path
         id="path300"
         style="fill:#2e4470;fill-opacity:1;fill-rule:nonzero;stroke:none"
         d="m 2835.44,2662.35 c -30.7,-9.88 -57.7,-30.28 -75.55,-57.17 -17.97,-27.08 -30.87,-68.3 -20.3,-100.41 0.66,-2.02 3.55,-1.64 3.67,0.49 0.88,16.2 -0.35,31.77 2.95,47.88 3.37,16.47 9.76,32.29 18.85,46.43 17.15,26.68 42.67,45.29 72.23,56.06 4.15,1.51 2.47,8.11 -1.85,6.72" /><path
         id="path302"
         style="fill:#2e4470;fill-opacity:1;fill-rule:nonzero;stroke:none"
         d="m 2985.35,2556.23 c 9.6,20.72 8.81,46.72 2.77,68.3 -5.62,20.12 -18.79,47.6 -38.96,56.62 -1.33,0.6 -3.22,-0.73 -2.22,-2.22 5.45,-8.1 12.97,-14.5 18.48,-22.67 6.56,-9.73 11.5,-20.44 14.74,-31.72 6.72,-23.35 3.89,-43.76 -1.32,-66.93 l -0.01,-0.23 c -20.89,0.95 -34.73,-23.98 -41.49,-40.49 -9.95,-24.33 -13.04,-51.99 -6.8,-77.63 -1.51,-1.86 -2.41,-4.19 -2.53,-6.56 -0.59,-6.42 5.25,-13.57 12.83,-11.52 4.74,1.28 8.53,5.76 8.29,10.79 -0.23,4.71 -3.79,9.03 -8.25,10.43 -2.18,0.7 -4.19,0.6 -5.95,-0.01 -2.19,18.86 -1.91,37.57 3.21,56.24 4.9,17.9 22.94,63.71 48.74,48.57 19.71,-11.56 11.61,-49.32 7.66,-67.43 -3.96,-18.15 -11.07,-34.45 -18.99,-50.85 -1.11,0.99 -2.41,1.77 -3.84,2.18 -4.74,1.37 -9.43,-1.34 -11.22,-5.8 -1.66,-4.17 -0.32,-9.09 3.66,-11.42 3.28,-1.93 7.69,-1.55 10.45,1.08 l 2.02,1.41 c 16.49,23.6 25.27,54.02 28.35,82.38 2.05,18.96 3.36,50.72 -19.62,57.48" /><path
         id="path304"
         style="fill:#729fc5;fill-opacity:1;fill-rule:nonzero;stroke:none"
         d="m 2747.68,2504.25 c -0.42,-9.79 -11.35,-22.05 -20.11,-10.99 -4.85,6.12 0.5,21.47 8.31,23.23 6.39,1.45 12.07,-5.69 11.8,-12.24" /><path
         id="path306"
         style="fill:#ffffff;fill-opacity:1;fill-rule:nonzero;stroke:none"
         d="m 2959.52,2748.03 c -2.09,-0.12 -4.19,-0.25 -6.29,-0.38 -4.05,-17.73 -10.1,-35.01 -18.01,-51.4 -0.43,23.26 -1.09,46.68 -1.09,70.09 4.71,5.99 9.19,11.58 12.24,18.47 2.9,6.53 8.96,12.27 14.66,16.41 l -4.71,2.18 c -1.71,0.09 -3.92,-0.56 -5.3,-1.61 -3.43,-2.61 -4.96,-8.07 -7.48,-11.55 -4.94,-6.8 -9.92,-13.58 -14.66,-20.53 -14.36,2.98 -54.8,10.78 -77.55,9.37 -28.01,-1.75 -51.46,-20.97 -51.46,-20.97 l 19.59,-59.41 c 0,0 0.47,-17.47 39.32,-23.7 22.47,-3.6 46.02,0.21 67.21,8.1 2.2,0.82 4.95,1.52 6.93,2.81 4.47,2.89 7.71,9.5 10.41,14.08 6.45,10.94 11.2,22.89 14,35.28 0.96,4.21 1.69,8.47 2.19,12.76" /><path
         id="path308"
         style="fill:#ffffff;fill-opacity:1;fill-rule:nonzero;stroke:none"
         d="m 3795.14,3341.96 h -513.1 v 205.55 h 513.1 v -205.55" /><path
         id="path310"
         style="fill:#347777;fill-opacity:1;fill-rule:nonzero;stroke:none"
         d="M 622.117,563.379 H 595.313 V 1016.4 h 66.804 l -40,-453.021" /><path
         id="path312"
         style="fill:#56c4ba;fill-opacity:1;fill-rule:nonzero;stroke:none"
         d="M 912.758,1056.26 671.492,922.57 c -5.152,-1.879 -14.152,-2.3 -25.73,-1.64 -121.012,6.82 -214.957,99.31 -217.071,209.96 l -14.8,774.8 c -16.411,82.61 53.129,158.62 145.109,158.62 69.656,0 129.813,-44.48 144.266,-106.67 l 209.492,-901.38" /><path
         id="path314"
         style="fill:#8a471c;fill-opacity:1;fill-rule:nonzero;stroke:none"
         d="m 1468.77,1262.35 c 7.68,-67.86 -22.25,-164.43 -29.14,-209.6 -5.39,-35.28 -12.21,-70.309 -18.21,-105.488 -12.12,-71.012 42.4,-277.711 -51.61,-304.742 -136.02,-39.11 -69.85,149.878 -67.35,205.289 1.71,37.902 2.03,75.871 1.34,113.812 -0.65,36.5 -2.47,72.919 -5.42,109.309 -3.03,37.51 -6.82,74.78 -2.61,112.36 7.25,64.86 27.25,172.03 119.89,150.88 34.36,-7.84 49.04,-35.78 53.11,-71.82" /><path
         id="path316"
         style="fill:#4f7d92;fill-opacity:1;fill-rule:nonzero;stroke:none"
         d="m 1265.16,761.199 c 55.47,-3.301 110.96,-6.597 166.44,-9.898 6.25,133.488 12.49,266.969 18.73,400.449 1.56,33.38 3.07,67.34 -5.26,99.7 -8.32,32.36 -28.11,63.45 -58.58,77.17 -115.45,52.01 -92.69,-143.39 -96.7,-202.68 -8.21,-121.57 -16.42,-243.159 -24.63,-364.741" /><path
         id="path318"
         style="fill:#37404b;fill-opacity:1;fill-rule:nonzero;stroke:none"
         d="m 1404.31,689.98 c 1.07,5.239 -1.58,10.11 -2.07,15.239 -0.36,3.64 0.73,6.972 2.28,10.222 2.13,4.489 4.95,8.629 7.15,13.098 1.87,3.781 3.05,7.813 4.65,11.711 0.84,2.051 1.93,5.082 4.39,5.68 1.77,0.441 3.72,-0.68 5.17,-1.5 8.42,-4.782 15.52,-11.789 23.86,-16.821 20.36,-12.269 43.04,-21.148 65.52,-28.687 20.08,-6.742 40.57,-10.813 61.83,-10.102 12.59,0.43 25.1,1.95 37.65,2.961 7.06,0.551 14.77,1.309 21.72,-0.511 8.93,-2.34 11.72,-10.18 13.49,-18.481 1.2,-5.668 1.96,-11.418 3.25,-17.09 0.83,-3.609 1.92,-7.32 1.81,-11.078 -0.11,-4.391 -2.04,-8.16 -4.7,-11.582 -12.54,-16.117 -34.45,-25.98 -53.4,-31.848 -20.33,-6.293 -41.72,-8.742 -62.85,-10.609 -31.77,-2.832 -63.56,-5.66 -95.34,-8.48 -21.71,-1.922 -43.5,-4.27 -64.96,-8.122 -23.95,-4.289 -47.72,-11.128 -72.17,-11.75 -12.81,-0.339 -27.84,0.622 -37.6,10.04 -7.93,7.64 -10.66,18.91 -11.47,29.539 -0.88,11.761 0.23,23.589 1.09,35.32 0.89,12.191 1.74,24.41 3.46,36.512 1.01,7.101 1.97,15.359 5.72,21.66 0.92,1.551 2.29,3.57 4.17,4.07 1.63,0.438 2.84,-0.23 4.13,-1.242 5.41,-4.18 9.25,-9.559 15.16,-13.328 17.33,-11.02 38.96,-17.602 59.27,-19.922 17.51,-1.988 36.35,0.34 50.12,12.293 3.87,3.359 7.6,7.68 8.67,12.808" /><path
         id="path320"
         style="fill:#a45923;fill-opacity:1;fill-rule:nonzero;stroke:none"
         d="m 956.57,2415.63 c -2.925,8.7 -6.25,16.78 -10.011,23.79 -15.235,28.35 -70.868,31.94 -96.563,18.13 -24.492,-13.16 -38.801,-40.44 -43.199,-67.89 -4.402,-27.45 -0.32,-55.47 3.754,-82.97 -16.84,18.14 -46.02,23.38 -68.125,12.25 -4.383,-2.22 24.285,-79.28 28.683,-87.91 15.633,-30.67 -8.589,-64.6 9.477,-89.85 12.594,-17.6 34.359,-18.23 53.789,-21 22.883,-3.27 40.012,-15.98 61.078,-19.83 4.977,16.75 8.156,33.98 11.035,51.2 1.485,8.88 2.946,17.77 4.371,26.65 1.012,6.32 -3.535,13.85 5.61,14.3 12.902,0.62 45.726,-4.17 51.289,13.02 16.051,32.98 11.5,89.5 6.769,124.56 -3.336,24.72 -8.714,58.15 -17.957,85.55" /><path
         id="path322"
         style="fill:#a45923;fill-opacity:1;fill-rule:nonzero;stroke:none"
         d="m 1524.24,1274.91 c 21.12,-64.95 11.16,-165.55 13.46,-211.19 1.79,-35.64 2.12,-71.341 3.29,-107.001 2.36,-72 97.2,-263.578 10.51,-308.91 -125.42,-65.559 -98.47,132.851 -107.12,187.632 -5.92,37.489 -13.22,74.739 -21.49,111.778 -17.74,79.421 -22.57,160.921 -27.15,241.961 -3.52,62.3 -28.59,147.51 62.08,145.45 35.23,-0.8 55.21,-25.24 66.42,-59.72" /><path
         id="path324"
         style="fill:#37404b;fill-opacity:1;fill-rule:nonzero;stroke:none"
         d="m 1579.74,710.172 c 1,5.25 -1.7,10.078 -2.25,15.207 -0.39,3.633 0.66,6.98 2.16,10.242 2.09,4.531 4.85,8.688 7,13.18 1.83,3.808 2.96,7.847 4.52,11.781 0.81,2.059 1.88,5.09 4.33,5.719 1.76,0.461 3.72,-0.641 5.18,-1.442 8.48,-4.679 15.65,-11.617 24.05,-16.55 20.5,-12.028 43.28,-20.637 65.85,-27.93 20.16,-6.508 40.69,-10.348 61.94,-9.387 12.58,0.567 25.08,2.238 37.61,3.379 7.05,0.649 14.76,1.488 21.73,-0.262 8.95,-2.238 11.83,-10.039 13.7,-18.308 1.27,-5.66 2.09,-11.41 3.44,-17.051 0.87,-3.609 2.01,-7.301 1.95,-11.059 -0.07,-4.39 -1.95,-8.199 -4.57,-11.652 -12.35,-16.25 -34.15,-26.359 -53.04,-32.449 -20.25,-6.52 -41.62,-9.219 -62.72,-11.328 -31.74,-3.203 -63.49,-6.383 -95.23,-9.571 -21.69,-2.171 -43.46,-4.769 -64.87,-8.859 -23.89,-4.57 -47.59,-11.684 -72.03,-12.594 -12.8,-0.476 -27.85,0.301 -37.71,9.614 -8.02,7.558 -10.88,18.789 -11.81,29.41 -1.02,11.75 -0.04,23.59 0.68,35.328 0.76,12.191 1.47,24.43 3.05,36.551 0.92,7.109 1.79,15.379 5.47,21.73 0.9,1.551 2.25,3.59 4.12,4.121 1.62,0.449 2.84,-0.222 4.15,-1.203 5.45,-4.117 9.35,-9.457 15.31,-13.16 17.45,-10.828 39.15,-17.16 59.5,-19.238 17.52,-1.782 36.33,0.769 49.97,12.871 3.82,3.398 7.51,7.758 8.52,12.91" /><path
         id="path326"
         style="fill:#58879d;fill-opacity:1;fill-rule:nonzero;stroke:none"
         d="m 899.063,1496.5 c 69.167,49.43 157.397,21.97 233.437,8.17 89.67,-16.29 178.82,-42.98 264.14,-75.38 29.44,-11.18 89.23,-18.51 102.64,-51.03 4.31,-10.47 3.71,-22.24 2.74,-33.52 -4.48,-52.43 -15.15,-104.32 -31.75,-154.25 -2.76,-8.31 -6.09,-17.12 -13.27,-22.15 -10.71,-7.5 -25.29,-3.74 -37.83,-0.01 -95.48,28.41 -196.36,38.26 -295.57,29.39 -70.32,-6.28 -144.498,-22.02 -212.366,5.61 -68.312,27.81 -77.449,107.33 -72.109,175.84 3.531,45.21 23.031,90.96 59.938,117.33" /><path
         id="path328"
         style="fill:#709bad;fill-opacity:1;fill-rule:nonzero;stroke:none"
         d="m 882.25,1505.49 c 66.445,53.03 156.02,30.3 232.68,20.55 90.4,-11.5 180.85,-33.41 267.77,-61.24 49.42,-15.83 96.6,-18.6 127.79,-64.25 35.71,-52.28 38.27,-131.17 43.55,-191.88 12.57,-144.62 25.14,-289.248 37.71,-433.881 -52.68,-17.187 -114.53,-33.238 -160.03,-1.598 -46.6,32.418 -52.06,98.02 -53.05,154.778 -0.87,49.429 -1.73,98.881 -2.6,148.311 -0.45,26.44 12.43,109.99 -3.03,130.41 -32.71,43.22 -186.88,20.39 -235.24,14.42 -78.63,-9.69 -139.62,-9.04 -215.648,21.07 -66.914,26.49 -95.273,72.03 -93.519,142.96 1.125,45.33 18.168,92.06 53.617,120.35" /><path
         id="path330"
         style="fill:#405d94;fill-opacity:1;fill-rule:nonzero;stroke:none"
         d="m 773.219,2155.37 c -14.172,-21.22 -33.285,-35.87 -45.055,-58.82 -17.488,-34.12 -25.582,-77.46 -33.101,-114.76 -15.739,-78.1 -19.004,-158.62 -10.536,-237.81 7.586,-70.98 32.254,-136.12 36.434,-206.76 4.598,-77.76 48.176,-160.62 93.473,-222.17 6.195,-8.42 14.699,-17.55 25.043,-16.1 11.968,1.67 17.023,15.71 20.949,27.13 11.398,33.22 33.496,62.67 62.195,82.91 41.567,29.33 90.739,30.29 135.109,50.24 47.02,21.15 87.01,49.41 137.62,64.25 6.76,1.98 -58.47,86.87 -63.86,97.06 -27.73,52.37 -26.83,120.93 -44.1,177.17 -25.08,81.66 -19.99,150.75 -69.81,223.31 -8.75,12.72 -15.67,26.12 -22.9,39.73 -5.035,9.46 -10.7,18.62 -18.926,25.66 -5.535,4.72 -11.816,8.38 -17.77,12.55 -5.839,4.07 -11.261,8.72 -16.851,13.11 -36.067,28.38 -122.879,30.74 -167.75,43.55 l -0.164,-0.25" /><path
         id="path332"
         style="fill:#354e82;fill-opacity:1;fill-rule:nonzero;stroke:none"
         d="m 1051.05,1474.28 c 24.84,1.4 49.58,4.68 73.93,9.78 -17.04,-3.57 -68.52,37.99 -83.03,47.54 -30.76,20.24 -60.091,42.65 -87.68,67.03 -52.461,46.36 -67.153,103.6 -100.774,163.47 -8.629,15.36 -49.16,52.66 -49.555,67.13 3.954,-144.49 26.524,-352.14 209.629,-355.66 12.5,-0.23 25,0 37.48,0.71" /><path
         id="path334"
         style="fill:#354e82;fill-opacity:1;fill-rule:nonzero;stroke:none"
         d="m 964.102,1620.22 c -29.688,82.44 -59.372,164.87 -89.051,247.3 -10.434,28.95 -21.02,59.08 -18.063,89.73 14.399,149.05 116.891,-29.86 130.157,-80.6 11.3,-43.25 15.155,-88.48 11.015,-133.01 -2.301,-24.75 -40.051,-106.78 -34.058,-123.42" /><path
         id="path336"
         style="fill:#405d94;fill-opacity:1;fill-rule:nonzero;stroke:none"
         d="m 765.957,2154.83 c -2.914,18.1 -3.855,37.96 6.684,41.88 12.734,4.74 28.382,4.19 41.222,0.17 11.157,-3.47 21.711,-9.24 32.2,-14.3 10.05,-4.84 20.015,-9.88 29.656,-15.53 16.504,-9.66 31.386,-21.8 47.703,-31.74 21.273,-12.97 23.242,-13.07 22.414,-38.85 -58.16,10.41 -116.324,20.82 -174.488,31.23 -1.082,5.69 -3.606,16.09 -5.391,27.14" /><path
         id="path338"
         style="fill:#a45923;fill-opacity:1;fill-rule:nonzero;stroke:none"
         d="m 1390.44,1522.03 c -48.43,31.49 -104.05,42.42 -164.4,53.41 -72.05,13.1 -139.85,43.2 -207.24,70.76 -16.84,6.89 -33.913,14.31 -47.296,26.63 -28.645,26.41 -19.27,72.94 -24.691,108.24 -5.258,34.26 -8.075,69.74 -30.625,97.92 -16.868,21.08 -44.434,34.94 -70.997,30.13 -16.211,-2.93 -30.742,-12.43 -41.886,-24.57 -34.239,-37.27 -30.063,-91.68 -11.739,-135.17 41.762,-99.14 61.997,-179.24 172.219,-220.7 55.175,-20.75 114.445,-27.56 173.025,-34.19 93.75,-10.61 180.31,-7.49 268.94,-48.34 8,-3.68 16.21,-7.66 25.01,-7.94 8.81,-0.27 18.47,4.33 20.99,12.78 2.69,9.01 -3.39,18.12 -9.48,25.28 -16.16,18.95 -33.48,33.83 -51.83,45.76" /><path
         id="path340"
         style="fill:#405d94;fill-opacity:1;fill-rule:nonzero;stroke:none"
         d="m 932.371,1988.75 c -0.598,-5.45 -1.223,-10.9 -1.797,-16.35 -0.824,-7.79 -0.594,-15.97 -2.605,-23.59 -1.196,-4.53 -3.746,-8.55 -4.895,-13.1 -3.969,-15.74 -0.176,-34.05 3.696,-49.39 2.593,-10.29 6.113,-20.31 8.949,-30.54 0.828,-2.98 2.699,-7.8 1.437,-10.96 -0.593,-1.49 -1.566,-2.01 -3.09,-2.37 -6.554,-1.53 -14.836,1.09 -21.332,1.8 -19.937,2.14 -39.976,0.56 -59.804,-1.98 -20.434,-2.64 -41.168,-5.78 -61.043,-11.31 -7.371,-2.05 -14.91,-4.47 -21.477,-8.48 -2.769,-1.7 -6.285,-5.97 -9.691,-6.25 -6.125,-0.5 -6.289,15.93 -6.742,19.21 -2.903,20.96 -7,41.37 -13.446,61.56 -3.324,10.4 -7.527,20.53 -10.402,31.08 -2.594,9.51 -3.746,19.26 -4.426,29.08 -4.14,59.67 43.137,117.74 102.11,127.71 58.968,9.98 111.105,-36.67 104.558,-96.12" /><path
         id="path342"
         style="fill:#462d22;fill-opacity:1;fill-rule:nonzero;stroke:none"
         d="m 891.352,2482.02 c -14.008,5.52 -28.422,8.71 -43.532,7.66 -29.738,-2.07 -61.398,-12.83 -84.988,-31.24 -23.137,-18.06 -43.828,-45.02 -46.734,-74.96 -2.821,-29.09 -0.196,-63.47 8.668,-91.36 10.078,-31.7 33.988,-55.46 51.804,-82.69 7.125,2.93 9.215,11.83 10.356,19.44 0.988,6.65 1.929,13.71 -0.731,19.88 -2.312,5.38 -7.023,9.27 -10.691,13.84 -7.914,9.86 -17.16,42.12 2.207,46.36 17.578,3.83 25.195,-28.76 30.141,-40.54 3.187,-7.6 11.472,-14.44 19.128,-11.4 6.016,2.38 8.532,9.9 7.586,16.31 -0.945,6.41 -4.461,12.09 -7.355,17.88 -8.328,16.68 -22.813,46.2 -8.828,62.26 7.109,8.15 16.961,14.79 19.863,25.21 5.305,19.07 -7.699,39.87 4.387,58.28 16.781,25.58 40.859,13.63 64.07,9.51 11.551,-2.06 26.766,4.29 25.914,16 -1.289,17.67 -29.426,14.9 -41.265,19.56" /><path
         id="path344"
         style="fill:#51bb97;fill-opacity:1;fill-rule:nonzero;stroke:none"
         d="m 973.191,2338.86 c -18.699,-5.69 -37.586,-10.82 -56.371,-16.24 -12.14,-3.5 -24.586,-6.49 -36.554,-10.53 -8.395,-2.82 -13.286,-4.4 -22.516,-4.18 -10.449,0.24 -20.914,1.1 -31.383,0.87 -7.851,-0.19 -15.84,-0.23 -23.687,0.41 -3.227,0.26 -6.391,1.31 -9.637,0.93 -3.395,-0.4 -6.781,-0.8 -10.172,-1.21 1.16,-0.14 2.383,-0.25 3.457,-0.7 l 2.918,-2.18 c 3.344,0.28 6.609,-0.41 9.965,-0.78 21.684,-2.35 43.66,-3.44 65.43,-1.54 l 0.847,-71.71 c -13.308,4.03 -27.07,6.8 -40.523,10.24 -6.645,-1.02 -18.52,5.44 -25.156,7.06 -4.832,1.19 -9.344,3.13 -13.875,5.14 -1.711,0.77 -3.438,0.87 -4.993,1.97 -1.511,1.07 -3.878,2.87 -4.636,4.62 4.425,-10.28 14.383,-16.6 24.886,-19.36 9.243,-2.43 18.676,-4.04 27.926,-6.45 12.348,-3.21 24.649,-7.09 37.156,-9.64 l 47.094,-33.21 c 14.426,-10.15 50.766,-7.55 64.93,2.1 14.152,9.63 13.848,35.99 17.879,52.48 7.964,32.55 -0.633,66.94 -22.985,91.91" /><path
         id="path346"
         style="fill:#56c4ba;fill-opacity:1;fill-rule:nonzero;stroke:none"
         d="M 1346.04,1089.39 H 685.652 v 170.44 h 660.388 c 47.07,0 85.22,-38.15 85.22,-85.21 0,-47.07 -38.15,-85.23 -85.22,-85.23" /><path
         id="path348"
         style="fill:#347777;fill-opacity:1;fill-rule:nonzero;stroke:none"
         d="m 1354.47,563.379 h 26.81 V 1016.4 h -66.81 l 40,-453.021" /><path
         id="path350"
         style="fill:#56c4ba;fill-opacity:1;fill-rule:nonzero;stroke:none"
         d="M 1297.78,920.629 H 752.449 c -264.375,0 -174.629,56.012 -174.629,125.091 l -10,53.96 h 729.96 c 65.07,0 117.83,-40.08 117.83,-89.52 0,-49.441 -52.76,-89.531 -117.83,-89.531" /><path
         id="path352"
         style="fill:#7fd4cd;fill-opacity:1;fill-rule:nonzero;stroke:none"
         d="m 1741.97,2597.04 h -506.06 v 674.93 h 506.06 v -674.93" /><path
         id="path354"
         style="fill:#ffffff;fill-opacity:1;fill-rule:nonzero;stroke:none"
         d="m 1603.56,2861.04 c -15.91,-26.44 -48.99,-56.27 -81.28,-59.36 -30.68,-2.93 -56.12,5.11 -85.79,-12.11 -21.77,-12.64 -37.98,-38.08 -32.45,-62.63 1.74,-7.71 5.49,-15.02 5.92,-22.91 0.43,-7.9 -4.14,-17.05 -12.03,-17.73 -5.53,-0.48 -10.67,3.53 -13.26,8.46 -2.58,4.92 -3.13,10.62 -3.64,16.15 -2.5,27.16 -4.79,55.74 6.38,80.63 6.94,15.46 18.48,27.73 31.53,38.25 10.84,8.75 32.41,15.38 40.22,26.48 17.38,24.71 -1.35,68.93 -11.59,92.76 -9.39,21.85 -19.81,43.74 -22.73,67.35 -3.4,27.49 3.63,55.07 6.01,82.67 2.39,27.61 -1.1,58.25 -20.93,77.6 2.28,13.02 22.61,14.52 31.57,4.81 8.96,-9.72 9.52,-24.28 9.56,-37.5 0.28,-75.64 119.01,-85.5 155.27,-151.89 21.93,-40.13 20.84,-91.86 -2.76,-131.03" /><path
         id="path356"
         style="fill:#ffffff;fill-opacity:1;fill-rule:nonzero;stroke:none"
         d="m 1692.74,3198.17 h -150.36 c -5.19,0 -5.2,-8.06 0,-8.06 h 150.36 c 5.19,0 5.2,8.06 0,8.06" /><path
         id="path358"
         style="fill:#ffffff;fill-opacity:1;fill-rule:nonzero;stroke:none"
         d="m 1655.09,3167.28 h -106.53 c -5.19,0 -5.2,-8.07 0,-8.07 h 106.53 c 5.2,0 5.2,8.07 0,8.07" /><path
         id="path360"
         style="fill:#ffffff;fill-opacity:1;fill-rule:nonzero;stroke:none"
         d="m 1612.41,3132.26 h -55.61 c -5.19,0 -5.2,-8.07 0,-8.07 h 55.61 c 5.2,0 5.2,8.07 0,8.07" /><path
         id="path362"
         style="fill:#ffffff;fill-opacity:1;fill-rule:nonzero;stroke:none"
         d="m 1404.38,3008.68 h -123.59 c -5.19,0 -5.2,-8.07 0,-8.07 h 123.59 c 5.19,0 5.2,8.07 0,8.07" /><path
         id="path364"
         style="fill:#ffffff;fill-opacity:1;fill-rule:nonzero;stroke:none"
         d="m 1394.08,2971.6 h -115.35 c -5.19,0 -5.2,-8.07 0,-8.07 h 115.35 c 5.19,0 5.2,8.07 0,8.07" /><path
         id="path366"
         style="fill:#ffffff;fill-opacity:1;fill-rule:nonzero;stroke:none"
         d="m 1385.84,2930.41 h -102.99 c -5.19,0 -5.2,-8.07 0,-8.07 h 102.99 c 5.19,0 5.2,8.07 0,8.07" /><path
         id="path368"
         style="fill:#ffffff;fill-opacity:1;fill-rule:nonzero;stroke:none"
         d="m 1678.33,2745.02 h -144.18 c -5.2,0 -5.2,-8.06 0,-8.06 h 144.18 c 5.19,0 5.2,8.06 0,8.06" /><path
         id="path370"
         style="fill:#ffffff;fill-opacity:1;fill-rule:nonzero;stroke:none"
         d="m 1663.91,2707.95 h -133.89 c -5.19,0 -5.2,-8.07 0,-8.07 h 133.89 c 5.19,0 5.2,8.07 0,8.07" /><path
         id="path372"
         style="fill:#7fd4cd;fill-opacity:1;fill-rule:nonzero;stroke:none"
         d="M 1000.83,2738.21 H 359.125 v 403.8 h 641.705 v -403.8" /><path
         id="path374"
         style="fill:#ffffff;fill-opacity:1;fill-rule:nonzero;stroke:none"
         d="m 563.148,2865.29 h -54.21 v 166.46 h 54.21 v -166.46" /><path
         id="path376"
         style="fill:#ffffff;fill-opacity:1;fill-rule:nonzero;stroke:none"
         d="m 452.813,2921.41 v 54.21 h 166.46 v -54.21 h -166.46" /><path
         id="path378"
         style="fill:#ffffff;fill-opacity:1;fill-rule:nonzero;stroke:none"
         d="M 912.34,3019.26 H 728.512 c -6.438,0 -6.446,-10 0,-10 H 912.34 c 6.433,0 6.445,10 0,10" /><path
         id="path380"
         style="fill:#ffffff;fill-opacity:1;fill-rule:nonzero;stroke:none"
         d="M 902.129,2957.98 H 733.617 c -6.433,0 -6.445,-10 0,-10 h 168.512 c 6.434,0 6.445,10 0,10" /><path
         id="path382"
         style="fill:#ffffff;fill-opacity:1;fill-rule:nonzero;stroke:none"
         d="M 840.852,2896.7 H 733.617 c -6.433,0 -6.445,-10 0,-10 h 107.235 c 6.433,0 6.445,10 0,10" /><path
         id="path384"
         style="fill:#8ed9d7;fill-opacity:1;fill-rule:nonzero;stroke:none"
         d="m 1793.48,3979.57 c 0,-178.64 -144.82,-323.45 -323.46,-323.45 -178.64,0 -323.45,144.81 -323.45,323.45 0,178.64 144.81,323.46 323.45,323.46 178.64,0 323.46,-144.82 323.46,-323.46" /><path
         id="path386"
         style="fill:#ffffff;fill-opacity:1;fill-rule:nonzero;stroke:none"
         d="m 1740.21,3979.57 c 0,-149.22 -120.97,-270.19 -270.19,-270.19 -149.22,0 -270.19,120.97 -270.19,270.19 0,149.22 120.97,270.2 270.19,270.2 149.22,0 270.19,-120.98 270.19,-270.2" /><path
         id="path388"
         style="fill:#56c4ba;fill-opacity:1;fill-rule:nonzero;stroke:none"
         d="m 1628.65,3979.31 h -145.3 v 183.68 c 0,16.13 -25.06,16.15 -25.06,0 v -196.21 c 0,-3.68 1.34,-6.47 3.35,-8.47 l 0.41,-0.44 0.24,-0.22 c 2,-2.04 4.82,-3.4 8.53,-3.4 h 157.83 c 16.12,0 16.15,25.06 0,25.06" /></g></g></svg>