<?xml version="1.0" encoding="UTF-8" standalone="no"?>
<svg
   xmlns:dc="http://purl.org/dc/elements/1.1/"
   xmlns:cc="http://creativecommons.org/ns#"
   xmlns:rdf="http://www.w3.org/1999/02/22-rdf-syntax-ns#"
   xmlns:svg="http://www.w3.org/2000/svg"
   xmlns="http://www.w3.org/2000/svg"
   viewBox="0 0 1000 666.66669"
   height="666.66669"
   width="1000"
   xml:space="preserve"
   id="svg2"
   version="1.1"><metadata
     id="metadata8"><rdf:RDF><cc:Work
         rdf:about=""><dc:format>image/svg+xml</dc:format><dc:type
           rdf:resource="http://purl.org/dc/dcmitype/StillImage" /></cc:Work></rdf:RDF></metadata><defs
     id="defs6" /><g
     transform="matrix(1.3333333,0,0,-1.3333333,0,666.66667)"
     id="g10"><g
       transform="scale(0.1)"
       id="g12"><path
         id="path14"
         style="fill:#ffffff;fill-opacity:0;fill-rule:nonzero;stroke:none"
         d="M 0,5000 H 7500 V 0 H 0 v 5000" /><path
         id="path16"
         style="fill:#fef0e7;fill-opacity:1;fill-rule:nonzero;stroke:none"
         d="m 2340.1,542.199 c 906.7,-227.5 2388.9,-252.898 3389.3,226 C 6653.5,1210.5 6843.7,2836.7 6209.5,3759.1 5758.8,4414.6 4895.3,4676.1 4067.3,4583.2 3090.3,4473.6 2831.1,3798 2182.8,3312.6 1779.4,3010.6 955.5,3084.9 799.898,2203.7 622.699,1199.4 1714.1,699.301 2340.1,542.199" /><path
         id="path18"
         style="fill:#d48d9c;fill-opacity:1;fill-rule:nonzero;stroke:none"
         d="m 5512.5,566.5 c 116.3,2017.6 993.9,2266 1131.7,2096.2 C 6932.9,2307.1 5930.5,1193.8 5512.5,566.5" /><path
         id="path20"
         style="fill:none;stroke:#f3c7ba;stroke-width:10;stroke-linecap:round;stroke-linejoin:miter;stroke-miterlimit:10;stroke-dasharray:none;stroke-opacity:1"
         d="M 6548.6,2582.9 C 6057.3,2010.2 5706.8,1317.6 5536.3,582.602" /><path
         id="path22"
         style="fill:none;stroke:#f3c7ba;stroke-width:10;stroke-linecap:round;stroke-linejoin:miter;stroke-miterlimit:10;stroke-dasharray:none;stroke-opacity:1"
         d="m 6289.7,2565.6 c 28.5,-84.5 44,-173.3 46,-262.4 93.8,20.2 189.5,31.1 285.5,32.5" /><path
         id="path24"
         style="fill:none;stroke:#f3c7ba;stroke-width:10;stroke-linecap:round;stroke-linejoin:miter;stroke-miterlimit:10;stroke-dasharray:none;stroke-opacity:1"
         d="m 5951.9,2215.9 c 55.2,-95.9 95.9,-200 120.5,-307.8 111.5,23.9 225.7,35.5 339.7,34.5" /><path
         id="path26"
         style="fill:none;stroke:#f3c7ba;stroke-width:10;stroke-linecap:round;stroke-linejoin:miter;stroke-miterlimit:10;stroke-dasharray:none;stroke-opacity:1"
         d="m 5719.1,1708.8 c 46,-72.1 85.7,-148.2 118.5,-227.2 107.9,43.6 224.8,64.7 341.1,61.5" /><path
         id="path28"
         style="fill:none;stroke:#f3c7ba;stroke-width:10;stroke-linecap:round;stroke-linejoin:miter;stroke-miterlimit:10;stroke-dasharray:none;stroke-opacity:1"
         d="m 5938.8,1222 c -70.8,5.2 -142.4,-0.2 -211.6,-15.8 -18,57.2 -43.6,112 -75.9,162.4" /><path
         id="path30"
         style="fill:#d48d9c;fill-opacity:1;fill-rule:nonzero;stroke:none"
         d="m 5512.5,566.5 c 645,1027 1468.4,1365.4 1505.8,994.3 51.9,-513.9 -1060.5,-849.3 -1505.8,-994.3" /><path
         id="path32"
         style="fill:none;stroke:#f3c7ba;stroke-width:10;stroke-linecap:round;stroke-linejoin:miter;stroke-miterlimit:10;stroke-dasharray:none;stroke-opacity:1"
         d="M 6915.8,1524.5 C 6408,1282.1 5938.1,960.398 5528.4,574.699" /><path
         id="path34"
         style="fill:none;stroke:#f3c7ba;stroke-width:10;stroke-linecap:round;stroke-linejoin:miter;stroke-miterlimit:10;stroke-dasharray:none;stroke-opacity:1"
         d="m 6733.3,1631.7 c 2.1,-71.6 -4.7,-143.5 -20.4,-213.4 70.5,-6.8 138.7,-34.6 193.8,-79.1" /><path
         id="path36"
         style="fill:none;stroke:#f3c7ba;stroke-width:10;stroke-linecap:round;stroke-linejoin:miter;stroke-miterlimit:10;stroke-dasharray:none;stroke-opacity:1"
         d="m 6389.5,1472.9 c 13.3,-75.4 18.6,-152.2 15.6,-228.8 95.4,-8.7 188.4,-41.6 268,-94.7" /><path
         id="path38"
         style="fill:none;stroke:#f3c7ba;stroke-width:10;stroke-linecap:round;stroke-linejoin:miter;stroke-miterlimit:10;stroke-dasharray:none;stroke-opacity:1"
         d="m 6064.1,1236.2 c 26.3,-59.1 38.6,-124.3 35.8,-188.9 88.2,-6.9 174.7,-34.9 250.2,-80.902" /><path
         id="path40"
         style="fill:#f3c7ba;fill-opacity:1;fill-rule:nonzero;stroke:none"
         d="m 4381.1,2178.3 h 1430 v -150 h -1430 v 150" /><path
         id="path42"
         style="fill:#f3c7ba;fill-opacity:1;fill-rule:nonzero;stroke:none"
         d="M 5768.9,2028.3 V 566.5 h -126.7 v 80 H 4549.4 v -80 h -126.2 v 1461.8 h 1345.7" /><path
         id="path44"
         style="fill:#d39b94;fill-opacity:1;fill-rule:nonzero;stroke:none"
         d="m 4423.2,2028.3 h 1345.6 v -30 H 4423.2 v 30" /><path
         id="path46"
         style="fill:#d39b94;fill-opacity:1;fill-rule:nonzero;stroke:none"
         d="m 4557.8,1897.3 h 1072.5 v -325 H 4557.8 v 325" /><path
         id="path48"
         style="fill:#fadbd0;fill-opacity:1;fill-rule:nonzero;stroke:none"
         d="m 4546.8,1927.3 h 1094.5 v -325 H 4546.8 v 325" /><path
         id="path50"
         style="fill:#d39b94;fill-opacity:1;fill-rule:nonzero;stroke:none"
         d="m 4557.8,1487.3 h 1072.5 v -325 H 4557.8 v 325" /><path
         id="path52"
         style="fill:#fadbd0;fill-opacity:1;fill-rule:nonzero;stroke:none"
         d="m 4546.8,1517.3 h 1094.5 v -325 H 4546.8 v 325" /><path
         id="path54"
         style="fill:#d39b94;fill-opacity:1;fill-rule:nonzero;stroke:none"
         d="M 4557.8,1077.3 H 5630.3 V 752.301 H 4557.8 V 1077.3" /><path
         id="path56"
         style="fill:#fadbd0;fill-opacity:1;fill-rule:nonzero;stroke:none"
         d="M 4546.8,1107.3 H 5641.3 V 782.301 H 4546.8 V 1107.3" /><path
         id="path58"
         style="fill:#ffffff;fill-opacity:1;fill-rule:nonzero;stroke:none"
         d="m 4731.9,2251.2 v 227.5 h 62.5 v -227.5 c 0,-15.2 -12.3,-27.5 -27.5,-27.5 h -7.5 c -15.2,0 -27.5,12.3 -27.5,27.5" /><path
         id="path60"
         style="fill:#ffffff;fill-opacity:1;fill-rule:nonzero;stroke:none"
         d="m 4720.6,2485.9 v 0 c 0,3.9 3.2,7.2 7.2,7.2 h 70.7 c 3.9,0 7.2,-3.2 7.2,-7.2 v 0 c 0,-3.9 -3.2,-7.2 -7.2,-7.2 h -70.7 c -4,0.1 -7.2,3.3 -7.2,7.2" /><path
         id="path62"
         style="fill:#f3ceda;fill-opacity:1;fill-rule:nonzero;stroke:none"
         d="m 4741.9,2254.9 v 148.8 h 42.5 v -148.8 c 0,-11.7 -9.5,-21.2 -21.2,-21.2 v 0 c -11.8,0 -21.3,9.5 -21.3,21.2" /><path
         id="path64"
         style="fill:#ffffff;fill-opacity:1;fill-rule:nonzero;stroke:none"
         d="m 4856.9,2251.2 v 227.5 h 62.5 v -227.5 c 0,-15.2 -12.3,-27.5 -27.5,-27.5 h -7.5 c -15.2,0 -27.5,12.3 -27.5,27.5" /><path
         id="path66"
         style="fill:#ffffff;fill-opacity:1;fill-rule:nonzero;stroke:none"
         d="m 4845.6,2485.9 v 0 c 0,3.9 3.2,7.2 7.2,7.2 h 70.7 c 3.9,0 7.2,-3.2 7.2,-7.2 v 0 c 0,-3.9 -3.2,-7.2 -7.2,-7.2 h -70.7 c -4,0.1 -7.2,3.3 -7.2,7.2" /><path
         id="path68"
         style="fill:#f3ceda;fill-opacity:1;fill-rule:nonzero;stroke:none"
         d="m 4866.9,2254.9 v 148.8 h 42.5 v -148.8 c 0,-11.7 -9.5,-21.2 -21.2,-21.2 v 0 c -11.8,0 -21.3,9.5 -21.3,21.2" /><path
         id="path70"
         style="fill:#ffffff;fill-opacity:1;fill-rule:nonzero;stroke:none"
         d="m 4989.4,2251.2 v 227.5 h 62.5 v -227.5 c 0,-15.2 -12.3,-27.5 -27.5,-27.5 h -7.5 c -15.2,0 -27.5,12.3 -27.5,27.5" /><path
         id="path72"
         style="fill:#ffffff;fill-opacity:1;fill-rule:nonzero;stroke:none"
         d="m 4978.1,2485.9 v 0 c 0,3.9 3.2,7.2 7.2,7.2 h 70.7 c 3.9,0 7.2,-3.2 7.2,-7.2 v 0 c 0,-3.9 -3.2,-7.2 -7.2,-7.2 h -70.7 c -4,0.1 -7.2,3.3 -7.2,7.2" /><path
         id="path74"
         style="fill:#f3ceda;fill-opacity:1;fill-rule:nonzero;stroke:none"
         d="m 4999.4,2254.9 v 148.8 h 42.5 v -148.8 c 0,-11.7 -9.5,-21.2 -21.2,-21.2 v 0 c -11.8,0 -21.3,9.5 -21.3,21.2" /><path
         id="path76"
         style="fill:#ffffff;fill-opacity:1;fill-rule:nonzero;stroke:none"
         d="m 5124.4,2251.2 v 227.5 h 62.5 v -227.5 c 0,-15.2 -12.3,-27.5 -27.5,-27.5 h -7.5 c -15.2,0 -27.5,12.3 -27.5,27.5" /><path
         id="path78"
         style="fill:#ffffff;fill-opacity:1;fill-rule:nonzero;stroke:none"
         d="m 5113.1,2485.9 v 0 c 0,3.9 3.2,7.2 7.2,7.2 h 70.7 c 3.9,0 7.2,-3.2 7.2,-7.2 v 0 c 0,-3.9 -3.2,-7.2 -7.2,-7.2 h -70.7 c -4,0.1 -7.2,3.3 -7.2,7.2" /><path
         id="path80"
         style="fill:#f3ceda;fill-opacity:1;fill-rule:nonzero;stroke:none"
         d="m 5134.4,2254.9 v 148.8 h 42.5 v -148.8 c 0,-11.7 -9.5,-21.2 -21.2,-21.2 v 0 c -11.8,0 -21.3,9.5 -21.3,21.2" /><path
         id="path82"
         style="fill:#ffffff;fill-opacity:1;fill-rule:nonzero;stroke:none"
         d="m 5269.4,2251.2 v 227.5 h 62.5 v -227.5 c 0,-15.2 -12.3,-27.5 -27.5,-27.5 h -7.5 c -15.2,0 -27.5,12.3 -27.5,27.5" /><path
         id="path84"
         style="fill:#ffffff;fill-opacity:1;fill-rule:nonzero;stroke:none"
         d="m 5258.1,2485.9 v 0 c 0,3.9 3.2,7.2 7.2,7.2 h 70.7 c 3.9,0 7.2,-3.2 7.2,-7.2 v 0 c 0,-3.9 -3.2,-7.2 -7.2,-7.2 h -70.7 c -4,0.1 -7.2,3.3 -7.2,7.2" /><path
         id="path86"
         style="fill:#f3ceda;fill-opacity:1;fill-rule:nonzero;stroke:none"
         d="m 5279.4,2254.9 v 148.8 h 42.5 v -148.8 c 0,-11.7 -9.5,-21.2 -21.2,-21.2 v 0 c -11.8,0 -21.3,9.5 -21.3,21.2" /><path
         id="path88"
         style="fill:#aac3dc;fill-opacity:1;fill-rule:nonzero;stroke:none"
         d="m 4670.1,2465.6 h 770 v -20 h -770 v 20" /><path
         id="path90"
         style="fill:#d48d9c;fill-opacity:1;fill-rule:nonzero;stroke:none"
         d="m 4629.8,2228.3 h 860 v -50 h -860 v 50" /><path
         id="path92"
         style="fill:#d48d9c;fill-opacity:1;fill-rule:nonzero;stroke:none"
         d="m 4663.9,2493.1 h 21.9 v -289.7 h -21.9 v 289.7" /><path
         id="path94"
         style="fill:#d48d9c;fill-opacity:1;fill-rule:nonzero;stroke:none"
         d="m 5427,2493.1 h 21.9 V 2203.4 H 5427 v 289.7" /><path
         id="path96"
         style="fill:#bd7287;fill-opacity:1;fill-rule:nonzero;stroke:none"
         d="m 1523.3,1463.2 c 181.2,227.3 269.7,525.4 241.6,814 -28.1,288.6 -172.5,564.3 -402.4,755.9 3.3,-213.8 -5.5,-427.8 -26.5,-640.6 -19.9,-202.4 -50.5,-409.4 -2.1,-607 28.8,-117.5 85.4,-228.1 189.4,-322.3" /><path
         id="path98"
         style="fill:none;stroke:#f3c7ba;stroke-width:10;stroke-linecap:round;stroke-linejoin:miter;stroke-miterlimit:10;stroke-dasharray:none;stroke-opacity:1"
         d="m 1506.3,1203.7 c 0,715.3 189.8,946.2 -88.3,1701.1" /><path
         id="path100"
         style="fill:none;stroke:#f3c7ba;stroke-width:10;stroke-linecap:round;stroke-linejoin:miter;stroke-miterlimit:10;stroke-dasharray:none;stroke-opacity:1"
         d="m 1550.4,2780.7 c -19.4,-41.4 -38.8,-82.9 -58.2,-124.3 -34.5,17 -72.3,27.3 -110.6,30.2" /><path
         id="path102"
         style="fill:none;stroke:#f3c7ba;stroke-width:10;stroke-linecap:round;stroke-linejoin:miter;stroke-miterlimit:10;stroke-dasharray:none;stroke-opacity:1"
         d="m 1356.7,2350.4 c 72.9,-2.9 145,-22.6 209.3,-56.9 42.7,52.7 93.5,98.9 150,136.6" /><path
         id="path104"
         style="fill:none;stroke:#f3c7ba;stroke-width:10;stroke-linecap:round;stroke-linejoin:miter;stroke-miterlimit:10;stroke-dasharray:none;stroke-opacity:1"
         d="m 1348.4,2003.4 c 73.2,6 148.4,-13.2 209.6,-53.6 59.5,63 128,117.6 202.8,161.7" /><path
         id="path106"
         style="fill:none;stroke:#f3c7ba;stroke-width:10;stroke-linecap:round;stroke-linejoin:miter;stroke-miterlimit:10;stroke-dasharray:none;stroke-opacity:1"
         d="m 1381.5,1717.5 c 54.9,-5.9 107.4,-32.1 144.9,-72.4 39.7,54.1 88.2,101.9 143.1,140.8" /><path
         id="path108"
         style="fill:#d48d9c;fill-opacity:1;fill-rule:nonzero;stroke:none"
         d="m 1653.8,1485 c 0,0 -154,336.9 43.3,705.6 109,203.7 344.5,451.6 638.2,658.9 0,0 -139.8,-761 -313.5,-1079.2 -133.8,-245.2 -368,-285.3 -368,-285.3" /><path
         id="path110"
         style="fill:none;stroke:#f3c7ba;stroke-width:10;stroke-linecap:round;stroke-linejoin:miter;stroke-miterlimit:10;stroke-dasharray:none;stroke-opacity:1"
         d="M 2229,2702.2 C 1925.6,2214.8 1709.6,1683 1538.3,1135.9" /><path
         id="path112"
         style="fill:none;stroke:#f3c7ba;stroke-width:10;stroke-linecap:round;stroke-linejoin:miter;stroke-miterlimit:10;stroke-dasharray:none;stroke-opacity:1"
         d="m 2036,2581.5 c 18.2,-42.4 32.8,-86.4 43.5,-131.2 51.5,9.8 103.6,16.3 155.9,19.6" /><path
         id="path114"
         style="fill:none;stroke:#f3c7ba;stroke-width:10;stroke-linecap:round;stroke-linejoin:miter;stroke-miterlimit:10;stroke-dasharray:none;stroke-opacity:1"
         d="m 1795,2275.7 c 42.6,-60.4 77.1,-126.4 102.1,-195.8 80.3,38.7 166.7,64.9 255.1,77.4" /><path
         id="path116"
         style="fill:none;stroke:#f3c7ba;stroke-width:10;stroke-linecap:round;stroke-linejoin:miter;stroke-miterlimit:10;stroke-dasharray:none;stroke-opacity:1"
         d="m 1653.3,2017.1 c 52.1,-66.9 91.7,-143.4 115.9,-224.4 90.4,38.1 184.9,66.6 281.4,84.9" /><path
         id="path118"
         style="fill:none;stroke:#f3c7ba;stroke-width:10;stroke-linecap:round;stroke-linejoin:miter;stroke-miterlimit:10;stroke-dasharray:none;stroke-opacity:1"
         d="m 1614.9,1705.9 c 30,-33.5 58.2,-68.7 84.3,-105.3 66.5,27.3 136.4,46.8 207.5,57.8" /><path
         id="path120"
         style="fill:#d48d9c;fill-opacity:1;fill-rule:nonzero;stroke:none"
         d="m 1363.4,1416.8 c 0,0 133.5,189.3 34.8,517.6 -135.2,449.8 -698.302,768.8 -698.302,768.8 0,0 151,-615.4 268.801,-922 C 1088,1471 1363.4,1416.8 1363.4,1416.8" /><path
         id="path122"
         style="fill:none;stroke:#f3c7ba;stroke-width:10;stroke-linecap:round;stroke-linejoin:miter;stroke-miterlimit:10;stroke-dasharray:none;stroke-opacity:1"
         d="m 1398.2,1251.8 c 0,0 -76.8,619 -623.7,1365.2" /><path
         id="path124"
         style="fill:none;stroke:#f3c7ba;stroke-width:10;stroke-linecap:round;stroke-linejoin:miter;stroke-miterlimit:10;stroke-dasharray:none;stroke-opacity:1"
         d="m 972.699,2486.5 c -16,-37.2 -26.699,-76.6 -31.699,-116.7 -38.199,10.8 -78,16.3 -117.801,16.2" /><path
         id="path126"
         style="fill:none;stroke:#f3c7ba;stroke-width:10;stroke-linecap:round;stroke-linejoin:miter;stroke-miterlimit:10;stroke-dasharray:none;stroke-opacity:1"
         d="m 900.5,2069.7 c 74.602,11.5 151.9,6.1 224.1,-15.7 14,66.9 45.5,130.2 90.5,181.9" /><path
         id="path128"
         style="fill:none;stroke:#f3c7ba;stroke-width:10;stroke-linecap:round;stroke-linejoin:miter;stroke-miterlimit:10;stroke-dasharray:none;stroke-opacity:1"
         d="m 1377.8,1940.6 c -50.9,-55.9 -90.8,-121.7 -116.7,-192.5 -70.7,30.6 -152.2,35.8 -226.3,14.4" /><path
         id="path130"
         style="fill:none;stroke:#f3c7ba;stroke-width:10;stroke-linecap:round;stroke-linejoin:miter;stroke-miterlimit:10;stroke-dasharray:none;stroke-opacity:1"
         d="m 1194,1516.2 c 48.7,8.9 98.9,9.5 147.8,2 17,39.1 41.4,75 71.6,105.2" /><path
         id="path132"
         style="fill:#d48d9c;fill-opacity:1;fill-rule:nonzero;stroke:none"
         d="m 1876.8,1364.7 -21.1,-119 -23.1,-130.9 -12.2,-68.6 -23.1,-131.001 -61.6,-348.699 h -449.8 l -62.8,348.699 -23.6,131.001 -12.3,68.6 -23.7,130.9 -21.4,119 h 734.7" /><path
         id="path134"
         style="fill:#fadbd0;fill-opacity:1;fill-rule:nonzero;stroke:none"
         d="m 1855.7,1245.7 -23.1,-130.9 h -645.4 l -23.7,130.9 h 692.2" /><path
         id="path136"
         style="fill:#fadbd0;fill-opacity:1;fill-rule:nonzero;stroke:none"
         d="m 1820.4,1046.2 -23.1,-131.001 h -574.2 l -23.6,131.001 h 620.9" /><path
         id="path138"
         style="fill:#396599;fill-opacity:1;fill-rule:nonzero;stroke:none"
         d="m 1958.8,749 h 736.7 V 680.5 H 1958.8 V 749" /><path
         id="path140"
         style="fill:#5288b8;fill-opacity:1;fill-rule:nonzero;stroke:none"
         d="m 2084.9,1383.2 c 0,-1.7 -0.2,-3.5 -0.4,-5.2 l -11.4,-94.4 -101.9,-841.1 c -2.7,-22.602 -22.7,-38.598 -44.7,-35.699 -20.3,2.597 -35.2,20.301 -35.2,40.699 0,1.699 0.2,3.5 0.4,5.199 l 100.6,830.901 12.6,104.5 c 2.8,22.5 22.7,38.6 44.7,35.7 20.5,-2.5 35.3,-20.2 35.3,-40.6" /><path
         id="path142"
         style="fill:#396599;fill-opacity:1;fill-rule:nonzero;stroke:none"
         d="m 2084.9,1383.2 c 0,-1.7 -0.2,-3.5 -0.4,-5.2 l -11.4,-94.4 h -80.7 l 12.6,104.5 c 2.8,22.5 22.7,38.6 44.7,35.7 20.4,-2.5 35.2,-20.2 35.2,-40.6" /><path
         id="path144"
         style="fill:#5288b8;fill-opacity:1;fill-rule:nonzero;stroke:none"
         d="M 2377.3,1390.3 V 447.699 c 0,-22.801 -17.9,-41.097 -40,-41.097 -11,0 -21,4.597 -28.3,12.097 -7.2,7.403 -11.7,17.602 -11.7,29.102 V 1390.4 c 0,22.8 18,41.1 40,41.1 11.1,0 21.1,-4.6 28.3,-12.1 7.2,-7.5 11.7,-17.8 11.7,-29.1" /><path
         id="path146"
         style="fill:#396599;fill-opacity:1;fill-rule:nonzero;stroke:none"
         d="m 2365.5,1419.3 c 7.3,-7.4 11.7,-17.7 11.7,-29.1 v -106.6 h -80.1 v 106.6 c 0,22.8 18,41.1 40,41.1 11.2,0.1 21.2,-4.5 28.4,-12" /><path
         id="path148"
         style="fill:#5288b8;fill-opacity:1;fill-rule:nonzero;stroke:none"
         d="m 2779.9,447.699 c 0,-20.597 -14.8,-38.199 -35.1,-40.801 -22,-2.796 -42,13.204 -44.7,35.704 l -101.9,841.098 -11.4,94.4 c -0.2,1.7 -0.4,3.5 -0.4,5.2 0,20.4 14.9,38 35.2,40.7 22,2.8 41.9,-13.2 44.7,-35.7 l 12.6,-104.5 100.6,-830.902 c 0.3,-1.898 0.4,-3.5 0.4,-5.199" /><path
         id="path150"
         style="fill:#396599;fill-opacity:1;fill-rule:nonzero;stroke:none"
         d="m 2679,1283.7 h -80.7 l -11.4,94.4 c -0.2,1.7 -0.4,3.5 -0.4,5.2 0,20.4 14.9,38 35.2,40.7 22,2.8 41.9,-13.2 44.7,-35.7 l 12.6,-104.6" /><path
         id="path152"
         style="fill:#953a1d;fill-opacity:1;fill-rule:nonzero;stroke:none"
         d="m 2852.8,1496.6 v -26.7 c 0,-46.7 -37.8,-84.5 -84.5,-84.5 h -756.4 c -46.7,0 -84.5,37.8 -84.5,84.5 v 26.7 c 0,46.7 37.8,84.5 84.5,84.5 h 756.4 c 46.7,0.1 84.5,-37.8 84.5,-84.5" /><path
         id="path154"
         style="fill:#81281a;fill-opacity:1;fill-rule:nonzero;stroke:none"
         d="m 2852.8,1496.6 v -26.7 c 0,-46.7 -37.8,-84.5 -84.5,-84.5 h -686.6 c -46.7,0 -84.5,37.8 -84.5,84.5 v 26.7 c 0,46.7 37.8,84.5 84.5,84.5 h 686.6 c 46.7,0.1 84.5,-37.8 84.5,-84.5" /><path
         id="path156"
         style="fill:#6e2817;fill-opacity:1;fill-rule:nonzero;stroke:none"
         d="m 2062.9,3180.8 c -9.5,-19.4 -19.1,-38.9 -27.6,-57.6 -5.8,-33.4 -2.4,-67.6 0,-101.5 2.4,-33.9 3.8,-68.4 -5.7,-101.1 -9.5,-32.7 -31.6,-63.5 -64.2,-76 -21.2,-8.1 -46.5,-8.7 -62.9,-24.1 -18.6,-17.5 -17.3,-46.9 -10.5,-71.1 5.7,-20.3 14.7,-40.5 30.8,-54.6 16.1,-14.1 42,-23.3 59.6,-13.1 17.4,10.2 40.5,2.8 53.1,-12.6 12.6,-15.4 18.5,-35.3 30.9,-50.9 17.6,-22.2 47.1,-33.7 76,-34.4 28.9,-0.7 59.7,3.4 79,15.4 41.3,25.9 92.8,43.1 135.1,18.8 22.3,-12.8 39.9,-33.2 64,-42.4 20.5,-7.8 44.4,-6.3 63.7,3.9 19.3,10.2 26.7,32 38.8,48.7 22.2,30.6 76,5.9 113.2,16 39.8,10.9 66.6,54.6 57.3,93.7 -9.3,39.1 -52.6,53 -91.2,58.8 -26.5,4 -37.4,37.7 -43.5,62.9 -6.1,25.3 -5,51.6 -3.9,77.6 2.3,52.9 26.4,176.3 11.1,192.9 -8,8.7 -38,30.7 -48.9,35.6 -50.2,22.9 -100.4,45.9 -150.6,68.8 -45.7,20.9 -93.6,42.2 -144.1,40.8 -50.4,-1.1 -123.3,-20.8 -159.5,-94.5" /><path
         id="path158"
         style="fill:#f0f8fd;fill-opacity:1;fill-rule:nonzero;stroke:none"
         d="m 2236.9,2704.5 c 0,0 -222.8,-35.2 -246.4,-114.1 -23.6,-78.9 111.7,-631 111.7,-631 l 500.6,30.6 c 0,0 36.4,636.4 -43.2,676.3 -79.6,39.9 -322.7,38.2 -322.7,38.2" /><path
         id="path160"
         style="fill:#f9b28c;fill-opacity:1;fill-rule:nonzero;stroke:none"
         d="m 2431.2,2682.6 c 0,0 -32.5,-110.7 -91.5,-134.9 -58.9,-24.3 -187.9,123.4 -187.9,123.4 26,16.5 35.8,56.2 39,92.4 3.2,36.8 -0.4,69.8 -0.4,69.8 l 179,-34.4 c -4.6,-55.4 11.7,-84.5 28.8,-99.8 16.2,-14.6 33,-16.5 33,-16.5" /><path
         id="path162"
         style="fill:#f18873;fill-opacity:1;fill-rule:nonzero;stroke:none"
         d="m 2398.2,2699 c -85,-11.2 -162,31.4 -207.4,64.4 3.2,36.8 -0.4,69.8 -0.4,69.8 l 179,-34.4 c -4.7,-55.3 11.7,-84.5 28.8,-99.8" /><path
         id="path164"
         style="fill:#d62924;fill-opacity:1;fill-rule:nonzero;stroke:none"
         d="m 2916,606.898 c -19.3,-32.097 -354.3,174.403 -354.3,210 0,23.204 43.7,56.801 74.1,77.204 16.3,11 28.7,18.296 28.7,18.296 l 78.2,35.903 35.2,-18.903 c 51.3,-88.398 100.3,-180.496 124.8,-244.597 14.6,-37.801 20.5,-66 13.3,-77.903" /><path
         id="path166"
         style="fill:#f18873;fill-opacity:1;fill-rule:nonzero;stroke:none"
         d="m 2902.8,684.898 c -96,-4 -222.9,151.301 -266.9,209.301 16.3,11 28.7,18.301 28.7,18.301 l 78.2,35.898 35.2,-18.898 c 51.4,-88.398 100.3,-180.5 124.8,-244.602" /><path
         id="path168"
         style="fill:#13293d;fill-opacity:1;fill-rule:nonzero;stroke:none"
         d="m 2571.3,1942.8 c 0,0 609.8,-77.2 630.5,-233.3 20.7,-156 -382.5,-844.898 -382.5,-844.898 l -145,37.796 189.2,615.802 -485.5,206 96.7,218.6 h 96.6 v 0" /><path
         id="path170"
         style="fill:#ec3824;fill-opacity:1;fill-rule:nonzero;stroke:none"
         d="m 2767.8,589.102 c -19.3,-32.102 -354.3,174.398 -354.3,210 0,23.199 43.7,56.796 74.1,77.199 16.3,11 28.7,18.301 28.7,18.301 l 78.2,35.898 35.2,-18.898 C 2681,823.199 2730,731.102 2754.5,667 c 14.6,-37.801 20.5,-66 13.3,-77.898" /><path
         id="path172"
         style="fill:#f9b28c;fill-opacity:1;fill-rule:nonzero;stroke:none"
         d="m 2754.6,667.102 c -96,-4 -222.9,151.296 -266.9,209.3 16.3,10.996 28.7,18.297 28.7,18.297 l 78.2,35.903 35.2,-18.903 c 51.4,-88.398 100.3,-180.5 124.8,-244.597" /><path
         id="path174"
         style="fill:#18354c;fill-opacity:1;fill-rule:nonzero;stroke:none"
         d="m 2057,1995.1 c 0,0 -211.3,-417.8 160.5,-462.9 270.1,-32.8 449.1,-26.2 454.7,-41.2 9.2,-24.1 -175.7,-607.5 -175.7,-607.5 l 182.1,-57.602 c 0,0 376.9,809.502 356.4,880.002 -16.9,58 -537,146.5 -537,146.5 43.8,20.8 76,96.5 71.3,194.1 L 2057,1995.1" /><path
         id="path176"
         style="fill:none;stroke:#367792;stroke-width:10;stroke-linecap:round;stroke-linejoin:miter;stroke-miterlimit:10;stroke-dasharray:none;stroke-opacity:1"
         d="m 2115.6,2031.3 c 0,0 -121.2,-266.7 -24.2,-374.9 114.3,-127.5 614.2,-86.4 649,-131.5 27.9,-36.1 -193.1,-625.798 -193.1,-625.798" /><path
         id="path178"
         style="fill:none;stroke:#367792;stroke-width:10;stroke-linecap:round;stroke-linejoin:miter;stroke-miterlimit:10;stroke-dasharray:none;stroke-opacity:1"
         d="m 2511.2,908 176.2,-53.699" /><path
         id="path180"
         style="fill:#f18873;fill-opacity:1;fill-rule:nonzero;stroke:none"
         d="m 2516.78,3025.45 c 42.97,4.87 80.69,-16.63 84.24,-48.02 3.56,-31.39 -28.39,-60.78 -71.36,-65.65 -42.96,-4.87 -80.68,16.63 -84.24,48.02 -3.55,31.39 28.4,60.78 71.36,65.65" /><path
         id="path182"
         style="fill:#f9b28c;fill-opacity:1;fill-rule:nonzero;stroke:none"
         d="m 2091.4,3028 c 0,148.3 94.2,268.5 220.7,268.5 126.5,0 229.1,-120.2 229.1,-268.5 0,-148.3 -64.7,-275.9 -183.8,-280.5 -120,-4.6 -266,132.3 -266,280.5" /><path
         id="path184"
         style="fill:#f18873;fill-opacity:1;fill-rule:nonzero;stroke:none"
         d="m 2103.7,2993.6 c 63.6,29.5 116,82.3 139.5,146.8 32.9,-37.1 80.9,-58.1 129.6,-67.2 48.7,-9.1 98.7,-7.4 145.5,-6.1 15.2,-12.9 25.8,-31.1 29.4,-50.7 5.3,44 0.6,89.3 -13.7,131.3 -126,38.4 -251.2,79.2 -375.7,122.3 -18.6,-88.7 -37.2,-177.4 -54.6,-276.4" /><path
         id="path186"
         style="fill:#87391b;fill-opacity:1;fill-rule:nonzero;stroke:none"
         d="m 2222.4,3208.3 c 27.1,-51.1 79.5,-85.1 134.6,-102.7 55.1,-17.5 113.7,-20.4 172.3,-22.1 9.2,-32.2 11.1,-69.9 11.1,-102.9 20.2,46.8 30.6,86.7 32.5,125.5 0.5,11.2 0.5,22.6 0.2,34.6 -2.9,81.6 -36.7,128 -82,162.8 -45.4,34.8 -101.1,49.6 -158.3,49.6 -56.5,0 -92.4,-12.8 -113.9,-35.1 -7.6,-7.9 -13.4,-16.9 -17.6,-27 -9.2,-21.6 1.1,-45.1 21.1,-82.7" /><path
         id="path188"
         style="fill:#87391b;fill-opacity:1;fill-rule:nonzero;stroke:none"
         d="m 2034,2975.7 c -1.9,72.5 -6.5,196.6 22.7,255.9 19.1,38.8 55.2,71.1 98.1,76.9 42.9,5.7 90.3,-20.8 100.2,-62.9 -19,-97.4 -67.9,-186.8 -137.2,-256.9 -24,-11.6 -59.4,-19.3 -83.8,-13" /><path
         id="path190"
         style="fill:#a1591d;fill-opacity:1;fill-rule:nonzero;stroke:none"
         d="m 2218.8,3317.9 c 82.9,22.4 175.7,2.8 244.2,-49.2 53.1,-40.3 91.2,-98.6 109.9,-162.7 0.5,11.2 0.5,22.6 0.2,34.6 -2.9,81.6 -36.7,128 -82,162.8 -45.4,34.8 -101.1,49.6 -158.3,49.6 -56.6,0 -92.5,-12.8 -114,-35.1" /><path
         id="path192"
         style="fill:#f9b28c;fill-opacity:1;fill-rule:nonzero;stroke:none"
         d="m 2007.27,2973.42 c 7.83,30.61 48.15,46.73 90.04,36 41.9,-10.72 69.51,-44.23 61.67,-74.83 -7.83,-30.61 -48.15,-46.72 -90.04,-36 -41.89,10.72 -69.51,44.23 -61.67,74.83" /><path
         id="path194"
         style="fill:#2c2f48;fill-opacity:1;fill-rule:nonzero;stroke:none"
         d="m 2320.6,2973 c 6.57,0 11.9,-8.51 11.9,-19 0,-10.49 -5.33,-19 -11.9,-19 -6.57,0 -11.9,8.51 -11.9,19 0,10.49 5.33,19 11.9,19" /><path
         id="path196"
         style="fill:#2c2f48;fill-opacity:1;fill-rule:nonzero;stroke:none"
         d="m 2486.1,2972.9 c 6.57,0 11.9,-8.51 11.9,-19 0,-10.49 -5.33,-19 -11.9,-19 -6.57,0 -11.9,8.51 -11.9,19 0,10.49 5.33,19 11.9,19" /><path
         id="path198"
         style="fill:none;stroke:#87391b;stroke-width:20;stroke-linecap:round;stroke-linejoin:miter;stroke-miterlimit:10;stroke-dasharray:none;stroke-opacity:1"
         d="m 2451.3,3042.5 c 20.4,6.9 49.4,5.4 69.5,-8.4" /><path
         id="path200"
         style="fill:none;stroke:#87391b;stroke-width:20;stroke-linecap:round;stroke-linejoin:miter;stroke-miterlimit:10;stroke-dasharray:none;stroke-opacity:1"
         d="m 2330.8,3044.6 c -22.3,9.9 -63.2,7.8 -82.5,-14.2" /><path
         id="path202"
         style="fill:none;stroke:#d64945;stroke-width:20;stroke-linecap:round;stroke-linejoin:miter;stroke-miterlimit:10;stroke-dasharray:none;stroke-opacity:1"
         d="m 2405.3,2965.5 c 5.4,-20.2 1.4,-45.3 -5.1,-61.1" /><path
         id="path204"
         style="fill:none;stroke:#d64945;stroke-width:20;stroke-linecap:round;stroke-linejoin:miter;stroke-miterlimit:10;stroke-dasharray:none;stroke-opacity:1"
         d="m 2391,2845.6 c -26.4,-5.2 -74.2,9.9 -87.2,31.9" /><path
         id="path206"
         style="fill:#f9b28c;fill-opacity:1;fill-rule:nonzero;stroke:none"
         d="m 2486.1,2615.2 89.3,53.9 c 0,0 75.3,-6.4 126.3,-100.1 50.7,-93.2 146.2,-394.5 176.3,-407.8 30.1,-13.3 397,-18 397,-18 l 5,-107.5 c 0,0 -449.4,-71.3 -503,-41.8 -53.6,29.6 -227.1,377 -227.1,377 l -63.8,244.3" /><path
         id="path208"
         style="fill:#e02f23;fill-opacity:1;fill-rule:nonzero;stroke:none"
         d="m 2480.6,2627.3 17.2,60.2 c 0,0 98.6,-4.2 149,-43.7 50.4,-39.5 91.7,-146.9 91.7,-146.9 l -128.2,-207 -129.7,337.4" /><path
         id="path210"
         style="fill:#1d3245;fill-opacity:1;fill-rule:nonzero;stroke:none"
         d="m 2632.7,2212.2 c 0,0 137.7,118.9 158.9,148.6 10.5,14.7 85,-158.4 72.4,-179.6 -20.1,-33.8 -145.6,-115 -152.6,-110.3 -7,4.7 -78.7,141.3 -78.7,141.3" /><path
         id="path212"
         style="fill:#b82224;fill-opacity:1;fill-rule:nonzero;stroke:none"
         d="m 2596.6,2320.5 c 41.5,65.9 83,131.7 124.4,197.6 2.3,3.6 4.7,7.4 8.3,9.8 10.3,6.9 25.3,-1.6 29.5,-13.2 4.3,-11.7 1.2,-24.6 -2,-36.6 13.3,2.1 25.3,-10.9 26.9,-24.2 1.7,-13.4 -4.1,-26.5 -10.4,-38.4 -38.4,-72.7 -102.8,-131.2 -178.8,-162.5 -3.5,22.6 -10.4,47.7 2.1,67.5" /><path
         id="path214"
         style="fill:#f9b28c;fill-opacity:1;fill-rule:nonzero;stroke:none"
         d="m 3218.3,2126.4 c 51.4,36.1 150.8,107.7 158.3,111.1 8.8,4 69.2,4.3 102.1,-5.6 32.9,-9.9 63.5,-32.6 75.4,-65 3.3,-9.1 4.2,-21.2 -3.8,-26.5 -5.2,-3.5 -12.4,-2.3 -17.8,0.9 -5.4,3.2 -9.4,8.3 -13.7,12.9 -22,23.9 -41.9,33.3 -78,35.3 42.8,-6.5 70,-32.9 82.8,-74.5 2.5,-8.3 3.5,-18.8 -3.2,-24.2 -5.3,-4.2 -13.3,-3.1 -19,0.6 -5.7,3.7 -9.6,9.5 -13.9,14.8 -15.7,20 -36.7,35.7 -60.2,45.1 32.7,-13.9 57.2,-45.8 62.4,-81.2 0.8,-5.2 1.1,-10.7 -0.9,-15.5 -2,-4.8 -7.1,-8.7 -12.2,-7.8 -4,0.7 -6.9,3.9 -9.6,6.9 -17.8,20.1 -31.8,41.5 -55.5,55.9 21.6,-28.8 39.8,-75.6 35.3,-87.8 -1.4,-3.7 -10.6,-10.1 -20.9,0.1 -11.7,11.7 -19.9,31.7 -38.1,54 -31.1,-34.7 -81.4,-50.8 -126.7,-40.6 -14.7,30.8 -29.1,61.7 -42.8,91.1" /><path
         id="path216"
         style="fill:#f9b28c;fill-opacity:1;fill-rule:nonzero;stroke:none"
         d="m 3311.6,2172.2 c 36.5,13.1 73.7,24.3 111.5,33.3 5,1.2 10.2,2.4 15.3,1.8 5.1,-0.6 10.3,-3.3 12.5,-7.9 2.3,-4.8 0.8,-10.7 -2.3,-15 -3.1,-4.3 -7.6,-7.4 -12.2,-10.2 -15.9,-9.9 -32.8,-18.3 -50.6,-26.8 -3.5,-26.8 -23.2,-50.7 -48.8,-59.2" /><path
         id="path218"
         style="fill:none;stroke:#d64945;stroke-width:10;stroke-linecap:round;stroke-linejoin:miter;stroke-miterlimit:10;stroke-dasharray:none;stroke-opacity:1"
         d="m 3311.6,2172.2 c 36.5,13.1 73.7,24.3 111.5,33.3 5,1.2 10.2,2.4 15.3,1.8 5.1,-0.6 10.3,-3.3 12.5,-7.9 2.3,-4.8 0.8,-10.7 -2.3,-15 -3.1,-4.3 -7.6,-7.4 -12.2,-10.2 -15.9,-9.9 -32.8,-18.3 -50.6,-26.8 -3.5,-26.8 -23.2,-50.7 -48.8,-59.2" /><path
         id="path220"
         style="fill:#ec3824;fill-opacity:1;fill-rule:nonzero;stroke:none"
         d="m 2401.2,2697.2 c 21.4,-18.6 35.3,-123.4 46.3,-190 16.5,-99.8 100.5,-533.7 105.5,-564.4 8.9,-54.2 180.5,-50.5 187.4,-22.2 1.3,5.2 -50.1,29.1 -58.3,63.7 -7.3,31 -64.3,635.1 -91.8,666.9 -36.3,42 -196,52 -189.1,46" /><path
         id="path222"
         style="fill:#ec3824;fill-opacity:1;fill-rule:nonzero;stroke:none"
         d="m 2165.7,2697.2 c 17.9,-6.4 74.1,-125.8 100.8,-235.1 55.8,-228.3 22.6,-567.3 0,-612.1 -22.6,-44.8 -241.6,-64.5 -278.8,-52.6 -21.6,6.9 -45.1,690.3 -30.2,776.1 10,57.2 202.8,125.6 208.2,123.7" /><path
         id="path224"
         style="fill:#f9b28c;fill-opacity:1;fill-rule:nonzero;stroke:none"
         d="m 2493.8,1933.8 c 46.2,16.9 179.9,52.1 198.4,50.2 18.6,-1.9 37.9,-8.6 49.6,-24.2 7.5,-10 11.2,-22.7 14.7,-35 5.7,-20 11.4,-40 17.1,-60 2,-7 4,-14.3 3,-21.5 -1,-7.2 -6,-14.4 -12.8,-14.9 -9.6,-0.8 -15.6,10.7 -19.1,20.4 -9,24.9 -18,49.8 -26.9,74.2 5.9,-30.7 11.7,-61.5 17.6,-92.2 1.4,-7.3 2.8,-14.8 1.1,-22 -1.7,-7.2 -7.3,-13.9 -14.2,-13.8 -10.2,0.2 -15.1,13.3 -17.4,24.1 -5.1,24 -10.3,48.1 -18.2,71.9 10.6,-33.8 12.2,-70.8 4.4,-105.5 -1.2,-5.3 -2.8,-10.9 -6.4,-14.7 -3.6,-3.8 -10,-5.2 -13.8,-1.6 -2.9,2.7 -3.5,7.3 -3.9,11.4 -3.1,31 -6.2,62.1 -9.3,93.1 3,-32.7 5.9,-66.4 -3.3,-97.7 -1.6,-5.6 -3.8,-11.2 -7.9,-15 -4.1,-3.8 -10.7,-5 -14.9,-1.4 -4.1,3.5 -4.6,9.8 -4.8,15.4 -0.7,19.5 -1.4,39 -1.5,61.8 -17.2,-20.1 -41,-33.5 -66.1,-37.4 -25.1,-3.9 -51.4,1.9 -76.1,9.8 2.2,36.3 4.3,72.7 10.7,124.6" /><path
         id="path226"
         style="fill:#ec3824;fill-opacity:1;fill-rule:nonzero;stroke:none"
         d="m 2151.8,2493.1 c -14,64.7 -72,169.6 -119.3,147.9 -27.1,-12.5 -105.2,-38.6 -105.2,-209.7 0,-231.3 30.4,-535.2 105.2,-586.1 38,-25.9 453.6,-51.3 453.6,-51.3 l 30.4,148.9 c 0,0 -306.3,56.8 -320.4,98.8 -19.9,59.3 -7.1,279.4 -44.3,451.5" /><path
         id="path228"
         style="fill:none;stroke:#b82224;stroke-width:10;stroke-linecap:round;stroke-linejoin:miter;stroke-miterlimit:10;stroke-dasharray:none;stroke-opacity:1"
         d="m 2115.6,2528.6 c 51.4,-173.8 62.2,-469.5 69.8,-487.3 6.9,-16.2 46,-23 76.7,-33.5" /><path
         id="path230"
         style="fill:none;stroke:#b82224;stroke-width:10;stroke-linecap:round;stroke-linejoin:miter;stroke-miterlimit:10;stroke-dasharray:none;stroke-opacity:1"
         d="m 2174.3,1818.7 c -57,5.7 -127.8,16.8 -143.6,28.6 -18.6,13.9 -41.3,81.9 -57.3,128.3" /><path
         id="path232"
         style="fill:none;stroke:#b82224;stroke-width:10;stroke-linecap:round;stroke-linejoin:miter;stroke-miterlimit:10;stroke-dasharray:none;stroke-opacity:1"
         d="m 2166,2241.1 c 20.5,25.7 28.9,68.3 30.6,120.2" /><path
         id="path234"
         style="fill:#396599;fill-opacity:1;fill-rule:nonzero;stroke:none"
         d="m 3683.6,766.801 h 736.7 v -66.699 h -736.7 v 66.699" /><path
         id="path236"
         style="fill:#5288b8;fill-opacity:1;fill-rule:nonzero;stroke:none"
         d="m 3809.8,1384.5 c 0,-1.7 -0.2,-3.4 -0.4,-5.1 L 3798,1287.5 3696.1,468.398 c -2.7,-21.996 -22.7,-37.597 -44.7,-34.796 -20.3,2.597 -35.2,19.796 -35.2,39.597 0,1.699 0.2,3.403 0.4,5.102 l 100.6,809.299 12.6,101.8 c 2.8,21.9 22.7,37.6 44.7,34.8 20.4,-2.7 35.3,-19.9 35.3,-39.7" /><path
         id="path238"
         style="fill:#396599;fill-opacity:1;fill-rule:nonzero;stroke:none"
         d="m 3809.8,1384.5 c 0,-1.7 -0.2,-3.4 -0.4,-5.1 l -11.4,-91.9 h -80.7 l 12.6,101.8 c 2.8,21.9 22.7,37.6 44.7,34.8 20.3,-2.6 35.2,-19.8 35.2,-39.6" /><path
         id="path240"
         style="fill:#5288b8;fill-opacity:1;fill-rule:nonzero;stroke:none"
         d="M 4102.1,1391.4 V 473.398 c 0,-22.199 -17.9,-40 -40,-40 -11,0 -21,4.403 -28.3,11.704 -7.2,7.199 -11.7,17.199 -11.7,28.296 V 1391.4 c 0,22.2 18,40 40,40 11.1,0 21.1,-4.4 28.3,-11.7 7.3,-7.3 11.7,-17.3 11.7,-28.3" /><path
         id="path242"
         style="fill:#396599;fill-opacity:1;fill-rule:nonzero;stroke:none"
         d="m 4090.4,1419.7 c 7.3,-7.2 11.7,-17.3 11.7,-28.3 V 1287.5 H 4022 v 103.9 c 0,22.2 18,40 40,40 11.2,0 21.2,-4.5 28.4,-11.7" /><path
         id="path244"
         style="fill:#5288b8;fill-opacity:1;fill-rule:nonzero;stroke:none"
         d="m 4504.8,473.301 c 0,-20 -14.8,-37.199 -35.1,-39.801 -22,-2.801 -42,12.801 -44.7,34.801 l -101.9,819.099 -11.4,91.9 c -0.2,1.7 -0.4,3.4 -0.4,5.1 0,19.8 14.9,37 35.2,39.6 22,2.8 41.9,-12.9 44.7,-34.8 l 12.6,-101.8 100.6,-809.298 c 0.3,-1.602 0.4,-3.204 0.4,-4.801" /><path
         id="path246"
         style="fill:#396599;fill-opacity:1;fill-rule:nonzero;stroke:none"
         d="m 4403.9,1287.5 h -80.7 l -11.4,91.9 c -0.2,1.7 -0.4,3.4 -0.4,5.1 0,19.8 14.9,37 35.2,39.6 22,2.8 41.9,-12.9 44.7,-34.8 l 12.6,-101.8" /><path
         id="path248"
         style="fill:#953a1d;fill-opacity:1;fill-rule:nonzero;stroke:none"
         d="m 4577.7,1496.6 v -26.7 c 0,-46.7 -37.8,-84.5 -84.5,-84.5 h -756.4 c -46.7,0 -84.5,37.8 -84.5,84.5 v 26.7 c 0,46.7 37.8,84.5 84.5,84.5 h 756.4 c 46.7,0.1 84.5,-37.8 84.5,-84.5" /><path
         id="path250"
         style="fill:#81281a;fill-opacity:1;fill-rule:nonzero;stroke:none"
         d="m 4577.7,1496.6 v -26.7 c 0,-46.7 -37.8,-84.5 -84.5,-84.5 h -686.5 c -46.7,0 -84.5,37.8 -84.5,84.5 v 26.7 c 0,46.7 37.8,84.5 84.5,84.5 h 686.5 c 46.7,0.1 84.5,-37.8 84.5,-84.5" /><path
         id="path252"
         style="fill:#f9b18e;fill-opacity:1;fill-rule:nonzero;stroke:none"
         d="m 3587,2704.5 c 15.2,24.9 0.4,57.3 5.2,86.1 1.4,8 4.6,16.1 11,21.2 6.4,5.1 16.5,5.8 22.3,0.1 7.1,-6.9 4.7,-18.5 4.6,-28.4 -0.2,-17.8 8.3,-34.3 12,-51.7 9,-42.2 -13.4,-76.9 -34.8,-113.3 -26.9,-18.6 -63.1,-31.7 -85.7,-33.9 -14.2,-1.4 -86.9,38.7 -115.3,124.9 -14.3,43.2 -12.6,61.1 -7.8,67 4.8,5.9 14.2,8.7 20.3,4.1 3.7,-2.7 5.4,-7.3 6.9,-11.6 9.1,-25.9 18.1,-51.8 27,-78.7 -35.1,32.8 -54.7,81.5 -51.9,129.5 0.5,9.2 3.3,20.3 12.1,23 5.6,1.8 11.9,-0.8 16.1,-5 4.2,-4.2 6.8,-9.6 9.3,-15 12.6,-27.3 25.3,-54.5 43,-86.9 -32.1,30.4 -45.8,78.8 -34.4,121.5 1.9,7.2 6.2,15.6 13.7,15.7 7.6,0.1 12.1,-8.3 14.8,-15.5 12.8,-34.3 25.6,-68.7 38.4,-103 -18.3,28.5 -26.1,63.6 -21.6,97.2 1.6,12.2 7.8,26.9 20.2,27.4 7,0.3 13.5,-4.5 17.2,-10.5 3.7,-6 5.2,-13 6.9,-19.9 9.6,-39.2 27,-76.4 50.5,-144.3" /><path
         id="path254"
         style="fill:none;stroke:#af4043;stroke-width:5;stroke-linecap:round;stroke-linejoin:miter;stroke-miterlimit:10;stroke-dasharray:none;stroke-opacity:1"
         d="m 3406.2,2779.7 c 11.4,3.1 19.4,-0.9 23.8,-17.4 6.2,-23.3 22.7,-77.3 39.7,-89.3" /><path
         id="path256"
         style="fill:#f9b18e;fill-opacity:1;fill-rule:nonzero;stroke:none"
         d="m 3610.9,2639.8 41.9,-97.7 -110.8,-67.1 -49.3,130.4 118.2,34.4" /><path
         id="path258"
         style="fill:#355f84;fill-opacity:1;fill-rule:nonzero;stroke:none"
         d="m 3606.3,2754.8 c -8,44.7 -41.7,77.4 -80.2,81.5 l -0.6,3.1 c 0,0 -20.1,-3.6 -26.8,-5.1 -43.8,-9.8 -70.9,-58.9 -61.9,-109.7 9.1,-50.8 51.5,-87.4 96,-81.5 6.8,0.9 26.9,4.5 26.9,4.5 l -0.6,3.1 c 34.8,17 55.2,59.3 47.2,104.1" /><path
         id="path260"
         style="fill:#447b94;fill-opacity:1;fill-rule:nonzero;stroke:none"
         d="m 3523.85,2839.1 c 46.76,8.34 92.33,-27.88 101.79,-80.89 9.45,-53.01 -20.79,-102.75 -67.55,-111.09 -46.76,-8.34 -92.33,27.87 -101.79,80.89 -9.45,53.01 20.79,102.75 67.55,111.09" /><path
         id="path262"
         style="fill:#f0f8fd;fill-opacity:1;fill-rule:nonzero;stroke:none"
         d="m 3606,2754.7 c -7.3,40.7 -42.4,68.6 -78.4,62.2 -0.6,-0.1 -1.3,-0.2 -1.9,-0.4 -34.9,-7.3 -57.3,-45 -50.1,-85 7.2,-40.1 41.1,-67.7 76.5,-62.5 0.6,0 1.3,0.2 1.9,0.3 35.9,6.3 59.3,44.6 52,85.4" /><path
         id="path264"
         style="fill:#ffffff;fill-opacity:1;fill-rule:nonzero;stroke:none"
         d="m 3950.8,2665.9 -68.2,51.9 c 0,0 -44.5,-25.2 -68.2,-77.9 -23.7,-52.7 -55.1,-228.6 -55.1,-228.6 l -127.4,211.6 -162.3,-115.2 c 0,0 180,-455.6 288.4,-461.1 108.4,-5.5 184.7,94.9 184.7,94.9 l 8.1,524.4" /><path
         id="path266"
         style="fill:#f9b28c;fill-opacity:1;fill-rule:nonzero;stroke:none"
         d="m 3413.2,697.102 20.7,-130.5 85.4,-34.704 98.1,46.903 -17.8,128.597 -186.4,-10.296" /><path
         id="path268"
         style="fill:#472015;fill-opacity:1;fill-rule:nonzero;stroke:none"
         d="m 3672.6,406.5 -442.7,6.398 c 0,0 -3,9.204 -4.2,22.5 -1.8,20.903 1.1,51.602 27.4,72.204 37.2,28.898 96.3,32.898 134.7,47.796 23,8.903 36.9,31.602 36.9,31.602 l 63,-3.602 c 0,0 5.2,-35.097 28.6,-33 23.4,2.102 100.7,40 100.7,40 40,-68.398 51.7,-123.597 54.9,-155 1.8,-18.5 0.7,-28.898 0.7,-28.898" /><path
         id="path270"
         style="fill:#7f4a1b;fill-opacity:1;fill-rule:nonzero;stroke:none"
         d="m 3672.6,406.5 -442.7,6.398 c 0,0 -3,9.204 -4.2,22.5 h 446.1 c 1.9,-18.5 0.8,-28.898 0.8,-28.898" /><path
         id="path272"
         style="fill:#f9b28c;fill-opacity:1;fill-rule:nonzero;stroke:none"
         d="m 3942.6,697.102 20.7,-130.5 85.4,-34.704 98.1,46.903 -17.8,128.597 -186.4,-10.296" /><path
         id="path274"
         style="fill:#472015;fill-opacity:1;fill-rule:nonzero;stroke:none"
         d="m 4202,406.5 -442.7,6.398 c 0,0 -3,9.204 -4.2,22.5 -1.8,20.903 1.1,51.602 27.4,72.204 37.2,28.898 96.3,32.898 134.7,47.796 23,8.903 36.9,31.602 36.9,31.602 l 63,-3.602 c 0,0 5.2,-35.097 28.6,-33 23.4,2.102 100.7,40 100.7,40 40,-68.398 51.7,-123.597 54.9,-155 1.8,-18.5 0.7,-28.898 0.7,-28.898" /><path
         id="path276"
         style="fill:#7f4a1b;fill-opacity:1;fill-rule:nonzero;stroke:none"
         d="m 4202,406.5 -442.7,6.398 c 0,0 -3,9.204 -4.2,22.5 h 446.1 c 1.9,-18.5 0.8,-28.898 0.8,-28.898" /><path
         id="path278"
         style="fill:#192a40;fill-opacity:1;fill-rule:nonzero;stroke:none"
         d="m 3916.6,1987.1 -72.5,-117.5 c 0,0 -415.1,-63.2 -482.3,-164.9 -62,-93.8 22,-1044.598 22,-1044.598 h 285.1 c 0,0 -21.8,702.298 0,767.298 21.8,65 675.5,61.3 713,149.5 37.5,88.2 50,397.7 50,397.7" /><path
         id="path280"
         style="fill:#1e3646;fill-opacity:1;fill-rule:nonzero;stroke:none"
         d="m 4443.5,1851.5 c 0,0 16.1,-254.5 -67.5,-315.4 -72.6,-52.9 -257.2,-66.7 -257.2,-66.7 L 4154.4,677.801 3881.8,660 c 0,0 -135.4,923.9 -129,1012.5 6.4,88.6 268.6,152.7 250.7,165.3 0,0 -202.1,68.6 -127.2,144 1.7,1.7 3.6,3.5 5.5,5.2 17.4,15.4 230.3,-0.5 230.3,-0.5 l 196.3,18 77.7,-88.1 57.4,-64.9" /><path
         id="path282"
         style="fill:#192a40;fill-opacity:1;fill-rule:nonzero;stroke:none"
         d="m 4433.4,1770.9 c -1.7,-12.5 -3.6,-25.9 -5.6,-39.5 -33.6,42.7 -87.9,105.2 -135.8,131.5 -99.3,54.6 -416.7,91.9 -416.7,91.9 l 1.2,27.1 c 1.7,1.7 3.6,3.5 5.5,5.2 17.4,15.4 230.3,-0.5 230.3,-0.5 l 196.3,18 77.7,-88.1 47.1,-145.6" /><path
         id="path284"
         style="fill:#f9b18e;fill-opacity:1;fill-rule:nonzero;stroke:none"
         d="m 4301.9,2793.5 c 0,0 -116.9,-151 -189.7,-143.3 -72.8,7.7 -129.7,88.3 -129.7,88.3 0,0 29.2,10.8 41.8,58.5 7.4,27.5 9.1,67.3 -3.5,124.4 l 216.4,32.1 c 0,0 -1.5,-36.1 8.1,-75 8.2,-33.2 24.4,-68.6 56.6,-85" /><path
         id="path286"
         style="fill:#f18873;fill-opacity:1;fill-rule:nonzero;stroke:none"
         d="m 4024.3,2796.9 c 7.4,27.5 9.1,67.3 -3.5,124.4 l 216.4,32.1 c 0,0 -1.5,-36.1 8.1,-75 -58.4,-49.1 -138.8,-78.7 -221,-81.5" /><path
         id="path288"
         style="fill:#f18873;fill-opacity:1;fill-rule:nonzero;stroke:none"
         d="m 3822,3049.4 c 3.31,29.24 38.47,49.27 78.53,44.73 40.06,-4.54 69.85,-31.93 66.53,-61.17 -3.31,-29.25 -38.47,-49.28 -78.53,-44.74 -40.06,4.54 -69.85,31.93 -66.53,61.18" /><path
         id="path290"
         style="fill:#4c8295;fill-opacity:1;fill-rule:nonzero;stroke:none"
         d="m 3904.2,3041.6 v 0.8 c 0,9.6 -7.8,17.4 -17.4,17.4 h -9.7 c -9.6,0 -17.4,-7.8 -17.4,-17.4 v -0.8 c 0,-9.6 7.8,-17.4 17.4,-17.4 h 9.7 c 9.6,0 17.4,7.8 17.4,17.4" /><path
         id="path292"
         style="fill:#4c8295;fill-opacity:1;fill-rule:nonzero;stroke:none"
         d="m 3859.7,3042 h 14.6 v -40 h -14.6 v 40" /><path
         id="path294"
         style="fill:#f9b18e;fill-opacity:1;fill-rule:nonzero;stroke:none"
         d="m 4310.5,3125.1 c 0,138.2 -95.6,250.3 -213.6,250.3 -118,0 -213.6,-73.8 -213.6,-250.3 0,-138.2 53.6,-258.1 180.6,-266.5 117.7,-7.7 246.6,128.2 246.6,266.5" /><path
         id="path296"
         style="fill:#f18873;fill-opacity:1;fill-rule:nonzero;stroke:none"
         d="m 4285.3,3059.7 c -39.1,37.6 -68.1,85.6 -82.3,139.1 -19.9,-6.4 -42.8,-2.4 -57.3,8.7 -43.4,-17.6 -94.8,-14.3 -134.2,7.7 -30.8,-14.4 -68.3,-13.7 -99.5,3.1 -15,-20.4 -26.2,-43.5 -33.1,-67.9 3,47.6 6.1,95.2 9.2,142.9 112.7,15.9 226,27 339.6,33.2 6.4,0.4 13.2,0.6 19,-2.3 8.5,-4.4 12.2,-14.4 15,-23.6 24,-79 36.2,-161.6 23.6,-240.9" /><path
         id="path298"
         style="fill:#472015;fill-opacity:1;fill-rule:nonzero;stroke:none"
         d="m 4339.6,3308.6 c -4.7,-71 -9.3,-162.6 -14,-232.7 -6.6,-24.1 -27.3,-23.2 -55.4,-32.2 -26.1,58.2 -42.1,120.8 -51.8,189.6 -27.3,-7.2 -56.9,-5.2 -84.8,5.6 -41.8,-16.1 -89.2,-16.9 -132.1,0.3 -32.4,-10.7 -67.7,-12.8 -98.2,-1.8 -11.5,-34.9 -17.1,-87.9 -20.1,-125.1 -4,34.1 -17.2,139.6 -20.5,211.9 -1.4,31 -1.1,55.9 2.5,66.5 13.4,39.3 56.8,26.6 68.4,13.1 7.9,18.2 24.8,32.3 44.1,36.8 19.3,4.5 40.7,-0.7 58.4,-13.9 12.1,22.7 37.1,37.9 62.7,38.5 25.7,0.4 51.2,-13.9 60.1,-38.4 11.9,6.6 24.4,12.6 37.7,15.2 13.4,2.5 27.9,1.2 39.4,-6.1 5.5,-3.5 10.2,-8.5 13.8,-14.7 3.9,-6.5 6.5,-14.2 7.7,-22.5 10.8,15.1 33.6,17.9 49.9,9.3 16.4,-8.6 26.5,-26.1 30.6,-44.2 4.1,-18 2.9,-36.8 1.6,-55.2" /><path
         id="path300"
         style="fill:#653817;fill-opacity:1;fill-rule:nonzero;stroke:none"
         d="m 4249.8,3421.2 c -14.2,6.2 -30.3,7.8 -45.4,4.4 -19,-4.3 -36.1,-16.5 -45.6,-35 -8.9,23.9 -34.2,40.6 -59.7,39.4 -25.5,-1.3 -49.1,-20.3 -60.8,-50.1 -13.7,16.2 -35.9,25 -57,22.5 -21.1,-2.5 -40.7,-16 -50,-37.2 -7.3,8.6 -20.5,10.2 -31.1,6.3 -10.5,-4 -18.8,-12.6 -25,-22 -5.3,-7.9 -9.3,-16.4 -12.6,-25.2 -1.4,31 -1.1,55.9 2.5,66.5 13.4,39.3 56.8,26.6 68.4,13.1 7.9,18.2 24.8,32.3 44.1,36.8 19.3,4.5 40.7,-0.7 58.4,-13.9 12.1,22.7 37.1,37.9 62.7,38.5 25.7,0.4 51.2,-13.9 60.1,-38.4 11.9,6.6 24.4,12.6 37.7,15.2 13.4,2.5 27.9,1.2 39.4,-6.1 5.6,-3.6 10.3,-8.6 13.9,-14.8" /><path
         id="path302"
         style="fill:none;stroke:#472015;stroke-width:20;stroke-linecap:round;stroke-linejoin:miter;stroke-miterlimit:10;stroke-dasharray:none;stroke-opacity:1"
         d="m 3969.9,3135.7 c -18.4,4.4 -38.6,0.7 -54.3,-9.9" /><path
         id="path304"
         style="fill:none;stroke:#472015;stroke-width:20;stroke-linecap:round;stroke-linejoin:miter;stroke-miterlimit:10;stroke-dasharray:none;stroke-opacity:1"
         d="m 4111,3132.1 c 20,8.7 44.4,6.3 62.4,-6.1" /><path
         id="path306"
         style="fill:none;stroke:#af4043;stroke-width:20;stroke-linecap:round;stroke-linejoin:miter;stroke-miterlimit:10;stroke-dasharray:none;stroke-opacity:1"
         d="m 4025.4,3055.7 c 0.5,-19.8 2.5,-39.5 5.8,-59" /><path
         id="path308"
         style="fill:none;stroke:#af4043;stroke-width:20;stroke-linecap:round;stroke-linejoin:miter;stroke-miterlimit:10;stroke-dasharray:none;stroke-opacity:1"
         d="m 4053.3,2941.7 c 24,-0.9 48.3,8.1 65.9,24.4" /><path
         id="path310"
         style="fill:#2b365b;fill-opacity:1;fill-rule:nonzero;stroke:none"
         d="m 4118.76,3060.08 c 6.04,1.07 12.06,-4.46 13.45,-12.35 1.39,-7.89 -2.38,-15.14 -8.41,-16.21 -6.04,-1.06 -12.06,4.47 -13.45,12.36 -1.39,7.88 2.38,15.14 8.41,16.2" /><path
         id="path312"
         style="fill:#2b365b;fill-opacity:1;fill-rule:nonzero;stroke:none"
         d="m 3951.35,3057.79 c 6.04,1.07 12.06,-4.46 13.45,-12.35 1.39,-7.89 -2.38,-15.14 -8.41,-16.21 -6.04,-1.06 -12.06,4.47 -13.45,12.36 -1.39,7.88 2.38,15.14 8.41,16.2" /><path
         id="path314"
         style="fill:#f9b18e;fill-opacity:1;fill-rule:nonzero;stroke:none"
         d="m 4292.07,3094.15 c 39.94,5.51 75.58,-13.66 79.6,-42.82 4.02,-29.16 -25.1,-57.27 -65.04,-62.77 -39.93,-5.51 -75.57,13.66 -79.59,42.82 -4.02,29.16 25.09,57.27 65.03,62.77" /><path
         id="path316"
         style="fill:#4c8295;fill-opacity:1;fill-rule:nonzero;stroke:none"
         d="m 4289.8,3041.6 v 0.8 c 0,9.6 7.8,17.4 17.4,17.4 h 9.7 c 9.6,0 17.4,-7.8 17.4,-17.4 v -0.8 c 0,-9.6 -7.8,-17.4 -17.4,-17.4 h -9.7 c -9.6,0 -17.4,7.8 -17.4,17.4" /><path
         id="path318"
         style="fill:#4c8295;fill-opacity:1;fill-rule:nonzero;stroke:none"
         d="m 4319.7,3042 h 14.6 v -40 h -14.6 v 40" /><path
         id="path320"
         style="fill:#71ccc7;fill-opacity:1;fill-rule:nonzero;stroke:none"
         d="m 4275.3,2826.6 c 0,0 -118.5,-71.6 -139.1,-97.3 -20.6,-25.8 -26.9,-61 -26.9,-61 0,0 -28.4,59.9 -34.8,64.9 -6.4,5 -56.1,52.1 -56.1,52.1 l -58.3,-44.2 -78.1,-40.6 3.3,-750.2 528.2,-35.8 13.6,814.1 -151.8,98" /><path
         id="path322"
         style="fill:none;stroke:#427b8b;stroke-width:5;stroke-linecap:round;stroke-linejoin:miter;stroke-miterlimit:10;stroke-dasharray:none;stroke-opacity:1"
         d="m 4108.7,2663.9 c -25,-210.4 18.4,-578.1 -52.1,-720.9" /><path
         id="path324"
         style="fill:#a7e1db;fill-opacity:1;fill-rule:nonzero;stroke:none"
         d="m 4118.9,2699.5 c 0,0 8.9,33.2 29.4,49.6 20.5,16.4 126.2,78.6 129,79.3 2.8,0.7 54.7,-35.5 54.7,-35.5 l -78.4,-111.3 c 0,0 -80.4,56.5 -99.2,51.7 -18,-4.7 -35.5,-33.8 -35.5,-33.8" /><path
         id="path326"
         style="fill:#a7e1db;fill-opacity:1;fill-rule:nonzero;stroke:none"
         d="m 4094.3,2699.4 c 0,0 -6.1,23.4 -16.8,36.6 -12.4,15.3 -53.4,59.5 -57.6,59.2 -4.2,-0.2 -45.8,-25.2 -53.2,-40.3 -7.4,-15.1 -3.2,-86.5 -3.2,-86.5 0,0 70.2,66.8 97.6,59.2 18.2,-5.1 33.2,-28.2 33.2,-28.2" /><path
         id="path328"
         style="fill:#ffffff;fill-opacity:1;fill-rule:nonzero;stroke:none"
         d="m 4320.7,2805.9 c 0,0 -91.7,-86.2 -105.5,-173.7 -13.8,-87.5 -8.5,-547.9 76.4,-701.1 73.6,-132.9 80.6,-556.2 80.6,-752.7 l 257.6,88.8 c 0,0 -1.1,352.5 -84.3,678.9 -64.5,253 -2.6,715.3 -39.5,760.5 -25.7,31.6 -185.3,99.3 -185.3,99.3" /><path
         id="path330"
         style="fill:#deecf9;fill-opacity:1;fill-rule:nonzero;stroke:none"
         d="m 4212,2314.6 c 0,0 -21.3,243.2 -0.7,321.5 20.6,78.3 80.2,177.8 96.3,181.3 26.6,5.7 86.1,-40.4 86.1,-40.4 0,0 -48.2,-83.4 -62.4,-209.9 -1.3,-11.4 -95.8,-46.3 -95.8,-46.3 0,0 73.8,-54 72.8,-59.3 -1.1,-5.5 -96.3,-146.9 -96.3,-146.9" /><path
         id="path332"
         style="fill:#447b94;fill-opacity:1;fill-rule:nonzero;stroke:none"
         d="m 4042.9,1962.5 c 55.28,0 100.1,-27.89 100.1,-62.3 0,-34.41 -44.82,-62.3 -100.1,-62.3 -55.28,0 -100.1,27.89 -100.1,62.3 0,34.41 44.82,62.3 100.1,62.3" /><path
         id="path334"
         style="fill:#f9b28c;fill-opacity:1;fill-rule:nonzero;stroke:none"
         d="m 4180.1,1981.8 c -34,4.5 -68,9 -102,13.5 -9.1,1.2 -18.9,2.3 -27.2,-1.6 -11.5,-5.4 -16.8,-18.6 -17.8,-32.2 17,-1.5 34,-2.9 51.2,-5.7 -20.8,-28.6 -46.3,-53.8 -75,-74.5 -6.4,-4.6 -13.1,-9.1 -17.9,-15.3 -4.9,-6.2 -7.6,-14.6 -5.1,-22.1 2.6,-7.4 10,-12.4 17.7,-13.9 7.7,-1.5 15.6,-0.2 24.8,-0.7 -2.8,-11.3 2.9,-24 13.1,-29.5 10.2,-5.5 24,-3.2 34,4.4 5.2,-9.8 15.3,-16.9 26.3,-18.5 11,-1.6 22.7,2.4 32.3,5.1 8,-9.3 20.3,-14.8 32.5,-14.6 12.3,0.2 24.3,6.1 34.2,14.9 29.5,26.2 53,59.2 68.1,95.7 -32.3,29 -62.3,60.4 -89.2,95" /><path
         id="path336"
         style="fill:#ffffff;fill-opacity:1;fill-rule:nonzero;stroke:none"
         d="m 4344.9,2613.9 c -2.5,48.3 22,139.2 56.8,148.7 54.2,14.7 146.3,-66.7 170.5,-131.5 24.2,-64.8 97.3,-461.9 76.8,-516 -28.1,-73.8 -399.2,-272.3 -399.2,-272.3 l -115,168.1 c 0,0 257.3,139.6 272.6,184 9.5,27.8 -56.6,305.7 -62.5,419" /><path
         id="path338"
         style="fill:none;stroke:#bcc8e7;stroke-width:10;stroke-linecap:round;stroke-linejoin:miter;stroke-miterlimit:10;stroke-dasharray:none;stroke-opacity:1"
         d="m 4469.4,2697.1 c 0,0 -41.5,-54.3 -41.5,-152.1 0,-97.8 24,-329.4 18.4,-337.9 -5.5,-8.5 -186.9,-126.1 -186.9,-126.1" /><path
         id="path340"
         style="fill:none;stroke:#bcc8e7;stroke-width:10;stroke-linecap:round;stroke-linejoin:miter;stroke-miterlimit:10;stroke-dasharray:none;stroke-opacity:1"
         d="m 4430.9,2397.5 c -27.4,32.5 -46.3,70.4 -54.8,110.1" /><path
         id="path342"
         style="fill:none;stroke:#bcc8e7;stroke-width:10;stroke-linecap:round;stroke-linejoin:miter;stroke-miterlimit:10;stroke-dasharray:none;stroke-opacity:1"
         d="m 4332.4,1882.7 c 58.9,32.1 144.1,82.2 195.4,123.1" /><path
         id="path344"
         style="fill:#ffffff;fill-opacity:1;fill-rule:nonzero;stroke:none"
         d="m 4003.6,2788.8 c 0,0 -15.6,-60 -15.6,-164.3 0,-175 -22.8,-661.6 -114.9,-733.5 -72.4,-56.5 -163.1,-52.9 -204.3,-52.9 0,0 85.7,45.6 117.7,98.5 35.6,58.8 41.6,245.7 46.3,343.1 5,103.2 14.3,387.6 26.1,412.4 25.6,53.5 144.7,96.7 144.7,96.7" /><path
         id="path346"
         style="fill:#deecf9;fill-opacity:1;fill-rule:nonzero;stroke:none"
         d="m 3973.7,2299.7 c 0,0 20.9,164.7 20.9,279.2 0,128.2 21.1,216.4 21.1,216.4 0,0 -72.8,-23.1 -80.8,-34.9 -8,-11.8 -45.7,-79.5 -65,-207.8 -3.2,-21.2 82.8,-38.7 82.8,-38.7 0,0 -66.3,-51.5 -66.3,-64.4 0.1,-25 87.3,-149.8 87.3,-149.8" /><path
         id="path348"
         style="fill:none;stroke:#bcc8e7;stroke-width:10;stroke-linecap:round;stroke-linejoin:miter;stroke-miterlimit:10;stroke-dasharray:none;stroke-opacity:1"
         d="m 3854.9,2641.2 c 0,-279 -25.3,-502.2 -37.5,-579.7" /><path
         id="path350"
         style="fill:none;stroke:#bcc8e7;stroke-width:10;stroke-linecap:round;stroke-linejoin:miter;stroke-miterlimit:10;stroke-dasharray:none;stroke-opacity:1"
         d="m 3815.3,2541.2 c 7.2,-40 24.6,-79.5 35.3,-91.6" /><path
         id="path352"
         style="fill:none;stroke:#1d3245;stroke-width:10;stroke-linecap:butt;stroke-linejoin:miter;stroke-miterlimit:10;stroke-dasharray:none;stroke-opacity:1"
         d="m 3866.7,3002.6 c 0,0 13.7,-321.9 206.7,-334.2 162.9,-10.4 253.3,189.8 253.3,334.7" /><path
         id="path354"
         style="fill:none;stroke:#1d3245;stroke-width:10;stroke-linecap:round;stroke-linejoin:miter;stroke-miterlimit:10;stroke-dasharray:none;stroke-opacity:1"
         d="m 4085.6,2664.4 c 0,0 -118.7,-433.8 -448,-512.2 -403,-96 -797.9,11.9 -797.9,11.9" /><path
         id="path356"
         style="fill:none;stroke:#1d3245;stroke-width:10;stroke-linecap:round;stroke-linejoin:miter;stroke-miterlimit:10;stroke-dasharray:none;stroke-opacity:1"
         d="m 3553.4,2652.1 c 0,0 45.5,-263 -158.4,-399.2 -180.6,-120.7 -555.3,-83.4 -555.3,-83.4" /><path
         id="path358"
         style="fill:none;stroke:#1d3245;stroke-width:10;stroke-linecap:round;stroke-linejoin:miter;stroke-miterlimit:10;stroke-dasharray:none;stroke-opacity:1"
         d="m 3949.6,1901.8 c 0,0 -738.6,-1.5 -1115,262.3" /><path
         id="path360"
         style="fill:#301b14;fill-opacity:1;fill-rule:nonzero;stroke:none"
         d="m 5495.9,3753.5 c -4.5,78.8 52.7,156.8 129.2,176.1 76.5,19.3 163.9,-22.2 197.3,-93.7 28.6,-61.2 18.8,-132.9 5,-199.1 -13.7,-66.2 -30.8,-134.7 -15.1,-200.4 13.3,-55.3 49,-104.1 56.1,-160.5 9.7,-77.6 -44.9,-158.2 -120.6,-177.9 -42.8,-11.1 -98.1,2.6 -111.7,44.7 -12.6,39 16.2,80.5 10.4,121 -4.9,34 -32.6,59.2 -55.4,84.8 -84,94.6 -85.2,230.9 -95.2,405" /><path
         id="path362"
         style="fill:#da8051;fill-opacity:1;fill-rule:nonzero;stroke:none"
         d="m 4761.6,2757.4 c -38.3,43.7 -66.3,122.4 -66.3,148.9 0,31.3 -5,63.4 6,92.7 5.7,15.1 14.4,28.8 23.1,42.4 9.9,15.5 19.7,31 29.6,46.5 4.1,6.4 8.8,13.2 16.1,15.2 12.3,3.3 23.6,-10.6 23,-23.4 -0.7,-12.7 -9.1,-23.5 -23.6,-34.8 5.5,23.3 17.3,45.1 33.7,62.5 4.3,4.6 10.1,9.2 16.3,7.8 10.1,-2.4 9.8,-16.8 7.1,-26.8 -6.8,-25.1 -13.5,-50.2 -18.9,-71.8 21.4,-40.8 19.5,-89.2 19.9,-135.2 0.4,-46 4.9,-95.8 35.3,-130.4 -29.2,-12.8 -63.6,38.2 -101.3,6.4" /><path
         id="path364"
         style="fill:#da8051;fill-opacity:1;fill-rule:nonzero;stroke:none"
         d="m 4757.2,2762.8 c 0,0 101.5,-346.8 178.2,-353.9 92.8,-8.7 168.2,77.1 168.2,77.1 l 60.6,310.6 -137.4,82.3 -75.8,-248.9 -108.2,122.3 -85.6,10.5" /><path
         id="path366"
         style="fill:#40a1b5;fill-opacity:1;fill-rule:nonzero;stroke:none"
         d="m 5214.3,2744.8 c -75.6,28.6 -151.5,56.6 -227,85.6 20.6,98.7 49.2,217 74.2,254.8 46.8,70.7 122.4,74.3 122.4,74.3 l 34.5,-102.1 -4.1,-310.5 c 0,0 0,-0.8 0,-2.1" /><path
         id="path368"
         style="fill:#b23133;fill-opacity:1;fill-rule:nonzero;stroke:none"
         d="m 5144.6,2543.9 -221,571.3 -271,-70.3 250.8,-636.1 241.2,135.1" /><path
         id="path370"
         style="fill:#f0f8fd;fill-opacity:1;fill-rule:nonzero;stroke:none"
         d="m 5107.8,2575.3 -199.1,508.5 -221,-59.9 217.7,-556.4 202.4,107.8" /><path
         id="path372"
         style="fill:#648aab;fill-opacity:1;fill-rule:nonzero;stroke:none"
         d="m 4837.7,3097.6 13.8,-36.9 -86.7,-24.1 -15.5,37.7 88.4,23.3" /><path
         id="path374"
         style="fill:#2e6b99;fill-opacity:1;fill-rule:nonzero;stroke:none"
         d="m 5014,478.902 c 0.8,-37.5 394.1,-24.8 411.8,6.098 11.5,20.199 -9.7,71 -25.9,103.902 -8.6,17.7 -15.8,30.2 -15.8,30.2 l -50,70 -39.9,1.097 C 5205.7,639.102 5117.5,583.5 5064.3,540 5032.9,514.199 5013.7,492.801 5014,478.902" /><path
         id="path376"
         style="fill:#da8051;fill-opacity:1;fill-rule:nonzero;stroke:none"
         d="m 5064.3,539.898 c 81.3,-51.199 268.6,20.403 335.6,48.903 C 5391.3,606.5 5384.1,619 5384.1,619 l -50,70 -39.9,1.102 C 5205.7,639 5117.4,583.398 5064.3,539.898" /><path
         id="path378"
         style="fill:#da8051;fill-opacity:1;fill-rule:nonzero;stroke:none"
         d="m 5185,844.398 13.9,-153.296 5,-55 3.5,-37.801 159.1,16.699 1.3,26.699 v 0.102 l 1.3,28 8.8,181.199 0.9,18.199 -96.9,-12.398 -96.9,-12.403" /><path
         id="path380"
         style="fill:#d05d3f;fill-opacity:1;fill-rule:nonzero;stroke:none"
         d="m 5185,844.398 13.9,-153.296 79.6,-9.903 h 0.1 l 67.1,-8.5 23.4,-2.898 8.8,181.199 -96,5.801 -96.9,-12.403" /><path
         id="path382"
         style="fill:#40a1b5;fill-opacity:1;fill-rule:nonzero;stroke:none"
         d="m 5072.6,2378.2 c 0,0 -68.4,-189.2 -54.9,-458.2 13.5,-269 126.9,-1207.102 126.9,-1207.102 l 282.6,13.301 -48.4,1211.001 -68.2,375" /><path
         id="path384"
         style="fill:#2e6b99;fill-opacity:1;fill-rule:nonzero;stroke:none"
         d="m 5721.1,482.699 c 24.9,-28 316,236.801 309.5,271.699 -4.3,22.801 -53.4,47.704 -87.1,62.204 -18,7.796 -31.6,12.699 -31.6,12.699 l -83.5,20.801 -31.1,-25 c -34.2,-96.301 -65.3,-195.903 -77.5,-263.403 -7.3,-39.801 -7.9,-68.597 1.3,-79" /><path
         id="path386"
         style="fill:#da8051;fill-opacity:1;fill-rule:nonzero;stroke:none"
         d="m 5719.8,561.801 c 95.1,13.801 191.2,189.801 223.7,254.898 -18,7.801 -31.6,12.699 -31.6,12.699 l -83.5,20.801 -31.1,-25 C 5763.1,728.902 5732,629.398 5719.8,561.801" /><path
         id="path388"
         style="fill:#da8051;fill-opacity:1;fill-rule:nonzero;stroke:none"
         d="m 5614.2,871.801 66.1,-64.699 83.3,-81.5 27.2,-26.5 110.3,115.796 -16.4,21.301 L 5837,898 5745.6,1016.4 5614.2,871.801" /><path
         id="path390"
         style="fill:#d05d3f;fill-opacity:1;fill-rule:nonzero;stroke:none"
         d="M 5614.2,871.801 5680.3,807.102 5837,898 5745.6,1016.4 5614.2,871.801" /><path
         id="path392"
         style="fill:#49b7c2;fill-opacity:1;fill-rule:nonzero;stroke:none"
         d="m 5035,2200.4 c 27.5,-76.4 234.6,-211 234.6,-211 0,0 -2,-533.3 5.7,-667.7 7.7,-134.4 286.2,-573.2 286.2,-573.2 l 261,231.699 c 0,0 -202.3,338.301 -216.2,417.801 -13.9,79.6 73.6,497.6 73.6,667.8 0,31.4 -2.9,63.9 -7.7,96.1 -10.4,71 -29.7,140.4 -46.5,191.9 -16.7,51.5 -30.8,85.3 -30.8,85.3 0,0 -141.8,-20.6 -283.4,-60.2 -129.6,-36.2 -258.7,-88.5 -278.4,-155.2 -2,-6.8 -1.2,-14.7 1.9,-23.3" /><path
         id="path394"
         style="fill:#40a1b5;fill-opacity:1;fill-rule:nonzero;stroke:none"
         d="m 5035,2200.4 c 69,-40.8 140.9,-76.7 214.9,-107.2 4.6,12.3 9.2,24.6 15.6,36.9 6.5,-14.1 13.1,-28 21.1,-47.1 127.6,32 256.4,59.1 385.7,78.9 -10.4,71 -29.7,140.4 -46.5,191.9 -104.6,9.8 -209.4,18.2 -314.2,25.1 -129.6,-36.2 -258.7,-88.5 -278.4,-155.2 -2.1,-6.8 -1.3,-14.7 1.8,-23.3" /><path
         id="path396"
         style="fill:#4bbec0;fill-opacity:1;fill-rule:nonzero;stroke:none"
         d="m 5759.8,3076.7 c -9.9,60 -237,137.1 -314.2,130.1 -165.8,-15.1 -285.9,-45.2 -323.7,-68.9 -37.8,-23.7 -72.3,-245.1 -72.3,-306.8 0,-73 25.1,-216.3 18.4,-274.1 -13,-112.1 -81,-349.5 -81,-349.5 l 249.9,-87.6 31,54.6 28.3,-69.2 413,94.7 c 0,0 -31.6,328.9 -31.6,386.6 0.1,55.3 95,412.7 82.2,490.1" /><path
         id="path398"
         style="fill:none;stroke:#72cfcc;stroke-width:10;stroke-linecap:round;stroke-linejoin:miter;stroke-miterlimit:10;stroke-dasharray:none;stroke-opacity:1"
         d="m 5374,3037.5 c -83,-432.3 -87.6,-556.1 -106.5,-859.8" /><path
         id="path400"
         style="fill:#2e6b99;fill-opacity:1;fill-rule:nonzero;stroke:none"
         d="m 5385,2965.8 c 7.68,0 13.9,-6.22 13.9,-13.9 0,-7.68 -6.22,-13.9 -13.9,-13.9 -7.68,0 -13.9,6.22 -13.9,13.9 0,7.68 6.22,13.9 13.9,13.9" /><path
         id="path402"
         style="fill:#2e6b99;fill-opacity:1;fill-rule:nonzero;stroke:none"
         d="m 5350.2,2776.7 c 7.68,0 13.9,-6.22 13.9,-13.9 0,-7.68 -6.22,-13.9 -13.9,-13.9 -7.68,0 -13.9,6.22 -13.9,13.9 0,7.68 6.22,13.9 13.9,13.9" /><path
         id="path404"
         style="fill:#2e6b99;fill-opacity:1;fill-rule:nonzero;stroke:none"
         d="m 5323.4,2577.4 c 7.68,0 13.9,-6.22 13.9,-13.9 0,-7.68 -6.22,-13.9 -13.9,-13.9 -7.68,0 -13.9,6.22 -13.9,13.9 0,7.68 6.22,13.9 13.9,13.9" /><path
         id="path406"
         style="fill:#2e6b99;fill-opacity:1;fill-rule:nonzero;stroke:none"
         d="m 5309.5,2348.9 c 7.68,0 13.9,-6.22 13.9,-13.9 0,-7.68 -6.22,-13.9 -13.9,-13.9 -7.68,0 -13.9,6.22 -13.9,13.9 0,7.68 6.22,13.9 13.9,13.9" /><path
         id="path408"
         style="fill:#2e6b99;fill-opacity:1;fill-rule:nonzero;stroke:none"
         d="m 4892,2769.9 41.4,-3.3 3.2,-0.3 277.6,72.9 c 19,10.1 22.2,25.7 17.7,38.4 -5.7,15.8 -24.2,23.2 -40.1,17.6 l -264.8,-93.6 -2.7,-2.4 -32.3,-29.3" /><path
         id="path410"
         style="fill:#d57d4a;fill-opacity:1;fill-rule:nonzero;stroke:none"
         d="m 4892,2769.9 11.4,-0.9 30,-2.4 c -0.9,0.7 -1.9,1.4 -2.7,2.3 -3.5,3.5 -5.6,8.7 -4.1,13.4 0.6,2 1.8,4.1 1,6 -0.4,0.9 -1.2,1.5 -1.8,2.2 -2,2.3 -2.3,5.8 -1.6,8.7 l -23.7,-21.6 -8.5,-7.7" /><path
         id="path412"
         style="fill:#211618;fill-opacity:1;fill-rule:nonzero;stroke:none"
         d="m 4892,2769.9 11.4,-0.9 c -1.2,1.3 -2,2.8 -2.5,4.5 -0.4,1.3 -0.5,2.7 -0.4,4.1 l -8.5,-7.7" /><path
         id="path414"
         style="fill:#da8051;fill-opacity:1;fill-rule:nonzero;stroke:none"
         d="m 5220,2708.2 c -27.3,50.6 -54.5,101.2 -83.6,151.9 -21.6,16.8 -45.9,29.5 -70.7,39 -29.6,-9.6 -57.4,-27.3 -80.3,-51.1 -5.6,-5.9 -11.5,-14.2 -8.9,-22.1 1.9,-5.8 7.9,-8.6 13.5,-8.2 5.5,0.4 10.7,3.4 15.7,6.3 15.1,8.8 30.2,17.7 47.7,26.2 4.9,-4.2 9.8,-8.4 13.5,-12.7 -10.2,-0.1 -20.4,-0.3 -32.6,-3.8 -19.5,-9.2 -38.6,-19.7 -57.1,-31.5 -5.2,-3.3 -10.9,-7.7 -11.5,-14.3 -0.5,-5.4 2.8,-10.3 7.1,-12.6 4.3,-2.3 9.2,-2.4 14,-2 17.4,1.2 34.7,7.5 49,18.3 5.8,-1.7 11.6,-3.4 16,-6.2 -7.5,-1.4 -15,-2.8 -22,-6.3 -7,-3.5 -13.4,-9.3 -16.5,-17.2 -3.1,-7.9 -2,-17.9 2.1,-26.2 -4,-1.5 -6.2,-6.7 -6,-11.4 0.2,-4.7 2.2,-8.9 4.2,-12.9 4.3,-8.5 9,-16.7 14.1,-24.5 4.9,-7.3 10.5,-14.5 18.2,-17.7 7.7,-3.1 17.8,-0.9 22.9,8.7 20.6,-35.6 59.2,-56.5 96.6,-52.5 22.3,24.1 40.9,52.4 54.6,82.8" /><path
         id="path416"
         style="fill:none;stroke:#a73839;stroke-width:5;stroke-linecap:round;stroke-linejoin:miter;stroke-miterlimit:10;stroke-dasharray:none;stroke-opacity:1"
         d="m 5101,2831.7 c -9.9,4.1 -20.4,5.5 -31.1,6.6" /><path
         id="path418"
         style="fill:none;stroke:#a73839;stroke-width:5;stroke-linecap:round;stroke-linejoin:miter;stroke-miterlimit:10;stroke-dasharray:none;stroke-opacity:1"
         d="m 5080.9,2788 c -10,0.8 -19.8,0.5 -27.3,-0.8" /><path
         id="path420"
         style="fill:none;stroke:#a73839;stroke-width:5;stroke-linecap:round;stroke-linejoin:miter;stroke-miterlimit:10;stroke-dasharray:none;stroke-opacity:1"
         d="m 5016.8,2738.8 c 13.9,7.7 36.9,12.1 52.7,10.1" /><path
         id="path422"
         style="fill:none;stroke:#a73839;stroke-width:5;stroke-linecap:round;stroke-linejoin:miter;stroke-miterlimit:10;stroke-dasharray:none;stroke-opacity:1"
         d="m 5064.5,2680.6 c -4.9,7.9 -9.2,20.9 -11.1,30" /><path
         id="path424"
         style="fill:none;stroke:#a73839;stroke-width:5;stroke-linecap:round;stroke-linejoin:miter;stroke-miterlimit:10;stroke-dasharray:none;stroke-opacity:1"
         d="m 5056.6,2694.3 c -6.3,-0.8 -12.9,-1.9 -18,-1.4" /><path
         id="path426"
         style="fill:#da8051;fill-opacity:1;fill-rule:nonzero;stroke:none"
         d="m 5148.6,2638.3 c 0,0 345.6,-293.1 438.9,-260.1 37.1,13.2 73.9,120.8 100.6,221 24.6,92.1 40.6,177.8 40.6,177.8 l -195.8,82.7 c 0,0 -13.1,-88.8 -26.3,-161 -8.7,-48.7 -17.5,-89.8 -22.2,-91 -20,-5.6 -273.7,107.3 -273.7,107.3 l -62.1,-76.7" /><path
         id="path428"
         style="fill:#d05d3f;fill-opacity:1;fill-rule:nonzero;stroke:none"
         d="m 5506.6,2698.6 c 46.7,-30.6 120.1,-75.7 181.4,-99.5 24.6,92.1 40.6,177.8 40.6,177.8 l -195.8,82.7 c 0,0 -13,-88.8 -26.2,-161" /><path
         id="path430"
         style="fill:#5ac8c7;fill-opacity:1;fill-rule:nonzero;stroke:none"
         d="m 5728.6,2672.7 c -85.7,16.3 -153.7,30.4 -235.6,59.7 11.6,96.2 38.7,270.2 60.7,323.8 15.6,38 76.9,104.8 146,75.9 69.1,-28.9 95.6,-74.5 88.3,-194.8 -2.7,-42.8 -43.4,-177.5 -59.4,-264.6" /><path
         id="path432"
         style="fill:#da8051;fill-opacity:1;fill-rule:nonzero;stroke:none"
         d="m 5310.8,3163 c 0,0 20.1,-91 58.9,-117.6 38.8,-26.6 185.7,137 185.7,137 -25.3,23.6 -31.4,69.9 -31.1,110.9 0.3,41.8 7.3,77.8 7.3,77.8 l -179,-51.7 c 1.8,-44.2 -1.8,-76.1 -7.4,-99 -12.2,-49.7 -34.4,-57.4 -34.4,-57.4" /><path
         id="path434"
         style="fill:#d05d3f;fill-opacity:1;fill-rule:nonzero;stroke:none"
         d="m 5345.3,3220.4 c 82.5,-17.5 145.6,35 179,72.9 0.3,41.8 7.3,77.8 7.3,77.8 l -179,-51.7 c 1.9,-44.3 -1.7,-76.1 -7.3,-99" /><path
         id="path436"
         style="fill:#2e6b99;fill-opacity:1;fill-rule:nonzero;stroke:none"
         d="m 5376.3,3042.2 c -2.3,0.4 9.2,61.8 15,67.1 5.8,5.3 146.9,128.9 155.3,124.3 12.3,-6.6 32.6,-45.8 32.6,-45.8 0,0 -29,-39.3 -83.7,-83.7 -37.6,-30.5 -97.6,-65.6 -119.2,-61.9" /><path
         id="path438"
         style="fill:#2e6b99;fill-opacity:1;fill-rule:nonzero;stroke:none"
         d="m 5376.3,3042.5 c 3.1,3.1 -3.2,64 -6.8,69.6 -11.7,18.5 -31.5,66.7 -31.5,99.5 0,0 -35.6,-13.5 -40,-21.3 -4.3,-7.9 15,-65.6 29.9,-93.1 25.3,-46.3 45.9,-57.2 48.4,-54.7" /><path
         id="path440"
         style="fill:#d05d3f;fill-opacity:1;fill-rule:nonzero;stroke:none"
         d="m 5132.03,3467.83 c 3.39,29.85 39.27,50.29 80.15,45.66 40.88,-4.63 71.28,-32.59 67.9,-62.44 -3.39,-29.85 -39.27,-50.3 -80.15,-45.66 -40.88,4.63 -71.28,32.59 -67.9,62.44" /><path
         id="path442"
         style="fill:#da8051;fill-opacity:1;fill-rule:nonzero;stroke:none"
         d="m 5630.1,3545.1 c 0,141 -97.5,255.3 -217.8,255.3 -120.3,0 -217.8,-114.3 -217.8,-255.3 0,-141 60.1,-281.2 182,-276.2 120.1,5 253.6,135.2 253.6,276.2" /><path
         id="path444"
         style="fill:#d05d3f;fill-opacity:1;fill-rule:nonzero;stroke:none"
         d="m 5581.8,3484.6 c -25.3,27.5 -41.3,79.4 -45.2,101.5 -24.2,7 -53.5,30.2 -68.2,61.5 -36.9,-36.9 -177.1,-57.7 -223.9,-45.5 -33.3,-41.1 -34.3,-61.5 -46.1,-114 -7.6,64.1 -4.2,129.5 9.9,192.5 87.7,28.3 173.5,62.4 256.7,102.2 14.2,6.8 31.2,13.7 44.8,5.7 8.7,-5.1 13.2,-15 17.7,-24.1 18.8,-38.3 45.8,-72.6 78.6,-99.9 8.5,-7.1 18.2,-15.1 18.6,-26.1 0.3,-7.2 -3.5,-13.8 -7,-20.1 -15.7,-28.9 -13,-98.4 -35.9,-133.7" /><path
         id="path446"
         style="fill:#392116;fill-opacity:1;fill-rule:nonzero;stroke:none"
         d="m 5157.5,3631.5 c -0.7,-53.4 42.8,-164.3 42.8,-164.3 0,0 0.3,91.3 41.9,150.6 86.1,0 181.5,4 234.3,53 15.3,-38.8 41.6,-61.4 73.3,-72 -1,-48.4 21.2,-93.7 35.1,-134.4 27.1,16.5 47.5,9.5 69.6,35.6 12.8,47.3 26.4,121.2 22.5,166.9 -3.2,36.8 -13.2,74 -33.2,104.9 -4.7,7.4 -10.1,14.5 -16,21.1 -30.8,34.1 -79.4,54 -123.9,42.9 -24.6,29.6 -62.6,47.1 -100.5,49.2 -38,2.1 -75.7,-9.8 -108.8,-28.7 -64.5,-36.7 -114.9,-93.5 -131.4,-172.5 -3.6,-17 -5.4,-34.5 -5.7,-52.3" /><path
         id="path448"
         style="fill:#603a17;fill-opacity:1;fill-rule:nonzero;stroke:none"
         d="m 5157.5,3631.5 c 1.8,6.9 4,13.7 6.5,20.4 12.3,32.5 32.3,61.7 55.3,87.8 34.7,39.8 77.8,74.1 128.7,88.3 50.9,14.1 110,5.2 148,-31.5 48,20.4 106.9,9.3 147.7,-24.6 -4.7,7.4 -10.1,14.5 -16,21.1 -30.8,34.1 -79.4,54 -123.9,42.9 -24.6,29.6 -62.6,47.1 -100.5,49.2 -38,2.1 -75.7,-9.8 -108.8,-28.7 -64.5,-36.7 -114.9,-93.5 -131.4,-172.5 -3.5,-17.1 -5.3,-34.6 -5.6,-52.4" /><path
         id="path450"
         style="fill:#da8051;fill-opacity:1;fill-rule:nonzero;stroke:none"
         d="m 5616.83,3511.24 c 39.86,10.2 78.21,-5.12 85.66,-34.23 7.45,-29.11 -18.82,-60.98 -58.68,-71.18 -39.86,-10.2 -78.22,5.12 -85.67,34.23 -7.45,29.1 18.82,60.97 58.69,71.18" /><path
         id="path452"
         style="fill:#371e15;fill-opacity:1;fill-rule:nonzero;stroke:none"
         d="m 5427.1,3465.9 c 5.25,0 9.5,-6.81 9.5,-15.2 0,-8.39 -4.25,-15.2 -9.5,-15.2 -5.25,0 -9.5,6.81 -9.5,15.2 0,8.39 4.25,15.2 9.5,15.2" /><path
         id="path454"
         style="fill:#371e15;fill-opacity:1;fill-rule:nonzero;stroke:none"
         d="m 5252.6,3465.9 c 5.25,0 9.5,-6.81 9.5,-15.2 0,-8.39 -4.25,-15.2 -9.5,-15.2 -5.25,0 -9.5,6.81 -9.5,15.2 0,8.39 4.25,15.2 9.5,15.2" /><path
         id="path456"
         style="fill:none;stroke:#392116;stroke-width:20;stroke-linecap:round;stroke-linejoin:miter;stroke-miterlimit:10;stroke-dasharray:none;stroke-opacity:1"
         d="m 5280.6,3542.8 c -18.2,6.3 -39.1,4.7 -56.1,-4.5" /><path
         id="path458"
         style="fill:none;stroke:#392116;stroke-width:20;stroke-linecap:round;stroke-linejoin:miter;stroke-miterlimit:10;stroke-dasharray:none;stroke-opacity:1"
         d="m 5412.3,3534.9 c 20.4,8.9 45.3,6.4 63.6,-6.2" /><path
         id="path460"
         style="fill:none;stroke:#a73839;stroke-width:20;stroke-linecap:round;stroke-linejoin:miter;stroke-miterlimit:10;stroke-dasharray:none;stroke-opacity:1"
         d="m 5317.9,3439.1 c -1.6,-9.8 -1.5,-33.2 0.2,-42.7" /><path
         id="path462"
         style="fill:none;stroke:#a73839;stroke-width:20;stroke-linecap:round;stroke-linejoin:miter;stroke-miterlimit:10;stroke-dasharray:none;stroke-opacity:1"
         d="m 5328.6,3354.2 c 26.5,-10.5 54.2,-4.8 68.5,16.9" /><path
         id="path464"
         style="fill:#f793b0;fill-opacity:1;fill-rule:nonzero;stroke:none"
         d="m 2254.4,4403.9 c 202.63,0 366.9,-164.27 366.9,-366.9 0,-202.63 -164.27,-366.9 -366.9,-366.9 -202.63,0 -366.9,164.27 -366.9,366.9 0,202.63 164.27,366.9 366.9,366.9" /><path
         id="path466"
         style="fill:#b82224;fill-opacity:1;fill-rule:nonzero;stroke:none"
         d="m 2014.7,4160.4 c 80.3,149.6 239.1,-51.2 239.1,-51.2 0,0 159.1,171.6 239.1,60.1 83.1,-115.7 -239.1,-385.2 -239.1,-385.2 0,0 -307.4,249 -239.1,376.3" /><path
         id="path468"
         style="fill:none;stroke:#ffffff;stroke-width:10;stroke-linecap:round;stroke-linejoin:miter;stroke-miterlimit:10;stroke-dasharray:none;stroke-opacity:1"
         d="m 1988.2,3992.5 111.3,-1.2 34.6,135.4 71.3,-257.4 56.4,311.8 61.3,-280.8 36.6,203.6 39.2,-106.8 121.7,-3.3" /><path
         id="path470"
         style="fill:#f793b0;fill-opacity:1;fill-rule:nonzero;stroke:none"
         d="m 3270,3840.2 c 207.11,0 375,-167.89 375,-375 0,-207.11 -167.89,-375 -375,-375 -207.11,0 -375,167.89 -375,375 0,207.11 167.89,375 375,375" /><path
         id="path472"
         style="fill:#ffffff;fill-opacity:1;fill-rule:nonzero;stroke:none"
         d="m 3470.1,3448.6 -287,-164.4 c -54.6,-31.3 -124.2,-12.4 -155.4,42.1 -15.6,27.3 -18.7,58.3 -11.1,86.5 7.6,28.2 25.9,53.3 53.3,69 l 287,164.4 c 54.5,31.2 124.1,12.3 155.4,-42.3 15.6,-27.3 18.7,-58.3 11,-86.4 -7.6,-28.2 -25.9,-53.3 -53.2,-68.9" /><path
         id="path474"
         style="fill:#b82224;fill-opacity:1;fill-rule:nonzero;stroke:none"
         d="m 3470.1,3448.6 -143.6,-82.2 -113.2,197.6 143.6,82.2 c 54.5,31.2 124.1,12.3 155.4,-42.3 15.6,-27.3 18.7,-58.3 11,-86.4 -7.6,-28.2 -25.9,-53.3 -53.2,-68.9" /><path
         id="path476"
         style="fill:#f793b0;fill-opacity:1;fill-rule:nonzero;stroke:none"
         d="m 4223.7,4523.9 c 202.63,0 366.9,-164.27 366.9,-366.9 0,-202.63 -164.27,-366.9 -366.9,-366.9 -202.63,0 -366.9,164.27 -366.9,366.9 0,202.63 164.27,366.9 366.9,366.9" /><path
         id="path478"
         style="fill:#ffffff;fill-opacity:1;fill-rule:nonzero;stroke:none"
         d="m 4410.7,4341.1 v -251.5 c 0,-61.3 -31.1,-118.7 -83,-152.5 l -104,-60.7 -95.4,61.9 c -56.8,32.8 -91.7,93 -91.7,157.9 v 244.9 l 185.8,53.2 1.3,-0.4 187,-52.8" /><path
         id="path480"
         style="fill:#f4e3e7;fill-opacity:1;fill-rule:nonzero;stroke:none"
         d="m 4410.7,4341.1 v -251.5 c 0,-61.3 -31.1,-118.7 -83,-152.5 l -104,-60.7 v 517.5 l 187,-52.8" /><path
         id="path482"
         style="fill:#b82224;fill-opacity:1;fill-rule:nonzero;stroke:none"
         d="m 4180.5,4277.5 h 86.3 v -284.2 h -86.3 v 284.2" /><path
         id="path484"
         style="fill:#b82224;fill-opacity:1;fill-rule:nonzero;stroke:none"
         d="m 4365.71,4178.52 v -86.3 h -284.2 v 86.3 h 284.2" /></g></g></svg>