<?xml version="1.0" encoding="UTF-8" standalone="no"?>
<!-- Created with Inkscape (http://www.inkscape.org/) -->

<svg
   xmlns:dc="http://purl.org/dc/elements/1.1/"
   xmlns:cc="http://creativecommons.org/ns#"
   xmlns:rdf="http://www.w3.org/1999/02/22-rdf-syntax-ns#"
   xmlns:svg="http://www.w3.org/2000/svg"
   xmlns="http://www.w3.org/2000/svg"
   xmlns:sodipodi="http://sodipodi.sourceforge.net/DTD/sodipodi-0.dtd"
   xmlns:inkscape="http://www.inkscape.org/namespaces/inkscape"
   width="150"
   height="22"
   viewBox="0 0 39.687502 5.8208334"
   version="1.1"
   id="svg4718"
   inkscape:version="0.92.3 (2405546, 2018-03-11)"
   sodipodi:docname="indorelawan-white.svg">
  <defs
     id="defs4712" />
  <sodipodi:namedview
     id="base"
     pagecolor="#ffffff"
     bordercolor="#666666"
     borderopacity="1.0"
     inkscape:pageopacity="0.0"
     inkscape:pageshadow="2"
     inkscape:zoom="7.919596"
     inkscape:cx="180.73751"
     inkscape:cy="3.1637679"
     inkscape:document-units="mm"
     inkscape:current-layer="layer1"
     showgrid="false"
     fit-margin-top="0"
     fit-margin-left="0"
     fit-margin-right="0"
     fit-margin-bottom="0"
     inkscape:window-width="1920"
     inkscape:window-height="1018"
     inkscape:window-x="0"
     inkscape:window-y="36"
     inkscape:window-maximized="1"
     units="px" />
  <metadata
     id="metadata4715">
    <rdf:RDF>
      <cc:Work
         rdf:about="">
        <dc:format>image/svg+xml</dc:format>
        <dc:type
           rdf:resource="http://purl.org/dc/dcmitype/StillImage" />
        <dc:title></dc:title>
      </cc:Work>
    </rdf:RDF>
  </metadata>
  <g
     inkscape:label="Layer 1"
     inkscape:groupmode="layer"
     id="layer1"
     transform="translate(-32.49336,-8.3932513)">
    <g
       id="g67"
       style="fill:#ffffff"
       transform="matrix(0.74891854,0,0,0.74891854,8.15848,2.1677513)">
      <g
         style="fill:#ffffff"
         transform="matrix(0.35277777,0,0,-0.35277777,33.904118,14.884609)"
         id="g30">
        <path
           inkscape:connector-curvature="0"
           id="path32"
           style="fill:#ffffff;fill-opacity:1;fill-rule:nonzero;stroke:none"
           d="m 0,0 h -3.999 l 3.444,17.151 h 3.999 z" />
      </g>
      <g
         style="fill:#ffffff"
         transform="matrix(0.35277777,0,0,-0.35277777,39.061763,12.046371)"
         id="g42">
        <path
           inkscape:connector-curvature="0"
           id="path44"
           style="fill:#ffffff;fill-opacity:1;fill-rule:nonzero;stroke:none"
           d="m 0,0 -1.614,-8.045 h -3.758 l 1.566,7.828 c 0.048,0.217 0.073,0.458 0.073,0.651 0,0.867 -0.603,1.228 -1.084,1.228 -0.868,0 -1.711,-0.433 -1.999,-1.879 l -1.567,-7.828 h -3.758 l 2.578,12.959 h 3.589 L -6.19,3.782 c 0.818,0.819 2.046,1.277 3.179,1.277 1.277,0 3.18,-0.868 3.18,-3.565 C 0.169,0.964 0.096,0.434 0,0" />
      </g>
      <g
         style="fill:#ffffff"
         transform="matrix(0.35277777,0,0,-0.35277777,41.661453,11.46002)"
         id="g46">
        <path
           inkscape:connector-curvature="0"
           id="path48"
           style="fill:#ffffff;fill-opacity:1;fill-rule:nonzero;stroke:none"
           d="m 0,0 c -1.397,0 -1.807,-1.036 -2.24,-3.228 -0.121,-0.602 -0.266,-1.469 -0.266,-1.951 0,-0.385 0.049,-1.277 1.133,-1.277 1.396,0 1.807,1.036 2.24,3.228 0.12,0.603 0.265,1.47 0.265,1.951 C 1.132,-0.891 1.084,0 0,0 m 3.324,-9.708 h -3.613 l 0.217,1.084 c -0.699,-0.77 -1.735,-1.228 -2.963,-1.228 -2.698,0 -3.397,2.072 -3.397,3.396 0,0.892 0.169,1.952 0.434,3.228 0.578,2.891 1.06,4.48 1.976,5.396 0.987,0.988 2.095,1.228 3.203,1.228 1.156,0 2.143,-0.409 2.77,-1.18 l 1.035,5.227 h 3.758 z" />
      </g>
      <g
         style="fill:#ffffff"
         transform="matrix(0.35277777,0,0,-0.35277777,46.019847,11.46002)"
         id="g50">
        <path
           inkscape:connector-curvature="0"
           id="path52"
           style="fill:#ffffff;fill-opacity:1;fill-rule:nonzero;stroke:none"
           d="m 0,0 c -0.481,0 -0.866,-0.145 -1.156,-0.434 -0.53,-0.505 -0.819,-1.469 -1.083,-2.794 -0.241,-1.276 -0.266,-1.71 -0.266,-1.878 0,-0.844 0.386,-1.35 1.156,-1.35 0.483,0 0.868,0.145 1.157,0.434 0.53,0.506 0.819,1.47 1.084,2.794 0.241,1.277 0.264,1.71 0.264,1.879 C 1.156,-0.506 0.771,0 0,0 M 4.625,-3.228 C 4.144,-5.805 3.565,-7.13 2.385,-8.311 1.47,-9.226 0.049,-9.852 -1.734,-9.852 c -2.241,0 -4.504,1.373 -4.504,4.288 0,0.795 0.144,1.734 0.264,2.336 0.483,2.578 1.06,3.903 2.241,5.083 0.915,0.915 2.337,1.541 4.119,1.541 2.24,0 4.505,-1.373 4.505,-4.287 0,-0.795 -0.145,-1.734 -0.266,-2.337" />
      </g>
      <g
         style="fill:#ffffff"
         transform="matrix(0.35277777,0,0,-0.35277777,50.846059,11.723402)"
         id="g54">
        <path
           inkscape:connector-curvature="0"
           id="path56"
           style="fill:#ffffff;fill-opacity:1;fill-rule:nonzero;stroke:none"
           d="m 0,0 c -0.169,0.168 -0.481,0.723 -1.204,0.723 -0.867,0 -1.759,-0.699 -2,-1.928 l -1.542,-7.756 h -3.757 l 2.577,12.96 h 3.613 L -2.529,2.89 c 0.675,0.771 1.854,1.253 3.083,1.253 1.228,0 2.023,-0.385 2.721,-1.228 z" />
      </g>
      <g
         style="fill:#ffffff"
         transform="matrix(0.35277777,0,0,-0.35277777,53.904605,11.349599)"
         id="g58">
        <path
           inkscape:connector-curvature="0"
           id="path60"
           style="fill:#ffffff;fill-opacity:1;fill-rule:nonzero;stroke:none"
           d="M 0,0 C -0.987,0 -1.879,-0.602 -2.36,-2.264 H 1.421 C 1.47,-2.071 1.493,-1.782 1.493,-1.638 1.493,-0.65 0.987,0 0,0 m 4.625,-4.745 h -7.468 c -0.023,-0.241 -0.048,-0.361 -0.048,-0.53 0,-1.036 0.626,-1.734 1.904,-1.734 1.084,0 1.974,0.433 2.769,1.204 l 1.879,-2.457 c -1.301,-1.253 -3.203,-1.903 -5.106,-1.903 -2.096,0 -5.011,0.964 -5.011,4.601 0,4.601 2.289,8.647 6.673,8.647 2.746,0 4.842,-1.734 4.842,-4.721 0,-0.987 -0.193,-2.095 -0.434,-3.107" />
      </g>
      <g
         style="fill:#ffffff"
         transform="matrix(0.35277777,0,0,-0.35277777,57.328702,13.44009)"
         id="g62">
        <path
           inkscape:connector-curvature="0"
           id="path64"
           style="fill:#ffffff;fill-opacity:1;fill-rule:nonzero;stroke:none"
           d="m 0,0 c -0.024,-0.144 -0.049,-0.217 -0.049,-0.361 0,-0.361 0.241,-0.554 0.698,-0.554 h 1.373 l -0.649,-3.18 h -1.855 c -2.144,0 -3.372,1.325 -3.372,3.012 0,0.385 0.024,0.698 0.096,1.059 l 2.602,13.08 h 3.758 z" />
      </g>
      <g
         style="fill:#ffffff"
         transform="matrix(0.35277777,0,0,-0.35277777,60.166411,13.006526)"
         id="g66">
        <path
           inkscape:connector-curvature="0"
           id="path68"
           style="fill:#ffffff;fill-opacity:1;fill-rule:nonzero;stroke:none"
           d="m 0,0 c -1.084,0 -1.614,-0.747 -1.614,-1.47 0,-0.53 0.385,-0.963 1.133,-0.963 0.698,0 1.252,0.313 1.613,0.675 0.337,0.337 0.53,0.866 0.627,1.397 L 1.831,0 Z M 6.167,2.842 4.528,-5.324 H 0.915 l 0.217,1.06 c -0.603,-0.602 -1.518,-1.18 -2.819,-1.18 -2.36,0 -3.613,1.782 -3.613,3.541 0,1.373 0.434,2.409 1.156,3.108 0.916,0.891 2.29,1.3 3.783,1.3 h 2.697 l 0.097,0.457 c 0.048,0.193 0.072,0.338 0.072,0.555 0,0.65 -0.409,1.132 -1.541,1.132 -1.085,0 -1.928,-0.482 -2.409,-1.036 l -1.879,2.505 c 0.987,0.94 2.36,1.662 4.889,1.662 2.362,0 4.746,-1.011 4.746,-3.734 0,-0.385 -0.073,-0.842 -0.144,-1.204" />
      </g>
      <g
         style="fill:#ffffff"
         transform="matrix(0.35277777,0,0,-0.35277777,66.963946,14.884609)"
         id="g70">
        <path
           inkscape:connector-curvature="0"
           id="path72"
           style="fill:#ffffff;fill-opacity:1;fill-rule:nonzero;stroke:none"
           d="M 0,0 H -2.843 L -3.758,7.227 -7.491,0 h -2.939 l -1.133,12.959 h 3.734 l 0.266,-6.841 3.444,6.841 h 2.649 l 0.795,-6.841 2.819,6.841 h 3.999 z" />
      </g>
      <g
         style="fill:#ffffff"
         transform="matrix(0.35277777,0,0,-0.35277777,70.370438,13.006526)"
         id="g74">
        <path
           inkscape:connector-curvature="0"
           id="path76"
           style="fill:#ffffff;fill-opacity:1;fill-rule:nonzero;stroke:none"
           d="m 0,0 c -1.084,0 -1.614,-0.747 -1.614,-1.47 0,-0.53 0.385,-0.963 1.133,-0.963 0.698,0 1.252,0.313 1.613,0.675 0.338,0.337 0.53,0.866 0.627,1.397 L 1.831,0 Z M 6.167,2.842 4.528,-5.324 H 0.915 l 0.217,1.06 c -0.602,-0.602 -1.517,-1.18 -2.819,-1.18 -2.36,0 -3.613,1.782 -3.613,3.541 0,1.373 0.434,2.409 1.156,3.108 0.916,0.891 2.29,1.3 3.783,1.3 h 2.698 l 0.096,0.457 c 0.048,0.193 0.072,0.338 0.072,0.555 0,0.65 -0.409,1.132 -1.541,1.132 -1.084,0 -1.928,-0.482 -2.409,-1.036 l -1.879,2.505 c 0.987,0.94 2.36,1.662 4.889,1.662 2.362,0 4.747,-1.011 4.747,-3.734 0,-0.385 -0.073,-0.842 -0.145,-1.204" />
      </g>
      <g
         style="fill:#ffffff"
         transform="matrix(0.35277777,0,0,-0.35277777,76.964032,12.046371)"
         id="g78">
        <path
           inkscape:connector-curvature="0"
           id="path80"
           style="fill:#ffffff;fill-opacity:1;fill-rule:nonzero;stroke:none"
           d="m 0,0 -1.614,-8.045 h -3.758 l 1.566,7.828 c 0.048,0.217 0.073,0.458 0.073,0.651 0,0.867 -0.603,1.228 -1.084,1.228 -0.868,0 -1.711,-0.433 -1.999,-1.879 l -1.567,-7.828 h -3.758 l 2.578,12.959 h 3.589 L -6.19,3.782 c 0.818,0.819 2.046,1.277 3.179,1.277 1.277,0 3.18,-0.868 3.18,-3.565 C 0.169,0.964 0.097,0.434 0,0" />
      </g>
      <g
         style="fill:#ffffff"
         transform="matrix(0.35277777,0,0,-0.35277777,77.567599,14.900625)"
         id="g82">
        <path
           inkscape:connector-curvature="0"
           id="path84"
           style="fill:#ffffff;fill-opacity:1;fill-rule:nonzero;stroke:none"
           d="m 0,0 c -0.453,0 -0.831,0.378 -0.831,0.832 0,0.454 0.378,0.832 0.831,0.832 0.454,0 0.848,-0.378 0.848,-0.832 C 0.848,0.378 0.454,0 0,0" />
      </g>
      <g
         style="fill:#ffffff"
         transform="matrix(0.35277777,0,0,-0.35277777,79.866863,12.553313)"
         id="g86">
        <path
           inkscape:connector-curvature="0"
           id="path88"
           style="fill:#ffffff;fill-opacity:1;fill-rule:nonzero;stroke:none"
           d="m 0,0 c -0.515,0 -1.044,-0.227 -1.392,-0.574 -0.453,-0.454 -0.755,-1.074 -0.998,-2.299 -0.105,-0.544 -0.166,-1.013 -0.166,-1.315 0,-1.15 0.711,-1.574 1.437,-1.574 0.514,0 1.043,0.242 1.391,0.59 0.454,0.454 0.756,1.074 0.999,2.299 0.105,0.544 0.166,0.998 0.166,1.301 C 1.437,-0.423 0.726,0 0,0 M 2.344,-2.873 C 2.026,-4.506 1.542,-5.338 0.938,-5.883 0.317,-6.442 -0.438,-6.699 -1.195,-6.699 c -0.847,0 -2.405,0.424 -2.405,2.48 0,0.454 0.077,0.998 0.137,1.346 0.317,1.633 0.801,2.465 1.406,3.01 0.62,0.559 1.376,0.801 2.132,0.801 0.847,0 2.404,-0.409 2.404,-2.465 0,-0.453 -0.075,-0.998 -0.135,-1.346" />
      </g>
      <g
         style="fill:#ffffff"
         transform="matrix(0.35277777,0,0,-0.35277777,82.901634,12.739863)"
         id="g90">
        <path
           inkscape:connector-curvature="0"
           id="path92"
           style="fill:#ffffff;fill-opacity:1;fill-rule:nonzero;stroke:none"
           d="m 0,0 c -0.196,0.257 -0.515,0.529 -1.059,0.529 -1.058,0 -1.935,-0.892 -2.163,-2.042 L -4.129,-6.08 h -1.059 l 1.483,7.456 h 1.043 L -2.843,0.469 c 0.453,0.619 1.195,0.998 2.087,0.998 0.711,0 1.225,-0.242 1.617,-0.696 z" />
      </g>
      <g
         style="fill:#ffffff"
         transform="matrix(0.35277777,0,0,-0.35277777,84.389579,12.553313)"
         id="g94">
        <path
           inkscape:connector-curvature="0"
           id="path96"
           style="fill:#ffffff;fill-opacity:1;fill-rule:nonzero;stroke:none"
           d="m 0,0 c -1.467,0 -2.026,-1.331 -2.314,-2.828 -0.091,-0.468 -0.166,-0.922 -0.166,-1.3 0,-0.847 0.302,-1.513 1.345,-1.513 1.437,0 2.027,1.347 2.315,2.828 0.09,0.469 0.166,0.923 0.166,1.301 C 1.346,-0.499 0.877,0 0,0 m 1.437,-6.775 c -0.53,-2.677 -2.224,-3.236 -3.479,-3.236 -1.014,0 -1.724,0.333 -2.283,0.998 l 0.756,0.666 c 0.333,-0.409 0.756,-0.757 1.527,-0.757 1.059,0 2.071,0.636 2.435,2.329 l 0.242,1.15 c -0.469,-0.59 -1.073,-0.953 -2.057,-0.953 -1.331,0 -2.132,0.832 -2.132,2.298 0,0.363 0.045,0.832 0.166,1.467 0.242,1.301 0.59,2.314 1.255,2.98 0.575,0.575 1.301,0.771 1.996,0.771 0.711,0 1.483,-0.212 1.875,-1.043 L 1.92,0.847 h 1.044 z" />
      </g>
    </g>
  </g>
</svg>
