<?xml version="1.0" ?><svg id="Icons" viewBox="0 0 60 60" xmlns="http://www.w3.org/2000/svg"><defs><style>.cls-1{fill:#d6dbe3;}.cls-2{fill:#8991a0;}.cls-3{fill:#b9bfcc;}.cls-4{fill:#31b5a5;}.cls-5{fill:#373737;}</style></defs><path class="cls-1" d="M11.754,41.15h8.389a0,0,0,0,1,0,0v2.8a3,3,0,0,1-3,3H14.754a3,3,0,0,1-3-3v-2.8a0,0,0,0,1,0,0Z" transform="translate(35.822 1.626) rotate(45.002)"/><polygon class="cls-1" points="22.66 24.01 35.33 11.33 48.67 24.67 41.79 31.55 25 28 22.66 24.01"/><rect class="cls-2" height="16.982" transform="translate(22.543 -30.431) rotate(45.002)" width="8.389" x="43.809" y="3.504"/><path class="cls-3" d="M58.379,10.511a2.078,2.078,0,0,1-2.957,0L49.487,4.576a2.094,2.094,0,1,1,2.967-2.957l5.925,5.924A2.084,2.084,0,0,1,58.379,10.511Z"/><rect class="cls-3" height="4.194" rx="1" transform="translate(24.999 -24.499) rotate(45.001)" width="29.36" x="27.392" y="15.829"/><path class="cls-4" d="M41.79,31.55,27.07,46.27a4.985,4.985,0,0,1-7.07,0L13.73,40a4.985,4.985,0,0,1,0-7.07l8.92-8.92h.01c1.64,1.23,1.95,2.89,4.87,3.7,3.86,1.07,4.58-1.5,8.45-.43C39.39,28.22,39.24,30.34,41.79,31.55Z"/><path class="cls-5" d="M53.161.911a3.162,3.162,0,0,0-4.381,0,3.049,3.049,0,0,0-.58,3.541l-7.611,7.612-6-6a1.99,1.99,0,0,0-1.414-.585h0a1.986,1.986,0,0,0-1.412.585L30.21,7.614a2,2,0,0,0,0,2.829L32.5,12.736l-3,3h0l-11.12,11.12h0l0,0-3.7,3.7h0l0,0-1.652,1.653a5.989,5.989,0,0,0-.5,7.912l-.174.175a4,4,0,0,0,0,5.657l.137.138L.293,58.293a1,1,0,1,0,1.414,1.414L13.9,47.517l.137.136a4,4,0,0,0,5.657,0l.175-.174a5.989,5.989,0,0,0,7.912-.5L45.052,29.707a1,1,0,0,0-1.414-1.414l-2.014,2.014a6.843,6.843,0,0,1-1.376-1.321,7.694,7.694,0,0,0-8.809-2.441A5.714,5.714,0,0,1,24.771,24.7c-.21-.243-.425-.49-.664-.736L26.5,21.565l2.258,2.259a1,1,0,0,0,1.414-1.414l-2.258-2.259,2.293-2.293,2.259,2.258A1,1,0,0,0,33.882,18.7l-2.259-2.259,2.293-2.292L49.555,29.79a2,2,0,0,0,2.828,0l1.552-1.552a2,2,0,0,0,0-2.828l-6-6,7.61-7.61a3.089,3.089,0,0,0,3.542-4.963ZM18.277,46.239a2.048,2.048,0,0,1-2.829,0L13.76,44.551a2,2,0,0,1,0-2.829l.137-.137L18.414,46.1ZM23.26,26.006a7.694,7.694,0,0,0,8.8,2.44,5.709,5.709,0,0,1,6.673,1.847A9.8,9.8,0,0,0,40.2,31.73L26.364,45.566a4.1,4.1,0,0,1-5.657,0l-.171-.17L14.6,39.464l-.171-.172a4,4,0,0,1,0-5.657l.947-.948,2.259,2.259a1,1,0,0,0,1.414-1.414l-2.259-2.259,2.293-2.293,2.259,2.258a1,1,0,0,0,1.414-1.414L20.5,27.566l2.19-2.19C22.886,25.577,23.071,25.788,23.26,26.006Zm27.71,2.371h0L34.623,12.03h0l-3-3,1.552-1.551L52.521,26.824ZM46.521,18l-1.552-1.552,5.224-5.224a1,1,0,1,0-1.414-1.414l-5.224,5.224L42,13.478l7.483-7.484L54,10.512ZM57.676,9.8l0,0a1.1,1.1,0,0,1-1.543,0L50.194,3.867a1.089,1.089,0,0,1,0-1.541,1.09,1.09,0,0,1,1.554,0l5.929,5.929a1.084,1.084,0,0,1,0,1.546Z"/></svg>