<?xml version="1.0" ?><svg viewBox="0 0 64 64" xmlns="http://www.w3.org/2000/svg"><g data-name="Fill Outline" id="Fill_Outline"><g data-name="Stroke copy" id="Stroke_copy"><g><g><rect height="11" style="fill: #fcbc04" transform="translate(14.924 -22.897) rotate(30)" width="8" x="46.188" y="10.9"/><path d="M49.474,9.637l-.933,1.616,2.83,1.634L50.9,13.7a4,4,0,0,1-4.793,1.766l-2.135,3.7,6.928,4,5.5-9.526Z" style="fill: #e59730"/><rect height="4" style="fill: #f9e109" transform="translate(12.179 -25.642) rotate(30)" width="14" x="46.938" y="7.905"/><rect height="34" style="fill: #84d2f4" transform="translate(22.427 -15.393) rotate(30)" width="14" x="32.938" y="17.153"/><rect height="6" style="fill: #f8664f" transform="translate(29.748 -8.073) rotate(30)" width="4" x="27.938" y="48.474"/><path d="M48.469,19.449l-10.969,19A8,8,0,0,1,27.439,41.8l-2.063,3.573,12.124,7,17-29.445Z" style="fill: #57b7eb"/><rect height="20" style="fill: #f89c8d" transform="translate(24.989 -12.831) rotate(30)" width="14" x="29.438" y="30.215"/><path d="M41.469,31.573,37.5,38.447A8,8,0,0,1,27.439,41.8l-2.063,3.573,12.124,7,10-17.321Z" style="fill: #f8664f"/><rect height="10" style="fill: #f9e109" transform="translate(18.035 -19.786) rotate(30)" width="6" x="42.938" y="18.761"/><rect height="4" style="fill: #f9e109" transform="translate(20.597 -17.223) rotate(30)" width="14" x="35.438" y="27.823"/><rect height="2.964" style="fill: #fcbc04" transform="translate(2.391 53.182) rotate(-60)" width="10" x="42.252" y="23.038"/><polygon points="49.5 31.591 46.036 29.591 46.036 29.591 43.469 28.109 41.469 31.573 47.5 35.055 49.5 31.591" style="fill: #fcbc04"/><path d="M29.706,47.876l-.945,1.636a2.99,2.99,0,0,1,.909,3.962l-.567.982,1.067.616,3-5.2Z" style="fill: #cc5144"/><path d="M59.384,10.739,59,11.4a2,2,0,0,1-2.732.733L47.492,7.07l-.616,1.067,12.124,7,2-3.465Z" style="fill: #fcbc04"/></g><circle cx="9" cy="44" r="6" style="fill: #f89c8d"/><g><rect height="4" rx="2" style="fill: #f89c8d" width="10" x="47" y="43"/><path d="M55,48.2V47H49v1.2A3.37,3.37,0,0,1,47.5,51h0A3.37,3.37,0,0,0,46,53.8V59a2,2,0,0,0,2,2h8a2,2,0,0,0,2-2V53.8A3.37,3.37,0,0,0,56.5,51h0A3.37,3.37,0,0,1,55,48.2Z" style="fill: #84d2f4"/><path d="M46,53.8V57H58V53.8a3.358,3.358,0,0,0-.1-.8H46.1A3.358,3.358,0,0,0,46,53.8Z" style="fill: #f89c8d"/><path d="M49,54v-.2A3.37,3.37,0,0,1,50.5,51a3.323,3.323,0,0,0,.333-.254,10.515,10.515,0,0,1,4.2-2.275c-.008-.092-.034-.18-.034-.274V47H49v1.2A3.37,3.37,0,0,1,47.5,51,3.37,3.37,0,0,0,46,53.8V59a2,2,0,0,0,2,2h8a2,2,0,0,0,2-2H54A5,5,0,0,1,49,54Z" style="fill: #57b7eb"/><path d="M49,54v-.2a3.358,3.358,0,0,1,.1-.8h-3a3.358,3.358,0,0,0-.1.8V57h4.023A4.956,4.956,0,0,1,49,54Z" style="fill: #f8664f"/><path d="M49,43a2,2,0,0,0,0,4h6a2,2,0,0,0,2-2H51A2,2,0,0,1,49,43Z" style="fill: #f8664f"/></g><g><circle cx="16" cy="16" r="13" style="fill: #f9e109"/><path d="M23,24A12.988,12.988,0,0,1,12.377,3.522,13,13,0,1,0,26.623,23.478,12.972,12.972,0,0,1,23,24Z" style="fill: #fcbc04"/><circle cx="16" cy="16" r="6" style="fill: #c4f236"/><path d="M19,19a5.993,5.993,0,0,1-5.466-8.466,6,6,0,1,0,7.932,7.932A5.974,5.974,0,0,1,19,19Z" style="fill: #a1d51c"/><path d="M16.084,21.994a13,13,0,0,1-5.724-8A5.967,5.967,0,0,0,16,22C16.029,22,16.055,21.994,16.084,21.994Z" style="fill: #7ab92d"/></g><path d="M12,48a6,6,0,0,1-4.673-9.759,6,6,0,1,0,6.346,9.518A6,6,0,0,1,12,48Z" style="fill: #f8664f"/></g></g><g data-name="Outline copy" id="Outline_copy"><g><path d="M61.5,10.806l-12.124-7a1,1,0,0,0-1.366.366l-2,3.465A1,1,0,0,0,46.376,9l8.66,5-3.5,6.062-5.2-3,2.267-3.927a1,1,0,0,0-1.732-1l-2.267,3.927-1.732-1a1,1,0,0,0-1.366.367l-17,29.444a1,1,0,0,0,.366,1.367l3.464,2-2.5,4.33a1,1,0,0,0,.366,1.366l.865.5-3.5,6.062a1,1,0,0,0,1.733,1l3.5-6.062.866.5a1,1,0,0,0,.5.134.99.99,0,0,0,.259-.034,1,1,0,0,0,.607-.466l2.5-4.33,3.464,2a1,1,0,0,0,1.366-.367l2.5-4.333a1,1,0,1,0-1.732-1l-2,3.467-10.392-6,1-1.731,2.6,1.5a1,1,0,0,0,1-1.733l-2.6-1.5,1-1.732,4.33,2.5a1,1,0,1,0,1-1.732l-4.33-2.5,1-1.731,2.6,1.5a1,1,0,0,0,1-1.733l-2.6-1.5,1-1.732,4.33,2.5a1,1,0,1,0,1-1.732l-4.33-2.5,1-1.732,10.392,6-5,8.657a1,1,0,0,0,1.732,1l12.5-21.647A1,1,0,0,0,55,22.064l-1.732-1L56.768,15,58.5,16a1,1,0,0,0,1-1.732l-2.6-1.5h0l-8.66-5,1-1.732,11.258,6.5a1,1,0,0,0,1-1.733ZM31.8,50.242l-2,3.464-1.732-1,2-3.464.866.5ZM42.742,17.3l1.731,1h0l-4,6.927-1.732-1Zm-5.333,9.237.333-.577,2.6,1.5h0l2.6,1.5,5.2,3-1,1.732-10.392-6Zm11.725,3.691-1.732-1L49.8,25.078a1,1,0,0,0-1.733-1L45.67,28.225l-3.464-2,4-6.928,6.928,4Z" style="fill: #323232"/><path d="M11.207,41.793a1,1,0,0,0-1.414,0L9,42.586l-.793-.793a1,1,0,1,0-1.414,1.414L7.586,44l-.793.793a1,1,0,1,0,1.414,1.414L9,45.414l.793.793a1,1,0,0,0,1.414-1.414L10.414,44l.793-.793A1,1,0,0,0,11.207,41.793Z" style="fill: #323232"/><circle cx="16" cy="58" r="1" style="fill: #323232"/><circle cx="12" cy="57" r="1" style="fill: #323232"/><circle cx="20" cy="59" r="1" style="fill: #323232"/><circle cx="9" cy="54" r="1" style="fill: #323232"/><circle cx="7" cy="34" r="1" style="fill: #323232"/><circle cx="9" cy="31" r="1" style="fill: #323232"/><path d="M9,37a7,7,0,1,0,7,7A7.008,7.008,0,0,0,9,37ZM9,49a5,5,0,1,1,5-5A5.006,5.006,0,0,1,9,49Z" style="fill: #323232"/><path d="M57.055,50.168A2.365,2.365,0,0,1,56,48.2v-.381A2.993,2.993,0,0,0,55,42H49a2.993,2.993,0,0,0-1,5.816V48.2a2.365,2.365,0,0,1-1.055,1.971A4.36,4.36,0,0,0,45,53.8V59a3,3,0,0,0,3,3h8a3,3,0,0,0,3-3V53.8A4.36,4.36,0,0,0,57.055,50.168ZM49,44h6a1,1,0,0,1,0,2H49a1,1,0,0,1,0-2Zm-.945,7.832A4.36,4.36,0,0,0,50,48.2V48h4v.2a4.36,4.36,0,0,0,1.945,3.635,2.239,2.239,0,0,1,.2.168H50.1a1,1,0,1,0,0,2H57v2H47V53.8A2.365,2.365,0,0,1,48.055,51.832ZM56,60H48a1,1,0,0,1-1-1V58H57v1A1,1,0,0,1,56,60Z" style="fill: #323232"/><path d="M10.851,11.274a2.974,2.974,0,0,0-2.216-.8l-.493.032a1,1,0,0,0-.934,1.062.986.986,0,0,0,1.063.934l.493-.032A.969.969,0,0,1,9.687,13a6.947,6.947,0,0,0-.53,1.537,2.958,2.958,0,0,0-2.864.758,1,1,0,0,0,1.414,1.416.956.956,0,0,1,1.11-.181l.215.107a6.982,6.982,0,0,0,.31,1.517,2.953,2.953,0,0,0-2.1,2.09,1,1,0,0,0,.707,1.225,1.015,1.015,0,0,0,.26.034,1,1,0,0,0,.965-.741.961.961,0,0,1,.871-.712l.245-.014a7.066,7.066,0,0,0,.986,1.115,2.95,2.95,0,0,0-.8,2.218l.032.493a1,1,0,0,0,1,.935c.022,0,.044,0,.066,0a1,1,0,0,0,.933-1.063l-.032-.492A.958.958,0,0,1,13,22.314a6.94,6.94,0,0,0,2.447.658.961.961,0,0,1,0,1.062l-.274.411a1,1,0,0,0,1.664,1.11l.274-.412a2.951,2.951,0,0,0,.414-2.316A6.905,6.905,0,0,0,19,22.315a.958.958,0,0,1,.53.921l-.032.493a1,1,0,0,0,.933,1.063c.022,0,.044,0,.066,0a1,1,0,0,0,1-.935l.032-.494a2.948,2.948,0,0,0-.8-2.212q.22-.2.421-.423a2.947,2.947,0,0,0,2.02.806c.064,0,.129,0,.194-.006l.493-.032a1,1,0,0,0,.934-1.062.989.989,0,0,0-1.063-.934l-.493.032a.958.958,0,0,1-.919-.526,6.961,6.961,0,0,0,.662-2.459.964.964,0,0,1,1.055.008l.411.275a1,1,0,1,0,1.11-1.664l-.411-.274a2.955,2.955,0,0,0-3.288,0l-.411.274A1,1,0,0,0,21,16a5,5,0,1,1-.669-2.5.955.955,0,0,0,.9.5,1,1,0,0,0,.864-.558L22.312,13a.947.947,0,0,1,.924-.534l.493.032a.99.99,0,0,0,1.063-.934,1,1,0,0,0-.934-1.062l-.493-.032a2.987,2.987,0,0,0-2.214.792,6.957,6.957,0,0,0-1.118-.977l.014-.242a.962.962,0,0,1,.712-.872,1,1,0,1,0-.518-1.931,2.957,2.957,0,0,0-2.09,2.1,6.954,6.954,0,0,0-1.595-.312.958.958,0,0,1,0-1.063l.274-.411a1,1,0,0,0-1.664-1.11l-.274.412a2.947,2.947,0,0,0-.414,2.314A6.931,6.931,0,0,0,13,9.686a.957.957,0,0,1-.532-.922l.032-.493a1,1,0,0,0-.933-1.063.984.984,0,0,0-1.063.933l-.032.494a2.949,2.949,0,0,0,.8,2.217Q11.054,11.053,10.851,11.274Z" style="fill: #323232"/><path d="M15,15a1,1,0,0,0-2,0,4,4,0,0,0,4,4,1,1,0,0,0,0-2A2,2,0,0,1,15,15Z" style="fill: #323232"/><circle cx="18" cy="15" r="1" style="fill: #323232"/><path d="M16,30A14,14,0,1,0,7.75,4.705,1,1,0,1,0,8.932,6.319,12.034,12.034,0,1,1,6.319,8.932,1,1,0,1,0,4.706,7.75,13.983,13.983,0,0,0,16,30Z" style="fill: #323232"/></g></g></g></svg>