<?xml version="1.0" ?><svg viewBox="0 0 64 64" xmlns="http://www.w3.org/2000/svg"><g id="Twotone"><g id="Color"><g><g><rect height="11" style="fill: #79bd9a" transform="translate(14.924 -22.897) rotate(30)" width="8" x="46.188" y="10.9"/><rect height="4" style="fill: #79bd9a" transform="translate(12.179 -25.642) rotate(30)" width="14" x="46.938" y="7.905"/><rect height="34" style="fill: #cff09e" transform="translate(22.427 -15.393) rotate(30)" width="14" x="32.938" y="17.153"/><rect height="6" style="fill: #a8dba8" transform="translate(29.748 -8.073) rotate(30)" width="4" x="27.938" y="48.474"/><rect height="20" style="fill: #a8dba8" transform="translate(24.989 -12.831) rotate(30)" width="14" x="29.438" y="30.215"/><rect height="10" style="fill: #79bd9a" transform="translate(18.035 -19.786) rotate(30)" width="6" x="42.938" y="18.761"/><rect height="4" style="fill: #79bd9a" transform="translate(20.597 -17.223) rotate(30)" width="14" x="35.438" y="27.823"/></g><circle cx="9" cy="44" r="6" style="fill: #a8dba8"/><g><rect height="4" rx="2" style="fill: #79bd9a" width="10" x="47" y="43"/><path d="M49,54v-.2A3.37,3.37,0,0,1,50.5,51a3.323,3.323,0,0,0,.333-.254,10.515,10.515,0,0,1,4.2-2.275c-.008-.092-.034-.18-.034-.274V47H49v1.2A3.37,3.37,0,0,1,47.5,51,3.37,3.37,0,0,0,46,53.8V59a2,2,0,0,0,2,2h8a2,2,0,0,0,2-2H54A5,5,0,0,1,49,54Z" style="fill: #cff09e"/><path d="M46,53.8V57H58V53.8a3.358,3.358,0,0,0-.1-.8H46.1A3.358,3.358,0,0,0,46,53.8Z" style="fill: #79bd9a"/></g><g><path d="M16,3A13,13,0,1,0,29,16,13,13,0,0,0,16,3Zm0,19a6,6,0,1,1,6-6A6,6,0,0,1,16,22Z" style="fill: #79bd9a"/><path d="M19,19a5.993,5.993,0,0,1-5.466-8.466,6,6,0,1,0,7.932,7.932A5.974,5.974,0,0,1,19,19Z" style="fill: #cff09e"/></g></g></g><g data-name="Stroke Close copy" id="Stroke_Close_copy"><g><path d="M61.5,10.806l-12.124-7a1,1,0,0,0-1.366.366l-2,3.465A1,1,0,0,0,46.376,9l1.731,1-3.5,6.061-1.732-1a1,1,0,0,0-1.366.367l-17,29.444a1,1,0,0,0,.366,1.367l3.464,2-2.5,4.33a1,1,0,0,0,.366,1.366l.865.5-3.5,6.062a1,1,0,0,0,1.733,1l3.5-6.062.866.5a1,1,0,0,0,.5.134.99.99,0,0,0,.259-.034,1,1,0,0,0,.607-.466l2.5-4.33,3.464,2a1,1,0,0,0,.5.133,1,1,0,0,0,.866-.5l17-29.444A1,1,0,0,0,55,22.064l-1.732-1L56.768,15,58.5,16a1,1,0,0,0,.5.134,1.035,1.035,0,0,0,.259-.034,1,1,0,0,0,.607-.466l2-3.465A1,1,0,0,0,61.5,10.806ZM49.67,21.3l-4,6.928-3.464-2,4-6.928,1.732,1ZM47.134,33.689l-10.392-6,1-1.732,10.392,6ZM42.742,17.3l1.731,1h0l-4,6.927-1.732-1ZM31.8,50.242l-2,3.464-1.732-1,2-3.464.866.5Zm-5.062-5.233,1-1.731,2.6,1.5a1,1,0,0,0,1-1.733l-2.6-1.5,1-1.732,4.33,2.5a1,1,0,1,0,1-1.732l-4.33-2.5,1-1.731,2.6,1.5a1,1,0,0,0,1-1.733l-2.6-1.5,1-1.732,4.33,2.5a1,1,0,1,0,1-1.732l-4.33-2.5,1-1.732,5.2,3,5.2,3-9,15.588ZM49.134,30.225l-1.732-1,4-6.928,1.732,1Zm2.4-10.161-2.6-1.5-2.6-1.5L49.84,11l2.6,1.5,2.6,1.5Zm7.1-6.293-1.731-1h0l-3.464-2-5.2-3,1-1.732,10.392,6Z" style="fill: #3b8686"/><path d="M16,30A14,14,0,1,0,2,16,14.015,14.015,0,0,0,16,30ZM16,4A12,12,0,1,1,4,16,12.013,12.013,0,0,1,16,4Z" style="fill: #3b8686"/><path d="M7.24,20.241a1,1,0,0,0,.707,1.225,1.015,1.015,0,0,0,.26.034,1,1,0,0,0,.965-.741.961.961,0,0,1,.871-.712l.245-.014a7.066,7.066,0,0,0,.986,1.115,2.95,2.95,0,0,0-.8,2.218l.032.493a1,1,0,0,0,1,.935c.022,0,.044,0,.066,0a1,1,0,0,0,.933-1.063l-.032-.492A.958.958,0,0,1,13,22.314a6.94,6.94,0,0,0,2.447.658.961.961,0,0,1,0,1.062l-.274.411a1,1,0,0,0,1.664,1.11l.274-.412a2.947,2.947,0,0,0,.414-2.314A6.931,6.931,0,0,0,19,22.314a.957.957,0,0,1,.532.922l-.032.493a1,1,0,0,0,.933,1.063c.022,0,.044,0,.066,0a1,1,0,0,0,1-.935l.032-.494a2.949,2.949,0,0,0-.8-2.217c.147-.134.287-.275.422-.421a2.945,2.945,0,0,0,2.023.809c.064,0,.129,0,.194-.006l.493-.032a1,1,0,0,0,.934-1.062.989.989,0,0,0-1.063-.934l-.493.032A.961.961,0,0,1,22.313,19a6.931,6.931,0,0,0,.659-2.448.961.961,0,0,1,1.062,0l.411.275a1,1,0,1,0,1.11-1.664l-.411-.274a2.945,2.945,0,0,0-2.315-.414A7.014,7.014,0,0,0,22.314,13a.946.946,0,0,1,.922-.531l.493.032a.99.99,0,0,0,1.063-.934,1,1,0,0,0-.934-1.062l-.493-.032a2.99,2.99,0,0,0-2.214.806,7.107,7.107,0,0,0-1.119-.988l.015-.245a.962.962,0,0,1,.712-.872,1,1,0,1,0-.518-1.931,2.955,2.955,0,0,0-2.09,2.1,6.966,6.966,0,0,0-1.6-.314.961.961,0,0,1,0-1.062l.274-.411a1,1,0,0,0-1.664-1.11l-.274.412a2.947,2.947,0,0,0-.414,2.314A6.931,6.931,0,0,0,13,9.686a.957.957,0,0,1-.532-.922l.032-.493a1,1,0,0,0-.933-1.063.984.984,0,0,0-1.063.933l-.032.494a2.949,2.949,0,0,0,.8,2.217q-.22.2-.423.422a2.974,2.974,0,0,0-2.216-.8l-.493.032a1,1,0,0,0-.934,1.062.986.986,0,0,0,1.063.934l.493-.032A.969.969,0,0,1,9.687,13a6.947,6.947,0,0,0-.53,1.537,2.958,2.958,0,0,0-2.864.758,1,1,0,0,0,1.414,1.416.956.956,0,0,1,1.11-.181l.215.107a6.982,6.982,0,0,0,.31,1.517A2.953,2.953,0,0,0,7.24,20.241ZM16,11a5,5,0,1,1-5,5A5.006,5.006,0,0,1,16,11Z" style="fill: #3b8686"/><path d="M17,19a1,1,0,0,0,0-2,2,2,0,0,1-2-2,1,1,0,0,0-2,0A4,4,0,0,0,17,19Z" style="fill: #3b8686"/><circle cx="18" cy="15" r="1" style="fill: #3b8686"/><path d="M11.207,41.793a1,1,0,0,0-1.414,0L9,42.586l-.793-.793a1,1,0,1,0-1.414,1.414L7.586,44l-.793.793a1,1,0,1,0,1.414,1.414L9,45.414l.793.793a1,1,0,0,0,1.414-1.414L10.414,44l.793-.793A1,1,0,0,0,11.207,41.793Z" style="fill: #3b8686"/><circle cx="16" cy="58" r="1" style="fill: #3b8686"/><circle cx="12" cy="57" r="1" style="fill: #3b8686"/><circle cx="20" cy="59" r="1" style="fill: #3b8686"/><circle cx="9" cy="54" r="1" style="fill: #3b8686"/><circle cx="7" cy="34" r="1" style="fill: #3b8686"/><circle cx="9" cy="31" r="1" style="fill: #3b8686"/><path d="M9,37a7,7,0,1,0,7,7A7.008,7.008,0,0,0,9,37ZM9,49a5,5,0,1,1,5-5A5.006,5.006,0,0,1,9,49Z" style="fill: #3b8686"/><path d="M57.055,50.168A2.365,2.365,0,0,1,56,48.2v-.381A2.993,2.993,0,0,0,55,42H49a2.993,2.993,0,0,0-1,5.816V48.2a2.365,2.365,0,0,1-1.055,1.971A4.36,4.36,0,0,0,45,53.8V59a3,3,0,0,0,3,3h8a3,3,0,0,0,3-3V53.8A4.36,4.36,0,0,0,57.055,50.168ZM47,54H57v2H47Zm2-10h6a1,1,0,0,1,0,2H49a1,1,0,0,1,0-2Zm-.945,7.832A4.36,4.36,0,0,0,50,48.2V48h4v.2a4.36,4.36,0,0,0,1.945,3.635,2.239,2.239,0,0,1,.2.168H47.86A2.239,2.239,0,0,1,48.055,51.832ZM56,60H48a1,1,0,0,1-1-1V58H57v1A1,1,0,0,1,56,60Z" style="fill: #3b8686"/></g></g></g></svg>