<svg viewBox="0 0 542.652 199.843" xmlns="http://www.w3.org/2000/svg" class="h-8 md:h-10"><g data-name="Layer"><path d="M0 0l-16.441-49.607h-9.78l-12.26 36.709-12.473-36.709h-9.851L-77.246 0h9.567l12.331-37.702L-42.521 0h8.504l12.544-37.914L-8.788 0z" transform="matrix(1 0 0 -1 330.333 11.688)"></path><path d="M0 0l-9.354 21.686L-18.638 0zm3.048-7.229h-24.804l-4.89-11.48h-9.497l22.324 49.607h9.071l22.394-49.607H8.008z" transform="matrix(1 0 0 -1 365.413 42.587)"></path><clipPath id="a"><path d="M0 199.843h542.651V0H0z" transform="matrix(1 0 0 -1 0 199.843)"></path></clipPath><g clip-path="url(#a)"><path d="M0 0c-2.079 1.701-5.127 2.551-9.142 2.551h-10.772v-19.772h10.772c4.015 0 7.063.862 9.142 2.587 2.078 1.724 3.118 4.169 3.118 7.335C3.118-4.135 2.078-1.701 0 0m3.331-39.261L-6.804-24.733c-.425-.047-1.062-.071-1.913-.071h-11.197v-14.457h-9.213v49.608h20.41c4.299 0 8.044-.709 11.233-2.126 3.189-1.418 5.633-3.45 7.335-6.095 1.701-2.647 2.551-5.788 2.551-9.425 0-3.733-.911-6.946-2.728-9.638-1.82-2.693-4.43-4.702-7.831-6.024l11.409-16.3z" transform="matrix(1 0 0 -1 418.492 22.035)"></path><path d="M0 0h8.717v-19.772c-2.551-2.032-5.528-3.591-8.93-4.677a34.248 34.248 0 00-10.488-1.63c-5.056 0-9.614 1.098-13.677 3.295-4.064 2.197-7.253 5.232-9.567 9.107-2.316 3.873-3.473 8.243-3.473 13.11 0 4.865 1.157 9.236 3.473 13.11 2.314 3.874 5.515 6.91 9.602 9.107 4.086 2.197 8.682 3.295 13.783 3.295 4.158 0 7.938-.685 11.339-2.055 3.403-1.37 6.26-3.378 8.575-6.023l-5.81-5.67c-3.78 3.78-8.34 5.67-13.678 5.67-3.497 0-6.602-.734-9.319-2.198-2.717-1.464-4.843-3.52-6.378-6.165-1.536-2.647-2.304-5.67-2.304-9.071 0-3.308.768-6.284 2.304-8.929 1.535-2.647 3.661-4.725 6.378-6.236C-16.736-17.245-13.654-18-10.205-18c3.874 0 7.275.85 10.205 2.551z" transform="matrix(1 0 0 -1 475.044 35.925)"></path><path d="M0 0l-9.354 21.686L-18.638 0zm3.048-7.229h-24.804l-4.891-11.48h-9.496l22.324 49.607h9.071l22.394-49.607H8.008z" transform="matrix(1 0 0 -1 525.005 42.587)"></path><path d="M0 0l-16.441-49.607h-9.78l-12.26 36.709-12.473-36.709h-9.851L-77.246 0h9.567l12.331-37.701L-42.521 0h8.504l12.544-37.914L-8.788 0z" transform="matrix(1 0 0 -1 330.333 145.095)"></path><path d="M0 0l-9.354 21.686L-18.638 0zm3.048-7.229h-24.804l-4.89-11.48h-9.497l22.324 49.607h9.071l22.394-49.607H8.008z" transform="matrix(1 0 0 -1 365.413 175.993)"></path><path d="M0 0c-2.079 1.701-5.127 2.551-9.142 2.551h-10.772v-19.772h10.772c4.015 0 7.063.862 9.142 2.587C2.078-12.91 3.118-10.465 3.118-7.3S2.078-1.701 0 0m3.331-39.261L-6.804-24.732c-.425-.048-1.062-.072-1.913-.072h-11.197v-14.457h-9.213v49.608h20.41c4.299 0 8.044-.709 11.233-2.126 3.189-1.418 5.633-3.45 7.335-6.095 1.701-2.647 2.551-5.788 2.551-9.426 0-3.732-.911-6.944-2.728-9.638-1.82-2.693-4.43-4.701-7.831-6.023l11.409-16.3z" transform="matrix(1 0 0 -1 418.492 155.441)"></path><path d="M0 0h8.717v-19.772c-2.551-2.033-5.528-3.591-8.93-4.678a34.278 34.278 0 00-10.488-1.63c-5.056 0-9.614 1.099-13.677 3.296-4.064 2.196-7.253 5.231-9.567 9.106-2.316 3.873-3.473 8.244-3.473 13.111 0 4.865 1.157 9.236 3.473 13.11 2.314 3.873 5.515 6.91 9.602 9.106 4.086 2.198 8.682 3.296 13.783 3.296 4.158 0 7.938-.685 11.339-2.055 3.403-1.371 6.26-3.378 8.575-6.024l-5.81-5.67c-3.78 3.78-8.34 5.67-13.678 5.67-3.497 0-6.602-.733-9.319-2.197-2.717-1.465-4.843-3.52-6.378-6.165-1.536-2.647-2.304-5.67-2.304-9.071 0-3.308.768-6.285 2.304-8.93 1.535-2.647 3.661-4.725 6.378-6.236 2.717-1.513 5.799-2.268 9.248-2.268 3.874 0 7.275.851 10.205 2.552z" transform="matrix(1 0 0 -1 475.044 169.331)"></path><path d="M0 0l-9.354 21.686L-18.638 0zm3.048-7.229h-24.804l-4.891-11.48h-9.496l22.324 49.607h9.071l22.394-49.607H8.008z" transform="matrix(1 0 0 -1 525.005 175.993)"></path><path d="M0 0c0 3.401-2.552 5.031-7.37 5.031h-11.763V-5.031H-7.37C-2.552-5.031 0-3.401 0 0m-19.133 24.306v-9.567h9.637c4.677 0 7.086 1.63 7.086 4.819 0 3.118-2.409 4.748-7.086 4.748zM14.172-1.56c0-8.574-7.086-13.605-20.408-13.605h-26.786v49.604h25.369c13.038 0 19.416-5.315 19.416-12.968 0-4.748-2.409-8.574-6.661-10.771 5.597-1.984 9.07-6.236 9.07-12.26" transform="matrix(1 0 0 -1 289.156 114.18)"></path><path d="M0 0l-6.378 15.873L-12.756 0zm4.109-10.346h-20.974l-3.898-9.637h-14.314l21.896 49.604H.638l21.966-49.604H8.007z" transform="matrix(1 0 0 -1 345.567 109.361)"></path><path d="M0 0v-49.604h-11.551l-21.895 26.432v-26.432h-13.748V0h11.55l21.897-26.432V0z" transform="matrix(1 0 0 -1 425.15 79.74)"></path><path d="M0 0h-15.235v11.125h44.43V0H14.031v-38.479H0z" transform="matrix(1 0 0 -1 451.443 90.866)"></path><path d="M0 0v27.495h14.03V.425c0-8.503 3.543-11.904 9.425-11.904 5.811 0 9.354 3.401 9.354 11.904v27.07h13.818V0c0-14.811-8.646-23.102-23.313-23.102C8.646-23.102 0-14.811 0 0" transform="matrix(1 0 0 -1 490.493 107.236)"></path><path d="M0 0h-149.179c-13.908 0-25.182 11.274-25.182 25.183V174.52c0 13.908 11.274 25.183 25.182 25.183H0c13.908 0 25.183-11.275 25.183-25.183V25.183C25.183 11.274 13.908 0 0 0" fill="#fff" transform="matrix(1 0 0 -1 174.65 199.703)"></path><path d="M0 0c1.563.666 3.13 1.326 4.705 1.966.441.179.894.326 1.349.467" fill="#3d8bc9" transform="matrix(1 0 0 -1 92.753 160.188)"></path><path d="M0 0c4.786 1.279 9.893 1.653 13.928-2.155 4.257-4.018 2.668-7.067 2.554-7.954-.477-1.001-1.6-1.529-3.018-1.827-3.1-.652-5.899-2.568-8.693-4.009-3.131-1.616-6.29-3.168-9.299-5.006-5.504-3.36-10.573-7.37-15.705-11.258-5.109-3.87-10.488-7.337-15.619-11.169H80.626c3.335 0 6.533 1.331 8.883 3.698l2.381 2.399a17.447 17.447 0 015.066 12.294v131.483c-.274.849-.981.708-1.316-.6-.253-.813-.393-2.714-.478-3.92-.057-1.708-.815-10.695-.971-12.858-.071-1.572-.4-4.645-.423-4.98-.347-4.91.253-11.594-2.872-15.697a2.51 2.51 0 00-.223-.247c-.023-.043-.038-.09-.062-.131-.357-.636-1.999-1.209-2.648-.912-3.315 1.515-5.581 6.877-4.732 10.582.13.563 1.07 4.78.426 13.002-1.876-.975-2.299-2.984-2.643-4.69-.898-4.441-1.535-8.941-2.107-13.44-.508-4.005-.736-8.044-1.176-12.059-.656-5.997-1.201-12.018-2.203-17.96-.307-1.826-.742-4.528-3.739-4.466-2.204.046-5.369 2.997-5.41 5.14-.127 6.627-.182 13.256-.193 19.884-.01 5.033.213 10.07.061 15.097-.02.668-.226 1.33-.497 1.991-.493 1.206-2.172 1.332-2.853.221-.405-.661-.756-1.342-.902-1.845-1.032-3.557-1.943-7.15-2.952-10.715-.97-3.425-4.396-19.663-5.877-24.224-1.626-5.007-3.832-9.811-5.7-14.726-.935-2.459-1.885-4.669-4.434-5.522-1.453-.736-3.188-.564-4.438 1.075-.83 1.087-1.23 2.516-1.323 3.973-.912 6.138 3.937 23.87 4.703 27.064.952 3.972 2.284 7.852 3.238 11.823 1.063 4.424 1.975 8.884 2.904 13.34.279 2.377-1.487 3.492-3.136 2.958-.498-.161-1.324-.674-1.82-1.658-3.178-6.3-6.343-12.841-10.847-18.131-5.166-6.064-15.638-24.142-16.612-26.609-1.039-2.635-3.179-3.19-5.097-2.607-1.932.588-4.116 1.695-3.945 4.75.29 5.189 1.323 9.945 3.02 15.026 2.824 8.454 7.56 15.758 11.986 23.214.144.396.278.795.438 1.184 2.707 6.608 5.767 12.642 7.449 19.648 1.738 7.239 4.303 15.658 3.634 23.127-.023.249-.056.483-.092.712a38.927 38.927 0 01-.537 1.853c-.828 1.813-2.379 2.581-4.444 2.523-5.152-1.972-10.157-4.347-15.342-6.222-5.752-2.079-11.456-5.498-17.661-4.586a8.683 8.683 0 00-1.299.298c-3.693.529-8.126 1.886-8.597 5.362-.014.01-.364 2.039 1.406 3.939.26.382.537.702.818.891 3.603 2.41 7.65 4.15 11.491 6.211 2.372 1.273 4.705 2.617 7.062 3.916.666.415 1.333.827 2.002 1.232 4.167 2.521 8.679 4.472 12.797 7.047 2.124 1.327 4.07 2.769 6.051 4.175l.138.122c2.347 2.513 5.288 3.697 8.26 4.879 1.004.487 2.056 1.014 3.053 1.597.307.302.604.629.92.907h-124.13a16.781 16.781 0 01-11.848-4.899l-1.22-1.218a16.664 16.664 0 01-4.89-11.79l.312-157.694c1.367-3.045 3.995 3.656 4.843 8.695.115.681.255 1.358.392 2.036.358 4.085.625 8.182.922 12.31.653 9.07 2.28 18.021 2.399 27.133.009.673 1.34 11.908 2.265 16.977.383 2.1 2.038 3.371 3.653 3.052 1.078.228 2.257-.557 3.069-1.501 4.25-4.932 2.193-13.269 2.427-19.519l.515-.114c.659 1.331 1.45 2.643 1.644 4.039 1.03 7.375 1.823 14.783 2.684 22.18.493 4.235.823 8.495 1.481 12.704.388 2.478 1.012 4.993 2.024 7.274.558 1.259 1.841 1.874 2.953 2.047 2.359.69 5.125-.674 6.15-3.583.373-1.057.944-12.674.542-16.913a1.33 1.33 0 00.066-.524c-.357-3.254-.762-6.502-1.161-9.751-.016-.227-.04-.452-.052-.678-.036-.731-.269-4.907.534-7.54a2.49 2.49 0 011.561-1.622c.179-.062.344-.089.488-.022.487.363.91.973 1.274 1.655.745 1.881 1.077 4.067 1.508 5.798.753 3.025 1.474 6.046 2.47 9.002 1.634 4.85 2.932 9.868 4.775 14.649 1.663 5.653 3.2 11.467 5.31 16.951.549 1.425 2.082 6.084 5.974 7.504 1.331.485 4.016-1.598 4.416-3.104 2.109-7.959-1.397-21.788-2.598-26.386-1.267-4.847-3.163-9.528-4.458-14.369-1.001-3.738-1.79-7.529-2.571-11.329-.291-1.416-.481-2.874-.886-4.266-.746-2.559 1.097-2.33 1.631-2.2.792.196 1.731.558 2.205 1.164 3.386 4.333 7.078 8.36 9.779 13.296 6.467 11.82 13.491 23.333 20.211 35.016 2.451 4.262 7.081 1.129 7.98-4.153.647-3.801-2.426-10.351-5.5-18.519-.876-2.332-2.911-7.602-4.932-11.645C-28.609 22.785-30.903 9.567-32.143 3.34c-.178-.902-.383-1.88-.575-2.901a8.233 8.233 0 00-.319-2.287c.098-.379.138-.8.073-1.285-.959-7.305 8.039-5.028 12.275-3.794 2.499.728 5.139 1.441 7.763 2.241" fill="#3d8bc9" transform="matrix(1 0 0 -1 102.876 156.465)"></path><path d="M0 0s-1.341-5.562-1.441-6.382c-.1-.821.56-.921.72-.821.16.1.76.821.76.821z" fill="#3d8bc9" transform="matrix(1 0 0 -1 199.834 44.774)"></path></g></g></svg>